<svg width="20" height="30" viewBox="0 0 20 30" fill="none" xmlns="http://www.w3.org/2000/svg">
<path d="M4.66602 11.0007V8.33398H15.3327V11.0007H4.66602ZM3.33268 29.6673C2.59935 29.6673 1.97157 29.4062 1.44935 28.884C0.927127 28.3618 0.666016 27.734 0.666016 27.0007V3.00065C0.666016 2.26732 0.927127 1.63954 1.44935 1.11732C1.97157 0.595096 2.59935 0.333984 3.33268 0.333984H16.666C17.3993 0.333984 18.0271 0.595096 18.5493 1.11732C19.0716 1.63954 19.3327 2.26732 19.3327 3.00065V27.0007C19.3327 27.734 19.0716 28.3618 18.5493 28.884C18.0271 29.4062 17.3993 29.6673 16.666 29.6673H3.33268ZM3.33268 25.6673V27.0007H16.666V25.6673H3.33268ZM3.33268 23.0007H16.666V7.00065H3.33268V23.0007ZM3.33268 4.33398H16.666V3.00065H3.33268V4.33398Z" fill="#393939"/>
</svg>
