<svg width="32" height="32" viewBox="0 0 32 32" fill="none" xmlns="http://www.w3.org/2000/svg">
<g clip-path="url(#clip0_13318_87940)">
<path d="M22.6672 22.1605C23.4919 22.1605 24.1605 21.4919 24.1605 20.6672C24.1605 19.8424 23.4919 19.1738 22.6672 19.1738C21.8424 19.1738 21.1738 19.8424 21.1738 20.6672C21.1738 21.4919 21.8424 22.1605 22.6672 22.1605Z" fill="#393939"/>
<path fill-rule="evenodd" clip-rule="evenodd" d="M22.6664 23.334C21.693 23.334 19.7464 23.814 19.6797 24.774C20.3464 25.7207 21.4397 26.334 22.6664 26.334C23.893 26.334 24.9864 25.7207 25.653 24.774C25.5864 23.814 23.6397 23.334 22.6664 23.334Z" fill="#393939"/>
<path fill-rule="evenodd" clip-rule="evenodd" d="M24 14.7867V8.36L14 4L4 8.36V14.9067C4 20.96 8.26667 26.6267 14 28C14.7333 27.8267 15.44 27.5733 16.1333 27.2667C17.5733 29.32 19.96 30.6667 22.6667 30.6667C27.08 30.6667 30.6667 27.08 30.6667 22.6667C30.6667 18.7067 27.7867 15.4267 24 14.7867ZM14.6667 22.6667C14.6667 23.4133 14.7733 24.1467 14.9733 24.8267C14.6533 24.9733 14.3333 25.12 14 25.2267C9.77333 23.8933 6.66667 19.5733 6.66667 14.9067V10.1067L14 6.90667L21.3333 10.1067V14.7867C17.5467 15.4267 14.6667 18.7067 14.6667 22.6667ZM22.6667 28C19.72 28 17.3333 25.6133 17.3333 22.6667C17.3333 19.72 19.72 17.3333 22.6667 17.3333C25.6133 17.3333 28 19.72 28 22.6667C28 25.6133 25.6133 28 22.6667 28Z" fill="#393939"/>
</g>
<defs>
<clipPath id="clip0_13318_87940">
<rect width="32" height="32" fill="white"/>
</clipPath>
</defs>
</svg>
