<svg width="24" height="24" viewBox="0 0 24 24" fill="none" xmlns="http://www.w3.org/2000/svg">
<mask id="mask0_21583_50191" style="mask-type:alpha" maskUnits="userSpaceOnUse" x="0" y="0" width="25" height="24">
<rect x="0.00292969" width="24" height="24" fill="#D9D9D9"/>
</mask>
<g mask="url(#mask0_21583_50191)">
<path d="M8.40293 14.65C8.55293 14.25 8.67376 13.8292 8.76543 13.3875C8.8571 12.9458 8.90293 12.4833 8.90293 12C8.90293 11.5167 8.8571 11.0542 8.76543 10.6125C8.67376 10.1708 8.55293 9.75 8.40293 9.35L6.55293 10.1C6.65293 10.4 6.73626 10.7083 6.80293 11.025C6.8696 11.3417 6.90293 11.6667 6.90293 12C6.90293 12.3333 6.8696 12.6583 6.80293 12.975C6.73626 13.2917 6.65293 13.6 6.55293 13.9L8.40293 14.65ZM11.6029 16C11.8863 15.3667 12.0904 14.7167 12.2154 14.05C12.3404 13.3833 12.4029 12.7 12.4029 12C12.4029 11.3 12.3404 10.6167 12.2154 9.95C12.0904 9.28333 11.8863 8.63333 11.6029 8L9.75293 8.75C9.98626 9.25 10.1529 9.77083 10.2529 10.3125C10.3529 10.8542 10.4029 11.4167 10.4029 12C10.4029 12.5833 10.3529 13.1458 10.2529 13.6875C10.1529 14.2292 9.98626 14.75 9.75293 15.25L11.6029 16ZM14.8529 17.35C15.2029 16.5167 15.4654 15.6542 15.6404 14.7625C15.8154 13.8708 15.9029 12.95 15.9029 12C15.9029 11.05 15.8154 10.1292 15.6404 9.2375C15.4654 8.34583 15.2029 7.48333 14.8529 6.65L13.0029 7.45C13.3029 8.15 13.5279 8.88333 13.6779 9.65C13.8279 10.4167 13.9029 11.2 13.9029 12C13.9029 12.8 13.8279 13.5833 13.6779 14.35C13.5279 15.1167 13.3029 15.85 13.0029 16.55L14.8529 17.35ZM12.0029 22C10.6196 22 9.3196 21.7375 8.10293 21.2125C6.88626 20.6875 5.82793 19.975 4.92793 19.075C4.02793 18.175 3.31543 17.1167 2.79043 15.9C2.26543 14.6833 2.00293 13.3833 2.00293 12C2.00293 10.6167 2.26543 9.31667 2.79043 8.1C3.31543 6.88333 4.02793 5.825 4.92793 4.925C5.82793 4.025 6.88626 3.3125 8.10293 2.7875C9.3196 2.2625 10.6196 2 12.0029 2C13.3863 2 14.6863 2.2625 15.9029 2.7875C17.1196 3.3125 18.1779 4.025 19.0779 4.925C19.9779 5.825 20.6904 6.88333 21.2154 8.1C21.7404 9.31667 22.0029 10.6167 22.0029 12C22.0029 13.3833 21.7404 14.6833 21.2154 15.9C20.6904 17.1167 19.9779 18.175 19.0779 19.075C18.1779 19.975 17.1196 20.6875 15.9029 21.2125C14.6863 21.7375 13.3863 22 12.0029 22ZM12.0029 20C14.2363 20 16.1279 19.225 17.6779 17.675C19.2279 16.125 20.0029 14.2333 20.0029 12C20.0029 9.76667 19.2279 7.875 17.6779 6.325C16.1279 4.775 14.2363 4 12.0029 4C9.7696 4 7.87793 4.775 6.32793 6.325C4.77793 7.875 4.00293 9.76667 4.00293 12C4.00293 14.2333 4.77793 16.125 6.32793 17.675C7.87793 19.225 9.7696 20 12.0029 20Z" fill="#393939"/>
</g>
</svg>
