<svg width="34" height="34" viewBox="0 0 34 34" fill="none" xmlns="http://www.w3.org/2000/svg">
<mask id="mask0_8002_96468" style="mask-type:alpha" maskUnits="userSpaceOnUse" x="0" y="0" width="34" height="34">
<rect width="34" height="34" fill="#D9D9D9"/>
</mask>
<g mask="url(#mask0_8002_96468)">
<path d="M20.1868 23.7292H26.5618V17.3542H24.4368V21.6042H20.1868V23.7292ZM7.43685 16.6458H9.56185V12.3958H13.8118V10.2708H7.43685V16.6458ZM6.09102 27.625C5.38268 27.625 4.7806 27.3771 4.28477 26.8813C3.78893 26.3854 3.54102 25.7833 3.54102 25.075V8.925C3.54102 8.21667 3.78893 7.61458 4.28477 7.11875C4.7806 6.62292 5.38268 6.375 6.09102 6.375H27.9077C28.616 6.375 29.2181 6.62292 29.7139 7.11875C30.2098 7.61458 30.4577 8.21667 30.4577 8.925V25.075C30.4577 25.7833 30.2098 26.3854 29.7139 26.8813C29.2181 27.3771 28.616 27.625 27.9077 27.625H6.09102ZM6.09102 25.5H27.9077C28.0021 25.5 28.0966 25.4528 28.191 25.3583C28.2855 25.2639 28.3327 25.1694 28.3327 25.075V8.925C28.3327 8.83056 28.2855 8.73611 28.191 8.64167C28.0966 8.54722 28.0021 8.5 27.9077 8.5H6.09102C5.99657 8.5 5.90213 8.54722 5.80768 8.64167C5.71324 8.73611 5.66602 8.83056 5.66602 8.925V25.075C5.66602 25.1694 5.71324 25.2639 5.80768 25.3583C5.90213 25.4528 5.99657 25.5 6.09102 25.5Z" fill="#161616"/>
</g>
</svg>
