<svg width="22" height="23" viewBox="0 0 22 23" fill="none" xmlns="http://www.w3.org/2000/svg">
<path d="M3.00195 16V9H5.00195V16H3.00195ZM9.00195 16V9H11.002V16H9.00195ZM0.00195312 7V5L10.002 0L20.002 5V7H0.00195312ZM4.47695 5H15.527L10.002 2.25L4.47695 5ZM0.00195312 20V18H12.052C12.0853 18.35 12.127 18.6875 12.177 19.0125C12.227 19.3375 12.302 19.6667 12.402 20H0.00195312ZM15.002 12.25V9H17.002V11.25L15.002 12.25ZM18.002 23C16.852 22.7167 15.8978 22.0542 15.1395 21.0125C14.3811 19.9708 14.002 18.8167 14.002 17.55V15L18.002 13L22.002 15V17.55C22.002 18.8167 21.6228 19.9708 20.8645 21.0125C20.1061 22.0542 19.152 22.7167 18.002 23ZM17.277 20L20.752 16.55L19.702 15.5L17.277 17.875L16.302 16.9L15.252 17.975L17.277 20Z" fill="#1C1B1F"/>
</svg>
