<svg width="28" height="28" viewBox="0 0 28 28" fill="none" xmlns="http://www.w3.org/2000/svg">
<mask id="mask0_13127_26529" style="mask-type:alpha" maskUnits="userSpaceOnUse" x="0" y="0" width="28" height="28">
<rect width="28" height="28" fill="#D9D9D9"/>
</mask>
<g mask="url(#mask0_13127_26529)">
<path d="M13.1317 24.2076V21.7666C12.1161 21.5856 11.2415 21.1889 10.5078 20.5764C9.77415 19.9639 9.23232 19.1072 8.88232 18.0064L10.5022 17.3333C10.8163 18.2367 11.2639 18.9278 11.845 19.4064C12.4261 19.885 13.202 20.1243 14.1727 20.1243C15.0148 20.1243 15.7578 19.9239 16.4017 19.5231C17.0456 19.1222 17.3676 18.4865 17.3676 17.616C17.3676 16.8606 17.1256 16.2575 16.6418 15.8065C16.1579 15.3556 15.1569 14.8848 13.6387 14.3942C12.0488 13.8916 10.9446 13.3038 10.3261 12.6307C9.70759 11.9576 9.39834 11.1111 9.39834 10.091C9.39834 8.91685 9.81042 7.99287 10.6346 7.31904C11.4587 6.64522 12.2911 6.27091 13.1317 6.19613V3.79102H14.8816V6.19613C15.7716 6.31429 16.5195 6.60371 17.1252 7.06439C17.731 7.52507 18.2021 8.1241 18.5387 8.8615L16.9413 9.59288C16.6855 9.03049 16.3288 8.59374 15.8711 8.28263C15.4134 7.97151 14.8114 7.81596 14.065 7.81596C13.187 7.81596 12.4814 8.02985 11.9481 8.45763C11.4149 8.88542 11.1483 9.42988 11.1483 10.091C11.1483 10.77 11.4213 11.313 11.9672 11.7198C12.5132 12.1267 13.528 12.553 15.0118 12.9987C16.3908 13.4175 17.4199 14.0143 18.099 14.7891C18.778 15.5638 19.1175 16.4942 19.1175 17.5801C19.1175 18.8559 18.7073 19.8461 17.8869 20.5506C17.0665 21.2551 16.0648 21.6724 14.8816 21.8025V24.2076H13.1317Z" fill="#1C1B1F"/>
</g>
</svg>
