<svg width="86" height="86" viewBox="0 0 86 86" fill="none" xmlns="http://www.w3.org/2000/svg">
<path d="M42.835 7C62.6261 7 78.6699 23.0439 78.6699 42.835C78.6699 62.6261 62.6261 78.6699 42.835 78.6699C23.0439 78.6699 7 62.6261 7 42.835C7.00002 23.0439 23.0439 7.00002 42.835 7ZM42.5 52C40.0147 52 38 54.0147 38 56.5C38 58.9853 40.0147 61 42.5 61C44.9853 61 47 58.9853 47 56.5C47 54.0147 44.9853 52 42.5 52ZM42.5 24C40.0147 24 38 26.0147 38 28.5V43.5C38 45.9853 40.0147 48 42.5 48C44.9853 48 47 45.9853 47 43.5V28.5C47 26.0147 44.9853 24 42.5 24Z" fill="#FCBE07"/>
</svg>