<svg width="30" height="22" viewBox="0 0 30 22" fill="none" xmlns="http://www.w3.org/2000/svg">
<path d="M7.20833 21.625C5.24861 21.625 3.57789 20.9459 2.19617 19.5878C0.815389 18.2307 0.125 16.5722 0.125 14.6125C0.125 12.8417 0.691667 11.289 1.825 9.9545C2.95833 8.62094 4.36319 7.83611 6.03958 7.6C6.48819 5.475 7.55069 3.73958 9.22708 2.39375C10.9035 1.04792 12.8278 0.375 15 0.375C17.5736 0.375 19.752 1.26608 21.5351 3.04825C23.3173 4.83136 24.2083 7.00972 24.2083 9.58333V10.2917H24.6333C26.1444 10.4097 27.3958 11.0118 28.3875 12.0979C29.3792 13.184 29.875 14.4708 29.875 15.9583C29.875 17.5403 29.3319 18.88 28.2458 19.9774C27.1597 21.0758 25.8257 21.625 24.2437 21.625H16.4875C15.7792 21.625 15.1771 21.3771 14.6812 20.8813C14.1854 20.3854 13.9375 19.7833 13.9375 19.075V11.3188L11.3167 13.8687L9.82917 12.4167L15 7.21042L20.1708 12.4167L18.6833 13.8687L16.0625 11.3188V19.075C16.0625 19.1694 16.1097 19.2639 16.2042 19.3583C16.2986 19.4528 16.3931 19.5 16.4875 19.5H24.2083C25.2 19.5 26.0382 19.1576 26.7229 18.4729C27.4076 17.7882 27.75 16.95 27.75 15.9583C27.75 14.9667 27.4076 14.1285 26.7229 13.4438C26.0382 12.759 25.2 12.4167 24.2083 12.4167H22.0833V9.58333C22.0833 7.62361 21.3929 5.95289 20.0122 4.57117C18.6304 3.19039 16.9597 2.5 15 2.5C13.0403 2.5 11.37 3.19039 9.98925 4.57117C8.60753 5.95289 7.91667 7.62361 7.91667 9.58333H7.17292C5.82708 9.58333 4.67014 10.0674 3.70208 11.0354C2.73403 12.0035 2.25 13.1722 2.25 14.5417C2.25 15.9111 2.73403 17.0799 3.70208 18.0479C4.67014 19.016 5.83889 19.5 7.20833 19.5H10.75V21.625H7.20833Z" fill="#1C1B1F"/>
</svg>
