<svg width="42" height="32" viewBox="0 0 42 32" fill="none" xmlns="http://www.w3.org/2000/svg">
<path d="M38.2593 5.21269H31.5772L27.5798 1.17223C27.5798 1.17223 27.5602 1.15269 27.5485 1.15269L27.529 1.13315C26.935 0.539193 26.1339 0.164062 25.2235 0.164062H16.912C15.9429 0.164062 15.0793 0.578269 14.4775 1.24256V1.25429L10.5699 5.21269H3.73944C1.89895 5.21269 0.414062 6.65851 0.414062 8.49899V28.4981C0.414062 30.3386 1.89895 31.8313 3.73944 31.8313H38.2553C40.088 31.8313 41.5807 30.3386 41.5807 28.4981V8.49508C41.5846 6.6546 40.088 5.21269 38.2593 5.21269ZM20.9993 27.6619C15.5052 27.6619 11.0271 23.1721 11.0271 17.6702C11.0271 12.1565 15.5052 7.67839 20.9993 7.67839C26.5013 7.67839 30.9716 12.1565 30.9716 17.6702C30.9716 23.1721 26.5013 27.6619 20.9993 27.6619Z" fill="white"/>
</svg>
