<svg width="32" height="26" viewBox="0 0 32 26" fill="none" xmlns="http://www.w3.org/2000/svg">
<path d="M1.25977 16.0662C1.42698 17.0665 2.16789 17.8536 3.15095 18.0784C4.47132 18.3782 5.92142 18.5282 7.46666 18.5282C7.66269 18.5282 7.85873 18.5282 8.05765 18.5195C12.3157 23.2071 15.5157 24.6601 18.0901 24.6601C20.3936 24.6601 22.1983 23.4983 23.8185 22.4604C24.248 22.1808 24.6603 21.9184 25.0725 21.6849C28.5637 19.6727 30.0974 19.6554 30.1263 19.6554C30.3684 19.664 30.5846 19.5141 30.6682 19.2892C30.7432 19.0557 30.6682 18.802 30.4809 18.6521L24.1615 13.6503C24.2451 10.9259 23.5705 8.46395 22.204 6.53817C20.9788 4.80555 19.1914 3.50536 17.1791 2.87977C15.4206 2.33779 13.8379 2.2167 12.6588 2.24265C12.3301 1.45562 11.5633 0.651289 10.2804 0.884804C9.00613 1.11832 8.59676 2.10139 8.53045 2.85959C6.13476 3.48806 4.2724 4.65564 2.99816 6.36808C0.593822 9.58828 0.864815 13.829 1.25977 16.0662ZM11.4133 2.32625C10.9463 2.38103 10.6378 2.44734 10.5254 2.47617C10.2544 2.51364 9.98343 2.55112 9.71244 2.59725C9.81622 2.3349 10.0296 2.07256 10.4793 1.98896C10.955 1.90535 11.2461 2.10139 11.4133 2.32625ZM23.0372 13.5494C21.541 14.2125 16.0375 16.5159 10.5225 17.2078C9.10991 11.638 9.33478 8.17566 9.77298 6.2297C10.1391 4.60086 10.7099 3.80518 10.9233 3.54284C11.5402 3.42176 13.9359 3.05563 16.839 3.95509C19.9496 4.91798 23.1698 7.95079 23.0372 13.5494ZM9.50487 18.4417C15.5215 17.9458 21.6707 15.3916 23.5071 14.5757L28.803 18.7674C27.8862 19.0298 26.4823 19.5718 24.4988 20.7134C24.0693 20.9671 23.6282 21.2467 23.1986 21.5177C21.5323 22.5844 19.8199 23.6885 17.6202 23.5213C15.2332 23.3484 12.5752 21.6821 9.50487 18.4417ZM3.89763 7.03403C5.12286 5.39654 6.9881 4.30969 9.44721 3.79653C8.5391 5.57528 7.45513 9.57098 9.39244 17.3289C9.02631 17.3577 8.67171 17.3836 8.31711 17.3952C6.52107 17.4615 4.85475 17.3289 3.37582 16.9916C2.84248 16.8705 2.43888 16.4381 2.34663 15.8874C1.99779 13.8204 1.7441 9.92558 3.89763 7.03403Z" fill="#00ABAB" stroke="#49A39A" stroke-width="0.896376" stroke-miterlimit="10"/>
</svg>
