<svg width="292" height="184" viewBox="0 0 292 184" fill="none" xmlns="http://www.w3.org/2000/svg">
<g clip-path="url(#clip0_17315_42919)">
<g filter="url(#filter0_b_17315_42919)">
<path d="M8.94962 183C4.55917 183 1 179.441 1 175.05L1 8.9496C1 4.55916 4.55916 1 8.9496 1L283.05 1C287.441 1 291 4.55916 291 8.9496V175.05C291 179.441 287.441 183 283.05 183L8.94962 183Z" fill="#6F6F6F"/>
<path d="M8.94962 183C4.55917 183 1 179.441 1 175.05L1 8.9496C1 4.55916 4.55916 1 8.9496 1L283.05 1C287.441 1 291 4.55916 291 8.9496V175.05C291 179.441 287.441 183 283.05 183L8.94962 183Z" stroke="url(#paint0_linear_17315_42919)" stroke-opacity="0.69" stroke-width="2"/>
</g>
<mask id="mask0_17315_42919" style="mask-type:alpha" maskUnits="userSpaceOnUse" x="240" y="16" width="32" height="32">
<rect x="240" y="16" width="32" height="32" fill="#D9D9D9"/>
</mask>
<g mask="url(#mask0_17315_42919)">
<path d="M248.41 44.6659C247.745 44.6659 247.177 44.4304 246.706 43.9595C246.235 43.4885 246 42.9206 246 42.2556V29.7429C246 29.0779 246.235 28.51 246.706 28.0391C247.177 27.5681 247.745 27.3326 248.41 27.3326H250V24.666C250 23.001 250.584 21.5848 251.751 20.4173C252.919 19.2498 254.335 18.666 256 18.666C257.665 18.666 259.081 19.2498 260.249 20.4173C261.416 21.5848 262 23.001 262 24.666V27.3326H263.59C264.255 27.3326 264.823 27.5681 265.294 28.0391C265.764 28.51 266 29.0779 266 29.7429V42.2556C266 42.9206 265.764 43.4885 265.294 43.9595C264.823 44.4304 264.255 44.6659 263.59 44.6659H248.41ZM248.41 42.6659H263.59C263.709 42.6659 263.808 42.6275 263.885 42.5505C263.962 42.4736 264 42.3753 264 42.2556V29.7429C264 29.6232 263.962 29.5249 263.885 29.448C263.808 29.3711 263.709 29.3326 263.59 29.3326H248.41C248.291 29.3326 248.192 29.3711 248.115 29.448C248.038 29.5249 248 29.6232 248 29.7429V42.2556C248 42.3753 248.038 42.4736 248.115 42.5505C248.192 42.6275 248.291 42.6659 248.41 42.6659ZM256 38.3326C256.648 38.3326 257.199 38.1056 257.653 37.6518C258.106 37.198 258.333 36.6471 258.333 35.9993C258.333 35.3514 258.106 34.8005 257.653 34.3467C257.199 33.8929 256.648 33.666 256 33.666C255.352 33.666 254.801 33.8929 254.347 34.3467C253.894 34.8005 253.667 35.3514 253.667 35.9993C253.667 36.6471 253.894 37.198 254.347 37.6518C254.801 38.1056 255.352 38.3326 256 38.3326ZM252 27.3326H260V24.666C260 23.5548 259.611 22.6104 258.833 21.8326C258.056 21.0548 257.111 20.6659 256 20.6659C254.889 20.6659 253.944 21.0548 253.167 21.8326C252.389 22.6104 252 23.5548 252 24.666V27.3326Z" fill="white"/>
</g>
</g>
<defs>
<filter id="filter0_b_17315_42919" x="-13.415" y="-13.415" width="318.83" height="210.83" filterUnits="userSpaceOnUse" color-interpolation-filters="sRGB">
<feFlood flood-opacity="0" result="BackgroundImageFix"/>
<feGaussianBlur in="BackgroundImageFix" stdDeviation="6.70748"/>
<feComposite in2="SourceAlpha" operator="in" result="effect1_backgroundBlur_17315_42919"/>
<feBlend mode="normal" in="SourceGraphic" in2="effect1_backgroundBlur_17315_42919" result="shape"/>
</filter>
<linearGradient id="paint0_linear_17315_42919" x1="-32.2182" y1="167.434" x2="104.336" y2="258.5" gradientUnits="userSpaceOnUse">
<stop offset="0.0302063" stop-color="white"/>
<stop offset="0.529228" stop-color="white" stop-opacity="0"/>
<stop offset="1" stop-color="white"/>
</linearGradient>
<clipPath id="clip0_17315_42919">
<rect width="292" height="184" fill="white"/>
</clipPath>
</defs>
</svg>
