<svg width="20" height="21" viewBox="0 0 20 21" fill="none" xmlns="http://www.w3.org/2000/svg">
<path d="M10.05 17.5L12.9 14.675L10.05 11.85L9 12.9L10.075 13.975C9.60833 13.9917 9.15417 13.9167 8.7125 13.75C8.27083 13.5833 7.875 13.325 7.525 12.975C7.19167 12.6417 6.9375 12.2583 6.7625 11.825C6.5875 11.3917 6.5 10.9583 6.5 10.525C6.5 10.2417 6.5375 9.95833 6.6125 9.675C6.6875 9.39167 6.79167 9.11667 6.925 8.85L5.825 7.75C5.54167 8.16667 5.33333 8.60833 5.2 9.075C5.06667 9.54167 5 10.0167 5 10.5C5 11.1333 5.125 11.7583 5.375 12.375C5.625 12.9917 5.99167 13.5417 6.475 14.025C6.95833 14.5083 7.5 14.8708 8.1 15.1125C8.7 15.3542 9.31667 15.4833 9.95 15.5L9 16.45L10.05 17.5ZM14.175 13.25C14.4583 12.8333 14.6667 12.3917 14.8 11.925C14.9333 11.4583 15 10.9833 15 10.5C15 9.86667 14.8792 9.2375 14.6375 8.6125C14.3958 7.9875 14.0333 7.43333 13.55 6.95C13.0667 6.46667 12.5208 6.10833 11.9125 5.875C11.3042 5.64167 10.6833 5.525 10.05 5.525L11 4.55L9.95 3.5L7.1 6.325L9.95 9.15L11 8.1L9.9 7C10.35 7 10.8083 7.0875 11.275 7.2625C11.7417 7.4375 12.1417 7.69167 12.475 8.025C12.8083 8.35833 13.0625 8.74167 13.2375 9.175C13.4125 9.60833 13.5 10.0417 13.5 10.475C13.5 10.7583 13.4625 11.0417 13.3875 11.325C13.3125 11.6083 13.2083 11.8833 13.075 12.15L14.175 13.25ZM10 20.5C8.61667 20.5 7.31667 20.2375 6.1 19.7125C4.88333 19.1875 3.825 18.475 2.925 17.575C2.025 16.675 1.3125 15.6167 0.7875 14.4C0.2625 13.1833 0 11.8833 0 10.5C0 9.11667 0.2625 7.81667 0.7875 6.6C1.3125 5.38333 2.025 4.325 2.925 3.425C3.825 2.525 4.88333 1.8125 6.1 1.2875C7.31667 0.7625 8.61667 0.5 10 0.5C11.3833 0.5 12.6833 0.7625 13.9 1.2875C15.1167 1.8125 16.175 2.525 17.075 3.425C17.975 4.325 18.6875 5.38333 19.2125 6.6C19.7375 7.81667 20 9.11667 20 10.5C20 11.8833 19.7375 13.1833 19.2125 14.4C18.6875 15.6167 17.975 16.675 17.075 17.575C16.175 18.475 15.1167 19.1875 13.9 19.7125C12.6833 20.2375 11.3833 20.5 10 20.5ZM10 18.5C12.2333 18.5 14.125 17.725 15.675 16.175C17.225 14.625 18 12.7333 18 10.5C18 8.26667 17.225 6.375 15.675 4.825C14.125 3.275 12.2333 2.5 10 2.5C7.76667 2.5 5.875 3.275 4.325 4.825C2.775 6.375 2 8.26667 2 10.5C2 12.7333 2.775 14.625 4.325 16.175C5.875 17.725 7.76667 18.5 10 18.5Z" fill="#393939"/>
</svg>
