<svg width="34" height="34" viewBox="0 0 34 34" fill="none" xmlns="http://www.w3.org/2000/svg">
<mask id="mask0_8002_96448" style="mask-type:alpha" maskUnits="userSpaceOnUse" x="0" y="0" width="34" height="34">
<rect width="34" height="34" fill="#D9D9D9"/>
</mask>
<g mask="url(#mask0_8002_96448)">
<path d="M17 19.5077C17.6883 19.5077 18.2736 19.2666 18.7558 18.7844C19.238 18.3021 19.4791 17.7169 19.4791 17.0285C19.4791 16.3402 19.238 15.7549 18.7558 15.2727C18.2736 14.7905 17.6883 14.5494 17 14.5494C16.3116 14.5494 15.7263 14.7905 15.2441 15.2727C14.7619 15.7549 14.5208 16.3402 14.5208 17.0285C14.5208 17.7169 14.7619 18.3021 15.2441 18.7844C15.7263 19.2666 16.3116 19.5077 17 19.5077ZM11.6875 24.7384H22.3124V24.2235C22.3124 23.7204 22.1771 23.2736 21.9065 22.8831C21.6359 22.4926 21.2654 22.193 20.795 21.9841C20.2083 21.7335 19.5994 21.5396 18.9683 21.4025C18.3372 21.2653 17.6811 21.1968 17 21.1968C16.3189 21.1968 15.6628 21.2653 15.0316 21.4025C14.4005 21.5396 13.7916 21.7335 13.2049 21.9841C12.7345 22.193 12.364 22.4926 12.0934 22.8831C11.8228 23.2736 11.6875 23.7204 11.6875 24.2235V24.7384ZM25.064 30.4596H8.93591C8.2203 30.4596 7.61458 30.2117 7.11875 29.7158C6.62292 29.22 6.375 28.6143 6.375 27.8987V6.10388C6.375 5.38827 6.62292 4.78255 7.11875 4.28672C7.61458 3.79089 8.2203 3.54297 8.93591 3.54297H19.5336L27.6249 11.6343V27.8987C27.6249 28.6143 27.377 29.22 26.8812 29.7158C26.3853 30.2117 25.7796 30.4596 25.064 30.4596ZM25.064 28.3346C25.173 28.3346 25.2729 28.2892 25.3638 28.1984C25.4546 28.1076 25.5 28.0076 25.5 27.8987V12.5388L18.6291 5.66793H8.93591C8.82692 5.66793 8.72701 5.71334 8.63618 5.80415C8.54537 5.89498 8.49996 5.99489 8.49996 6.10388V27.8987C8.49996 28.0076 8.54537 28.1076 8.63618 28.1984C8.72701 28.2892 8.82692 28.3346 8.93591 28.3346H25.064Z" fill="#393939"/>
</g>
</svg>
