<svg width="33" height="32" viewBox="0 0 33 32" fill="none" xmlns="http://www.w3.org/2000/svg">
<mask id="mask0_17771_25695" style="mask-type:alpha" maskUnits="userSpaceOnUse" x="0" y="0" width="33" height="32">
<rect x="0.5" width="32" height="32" fill="#D9D9D9"/>
</mask>
<g mask="url(#mask0_17771_25695)">
<path d="M16.2962 24.3333H17.6295V23H19.6295C19.8193 23 19.9778 22.9363 20.1051 22.809C20.2325 22.6816 20.2962 22.5231 20.2962 22.3333V18.3333C20.2962 18.1436 20.2325 17.9851 20.1051 17.8577C19.9778 17.7303 19.8193 17.6667 19.6295 17.6667H14.9628V15H20.2962V13.6667H17.6295V12.3333H16.2962V13.6667H14.2962C14.1064 13.6667 13.9479 13.7303 13.8205 13.8577C13.6932 13.9851 13.6295 14.1436 13.6295 14.3333V18.3333C13.6295 18.5231 13.6932 18.6816 13.8205 18.809C13.9479 18.9363 14.1064 19 14.2962 19H18.9628V21.6667H13.6295V23H16.2962V24.3333ZM9.3218 28C8.70814 28 8.19575 27.7944 7.78464 27.3833C7.37352 26.9722 7.16797 26.4598 7.16797 25.8462V6.15383C7.16797 5.54017 7.37352 5.02778 7.78464 4.61667C8.19575 4.20556 8.70814 4 9.3218 4H19.8346L25.8346 10V25.8462C25.8346 26.4598 25.6291 26.9722 25.218 27.3833C24.8069 27.7944 24.2945 28 23.6808 28H9.3218ZM19.168 10.359V5.33333H9.3218C9.11669 5.33333 8.92866 5.4188 8.7577 5.58973C8.58677 5.76069 8.5013 5.94872 8.5013 6.15383V25.8462C8.5013 26.0513 8.58677 26.2393 8.7577 26.4103C8.92866 26.5812 9.11669 26.6667 9.3218 26.6667H23.6808C23.8859 26.6667 24.0739 26.5812 24.2449 26.4103C24.4158 26.2393 24.5013 26.0513 24.5013 25.8462V10.359H19.168Z" fill="#393939"/>
</g>
</svg>
