<svg width="24" height="18" viewBox="0 0 24 18" fill="none" xmlns="http://www.w3.org/2000/svg">
<path d="M23.0826 2.35898V15.641C23.0826 16.2303 22.8785 16.7291 22.4701 17.1374C22.0618 17.5458 21.563 17.7499 20.9736 17.7499H3.025C2.43568 17.7499 1.93685 17.5458 1.52852 17.1374C1.12018 16.7291 0.916016 16.2303 0.916016 15.641V2.35898C0.916016 1.76966 1.12018 1.27083 1.52852 0.8625C1.93685 0.454167 2.43568 0.25 3.025 0.25H20.9736C21.563 0.25 22.0618 0.454167 22.4701 0.8625C22.8785 1.27083 23.0826 1.76966 23.0826 2.35898ZM2.66599 4.80449H21.3327V2.35898C21.3327 2.26923 21.2953 2.18695 21.2205 2.11215C21.1457 2.03736 21.0634 1.99997 20.9736 1.99997H3.025C2.93524 1.99997 2.85296 2.03736 2.77816 2.11215C2.70338 2.18695 2.66599 2.26923 2.66599 2.35898V4.80449ZM2.66599 8.52878V15.641C2.66599 15.7307 2.70338 15.813 2.77816 15.8878C2.85296 15.9626 2.93524 16 3.025 16H20.9736C21.0634 16 21.1457 15.9626 21.2205 15.8878C21.2953 15.813 21.3327 15.7307 21.3327 15.641V8.52878H2.66599Z" fill="#1C1B1F"/>
</svg>
