<svg width="18" height="18" viewBox="0 0 18 18" fill="none" xmlns="http://www.w3.org/2000/svg">
<mask id="mask0_19364_64075" style="mask-type:alpha" maskUnits="userSpaceOnUse" x="0" y="0" width="18" height="18">
<rect width="18" height="18" fill="#D9D9D9"/>
</mask>
<g mask="url(#mask0_19364_64075)">
<path d="M9 17.25C7.6 17.25 6.3125 16.9312 5.1375 16.2938C3.9625 15.6562 3 14.8063 2.25 13.7438V15.75H0.75V11.25H5.25V12.75H3.39375C3.99375 13.65 4.78438 14.375 5.76562 14.925C6.74687 15.475 7.825 15.75 9 15.75C9.9375 15.75 10.8156 15.5719 11.6344 15.2156C12.4531 14.8594 13.1656 14.3781 13.7719 13.7719C14.3781 13.1656 14.8594 12.4531 15.2156 11.6344C15.5719 10.8156 15.75 9.9375 15.75 9H17.25C17.25 10.1375 17.0344 11.2063 16.6031 12.2063C16.1719 13.2063 15.5812 14.0812 14.8312 14.8312C14.0812 15.5812 13.2063 16.1719 12.2063 16.6031C11.2063 17.0344 10.1375 17.25 9 17.25ZM8.325 14.25V13.275C7.7375 13.1375 7.25938 12.8844 6.89062 12.5156C6.52187 12.1469 6.25 11.6625 6.075 11.0625L7.3125 10.575C7.4625 11.0875 7.69688 11.4719 8.01562 11.7281C8.33437 11.9844 8.7 12.1125 9.1125 12.1125C9.525 12.1125 9.87813 12.0156 10.1719 11.8219C10.4656 11.6281 10.6125 11.325 10.6125 10.9125C10.6125 10.55 10.4594 10.2563 10.1531 10.0312C9.84688 9.80625 9.3 9.55 8.5125 9.2625C7.775 9 7.23438 8.6875 6.89062 8.325C6.54688 7.9625 6.375 7.4875 6.375 6.9C6.375 6.3875 6.55313 5.92188 6.90938 5.50313C7.26563 5.08437 7.75 4.8125 8.3625 4.6875V3.75H9.675V4.6875C10.125 4.725 10.5344 4.90625 10.9031 5.23125C11.2719 5.55625 11.525 5.9375 11.6625 6.375L10.4625 6.8625C10.3625 6.575 10.2 6.33437 9.975 6.14062C9.75 5.94688 9.4375 5.85 9.0375 5.85C8.6 5.85 8.26563 5.94375 8.03438 6.13125C7.80313 6.31875 7.6875 6.575 7.6875 6.9C7.6875 7.225 7.83125 7.48125 8.11875 7.66875C8.40625 7.85625 8.925 8.075 9.675 8.325C10.575 8.65 11.175 9.03125 11.475 9.46875C11.775 9.90625 11.925 10.3875 11.925 10.9125C11.925 11.275 11.8625 11.5938 11.7375 11.8687C11.6125 12.1438 11.4469 12.3781 11.2406 12.5719C11.0344 12.7656 10.7938 12.9219 10.5188 13.0406C10.2438 13.1594 9.95 13.25 9.6375 13.3125V14.25H8.325ZM0.75 9C0.75 7.8625 0.965625 6.79375 1.39688 5.79375C1.82812 4.79375 2.41875 3.91875 3.16875 3.16875C3.91875 2.41875 4.79375 1.82812 5.79375 1.39688C6.79375 0.965625 7.8625 0.75 9 0.75C10.4 0.75 11.6875 1.06875 12.8625 1.70625C14.0375 2.34375 15 3.19375 15.75 4.25625V2.25H17.25V6.75H12.75V5.25H14.6063C14.0063 4.35 13.2156 3.625 12.2344 3.075C11.2531 2.525 10.175 2.25 9 2.25C8.0625 2.25 7.18438 2.42813 6.36563 2.78438C5.54688 3.14062 4.83438 3.62188 4.22813 4.22813C3.62188 4.83438 3.14062 5.54688 2.78438 6.36563C2.42813 7.18438 2.25 8.0625 2.25 9H0.75Z" fill="#393939"/>
</g>
</svg>
