<svg width="20" height="28" viewBox="0 0 20 28" fill="none" xmlns="http://www.w3.org/2000/svg">
<path d="M8.19935 24.666C7.99935 24.0882 7.74379 23.5549 7.43268 23.066C7.12157 22.5771 6.7549 22.1216 6.33268 21.6993C5.91046 21.2771 5.4549 20.9049 4.96602 20.5827C4.47713 20.2605 3.94379 19.9993 3.36602 19.7993C3.41046 20.4438 3.56602 21.0438 3.83268 21.5993C4.09935 22.1549 4.4549 22.6549 4.89935 23.0993C5.34379 23.5438 5.84379 23.9049 6.39935 24.1827C6.9549 24.4605 7.5549 24.6216 8.19935 24.666ZM11.7993 24.666C12.4438 24.5993 13.0438 24.4327 13.5993 24.166C14.1549 23.8993 14.6549 23.5438 15.0993 23.0993C15.5438 22.6549 15.8993 22.1549 16.166 21.5993C16.4327 21.0438 16.5993 20.4438 16.666 19.7993C16.0882 19.9993 15.5493 20.2549 15.0493 20.566C14.5493 20.8771 14.0882 21.2438 13.666 21.666C13.2438 22.0882 12.8771 22.5493 12.566 23.0493C12.2549 23.5493 11.9993 24.0882 11.7993 24.666ZM9.99935 12.666C11.466 12.666 12.7216 12.1438 13.766 11.0993C14.8105 10.0549 15.3327 8.79935 15.3327 7.33268V5.73268L12.9993 7.69935L9.99935 4.06602L6.99935 7.69935L4.66602 5.73268V7.33268C4.66602 8.79935 5.18824 10.0549 6.23268 11.0993C7.27713 12.1438 8.53268 12.666 9.99935 12.666ZM8.66602 27.3327C6.44379 27.3327 4.5549 26.5549 2.99935 24.9993C1.44379 23.4438 0.666016 21.5549 0.666016 19.3327V16.666C2.24379 16.6438 3.73268 16.966 5.13268 17.6327C6.53268 18.2993 7.71046 19.1993 8.66602 20.3327V15.2327C6.7549 14.9216 5.16602 14.0271 3.89935 12.5493C2.63268 11.0716 1.99935 9.33268 1.99935 7.33268V2.79935C1.99935 2.22157 2.2549 1.81602 2.76602 1.58268C3.27713 1.34935 3.7549 1.42157 4.19935 1.79935L6.66602 3.93268L8.96601 1.13268C9.23268 0.821571 9.57713 0.666016 9.99935 0.666016C10.4216 0.666016 10.766 0.821571 11.0327 1.13268L13.3327 3.93268L15.7993 1.79935C16.2438 1.42157 16.7216 1.34935 17.2327 1.58268C17.7438 1.81602 17.9993 2.22157 17.9993 2.79935V7.33268C17.9993 9.33268 17.366 11.0716 16.0993 12.5493C14.8327 14.0271 13.2438 14.9216 11.3327 15.2327V20.3327C12.2882 19.1993 13.466 18.2993 14.866 17.6327C16.266 16.966 17.7549 16.6438 19.3327 16.666V19.3327C19.3327 21.5549 18.5549 23.4438 16.9993 24.9993C15.4438 26.5549 13.5549 27.3327 11.3327 27.3327H8.66602Z" fill="#393939"/>
</svg>
