<svg width="32" height="33" viewBox="0 0 32 33" fill="none" xmlns="http://www.w3.org/2000/svg">
<mask id="mask0_8002_101860" style="mask-type:alpha" maskUnits="userSpaceOnUse" x="0" y="0" width="32" height="33">
<rect y="0.5" width="32" height="32" fill="#D9D9D9"/>
</mask>
<g mask="url(#mask0_8002_101860)">
<path d="M24 24.5C24.5556 24.5 25.0276 24.3053 25.416 23.916C25.8053 23.5276 26 23.0556 26 22.5C26 21.9444 25.8053 21.4724 25.416 21.084C25.0276 20.6947 24.5556 20.5 24 20.5C23.4444 20.5 22.9724 20.6947 22.584 21.084C22.1947 21.4724 22 21.9444 22 22.5C22 23.0556 22.1947 23.5276 22.584 23.916C22.9724 24.3053 23.4444 24.5 24 24.5ZM24 28.5C24.6667 28.5 25.2889 28.3444 25.8667 28.0333C26.4444 27.7222 26.9222 27.2889 27.3 26.7333C26.7889 26.4222 26.2556 26.1947 25.7 26.0507C25.1444 25.9058 24.5778 25.8333 24 25.8333C23.4222 25.8333 22.8556 25.9058 22.3 26.0507C21.7444 26.1947 21.2111 26.4222 20.7 26.7333C21.0778 27.2889 21.5556 27.7222 22.1333 28.0333C22.7111 28.3444 23.3333 28.5 24 28.5ZM6.66667 28.5C5.93333 28.5 5.30533 28.2391 4.78267 27.7173C4.26089 27.1947 4 26.5667 4 25.8333V7.16667C4 6.43333 4.26089 5.80533 4.78267 5.28267C5.30533 4.76089 5.93333 4.5 6.66667 4.5H25.3333C26.0667 4.5 26.6947 4.76089 27.2173 5.28267C27.7391 5.80533 28 6.43333 28 7.16667V16.1C27.5778 15.9 27.1444 15.7276 26.7 15.5827C26.2556 15.4387 25.8 15.3333 25.3333 15.2667V7.16667H6.66667V25.8333H14.7333C14.8 26.3222 14.9058 26.7889 15.0507 27.2333C15.1947 27.6778 15.3667 28.1 15.5667 28.5H6.66667ZM6.66667 25.8333V7.16667V15.2667V15.1667V25.8333ZM9.33333 23.1667H14.7667C14.8333 22.7 14.9387 22.2444 15.0827 21.8C15.2276 21.3556 15.3889 20.9222 15.5667 20.5H9.33333V23.1667ZM9.33333 17.8333H17.4667C18.1778 17.1667 18.972 16.6111 19.8493 16.1667C20.7276 15.7222 21.6667 15.4222 22.6667 15.2667V15.1667H9.33333V17.8333ZM9.33333 12.5H22.6667V9.83333H9.33333V12.5ZM24 31.1667C22.1556 31.1667 20.5836 30.5169 19.284 29.2173C17.9836 27.9169 17.3333 26.3444 17.3333 24.5C17.3333 22.6556 17.9836 21.0831 19.284 19.7827C20.5836 18.4831 22.1556 17.8333 24 17.8333C25.8444 17.8333 27.4169 18.4831 28.7173 19.7827C30.0169 21.0831 30.6667 22.6556 30.6667 24.5C30.6667 26.3444 30.0169 27.9169 28.7173 29.2173C27.4169 30.5169 25.8444 31.1667 24 31.1667Z" fill="#393939"/>
</g>
</svg>
