<svg width="25" height="25" viewBox="0 0 25 25" fill="none" xmlns="http://www.w3.org/2000/svg">
<mask id="mask0_18854_120291" style="mask-type:alpha" maskUnits="userSpaceOnUse" x="0" y="0" width="25" height="25">
<rect x="0.5" y="0.5" width="24" height="24" fill="#D9D9D9"/>
</mask>
<g mask="url(#mask0_18854_120291)">
<path d="M12.5002 23.7992L9.1502 20.4992H4.5002V15.8492L1.2002 12.4992L4.5002 9.14922V4.49922H9.1502L12.5002 1.19922L15.8502 4.49922H20.5002V9.14922L23.8002 12.4992L20.5002 15.8492V20.4992H15.8502L12.5002 23.7992ZM12.5002 18.4992C14.1669 18.4992 15.5835 17.9159 16.7502 16.7492C17.9169 15.5826 18.5002 14.1659 18.5002 12.4992C18.5002 10.8326 17.9169 9.41589 16.7502 8.24922C15.5835 7.08255 14.1669 6.49922 12.5002 6.49922C10.8335 6.49922 9.41686 7.08255 8.2502 8.24922C7.08353 9.41589 6.5002 10.8326 6.5002 12.4992C6.5002 14.1659 7.08353 15.5826 8.2502 16.7492C9.41686 17.9159 10.8335 18.4992 12.5002 18.4992ZM12.5002 16.4992C11.4002 16.4992 10.4585 16.1076 9.6752 15.3242C8.89186 14.5409 8.5002 13.5992 8.5002 12.4992C8.5002 11.3992 8.89186 10.4576 9.6752 9.67422C10.4585 8.89089 11.4002 8.49922 12.5002 8.49922C13.6002 8.49922 14.5419 8.89089 15.3252 9.67422C16.1085 10.4576 16.5002 11.3992 16.5002 12.4992C16.5002 13.5992 16.1085 14.5409 15.3252 15.3242C14.5419 16.1076 13.6002 16.4992 12.5002 16.4992ZM12.5002 20.9992L15.0002 18.4992H18.5002V14.9992L21.0002 12.4992L18.5002 9.99922V6.49922H15.0002L12.5002 3.99922L10.0002 6.49922H6.5002V9.99922L4.0002 12.4992L6.5002 14.9992V18.4992H10.0002L12.5002 20.9992Z" fill="#1C1B1F"/>
</g>
</svg>
