<svg width="34" height="34" viewBox="0 0 34 34" fill="none" xmlns="http://www.w3.org/2000/svg">
<mask id="mask0_8002_96453" style="mask-type:alpha" maskUnits="userSpaceOnUse" x="0" y="0" width="34" height="34">
<rect width="34" height="34" fill="#D9D9D9"/>
</mask>
<g mask="url(#mask0_8002_96453)">
<path d="M3.1875 8.14453V1.76953H9.5625V3.89453H5.3125V8.14453H3.1875ZM28.6875 8.14453V3.89453H24.4375V1.76953H30.8125V8.14453H28.6875ZM3.1875 32.2279V25.8529H5.3125V30.1029H9.5625V32.2279H3.1875ZM24.4375 32.2279V30.1029H28.6875V25.8529H30.8125V32.2279H24.4375ZM9.5625 25.4279C9.5625 25.5223 9.60972 25.6168 9.70417 25.7112C9.79861 25.8056 9.89306 25.8529 9.9875 25.8529H24.0125C24.1069 25.8529 24.2014 25.8056 24.2958 25.7112C24.3903 25.6168 24.4375 25.5223 24.4375 25.4279V8.56953C24.4375 8.47509 24.3903 8.38064 24.2958 8.2862C24.2014 8.19175 24.1069 8.14453 24.0125 8.14453H9.9875C9.89306 8.14453 9.79861 8.19175 9.70417 8.2862C9.60972 8.38064 9.5625 8.47509 9.5625 8.56953V25.4279ZM9.9875 27.9779C9.27917 27.9779 8.67708 27.7299 8.18125 27.2341C7.68542 26.7383 7.4375 26.1362 7.4375 25.4279V8.56953C7.4375 7.8612 7.68542 7.25912 8.18125 6.76328C8.67708 6.26745 9.27917 6.01953 9.9875 6.01953H24.0125C24.7208 6.01953 25.3229 6.26745 25.8188 6.76328C26.3146 7.25912 26.5625 7.8612 26.5625 8.56953V25.4279C26.5625 26.1362 26.3146 26.7383 25.8188 27.2341C25.3229 27.7299 24.7208 27.9779 24.0125 27.9779H9.9875ZM13.1042 13.8112H20.8958V11.6862H13.1042V13.8112ZM13.1042 18.0612H20.8958V15.9362H13.1042V18.0612ZM13.1042 22.3112H20.8958V20.1862H13.1042V22.3112ZM9.5625 25.4279V8.14453V25.8529V25.4279Z" fill="#161616"/>
</g>
</svg>
