<svg width="34" height="34" viewBox="0 0 34 34" fill="none" xmlns="http://www.w3.org/2000/svg">
<mask id="mask0_8002_96463" style="mask-type:alpha" maskUnits="userSpaceOnUse" x="0" y="0" width="34" height="34">
<rect width="34" height="34" fill="#D9D9D9"/>
</mask>
<g mask="url(#mask0_8002_96463)">
<path d="M8.925 30.4596C8.21667 30.4596 7.61458 30.2117 7.11875 29.7159C6.62292 29.2201 6.375 28.618 6.375 27.9096V6.09297C6.375 5.38464 6.62292 4.78255 7.11875 4.28672C7.61458 3.79089 8.21667 3.54297 8.925 3.54297H20.1875L27.625 10.9805V27.9096C27.625 28.618 27.3771 29.2201 26.8813 29.7159C26.3854 30.2117 25.7833 30.4596 25.075 30.4596H8.925ZM19.125 12.043V5.66797H8.925C8.83056 5.66797 8.73611 5.71519 8.64167 5.80964C8.54722 5.90408 8.5 5.99852 8.5 6.09297V27.9096C8.5 28.0041 8.54722 28.0985 8.64167 28.193C8.73611 28.2874 8.83056 28.3346 8.925 28.3346H25.075C25.1694 28.3346 25.2639 28.2874 25.3583 28.193C25.4528 28.0985 25.5 28.0041 25.5 27.9096V12.043H19.125Z" fill="#161616"/>
</g>
</svg>
