<svg width="24" height="24" viewBox="0 0 24 24" fill="none" xmlns="http://www.w3.org/2000/svg">
<mask id="mask0_21583_50173" style="mask-type:alpha" maskUnits="userSpaceOnUse" x="0" y="0" width="25" height="24">
<rect x="0.00292969" width="24" height="24" fill="#D9D9D9"/>
</mask>
<g mask="url(#mask0_21583_50173)">
<path d="M4.00293 20C3.45293 20 2.9821 19.8042 2.59043 19.4125C2.19876 19.0208 2.00293 18.55 2.00293 18V6C2.00293 5.45 2.19876 4.97917 2.59043 4.5875C2.9821 4.19583 3.45293 4 4.00293 4H20.0029C20.5529 4 21.0238 4.19583 21.4154 4.5875C21.8071 4.97917 22.0029 5.45 22.0029 6V12H4.00293V18H14.0029V20H4.00293ZM4.00293 8H20.0029V6H4.00293V8ZM19.0029 22V19H16.0029V17H19.0029V14H21.0029V17H24.0029V19H21.0029V22H19.0029Z" fill="#393939"/>
</g>
</svg>
