<svg width="24" height="24" viewBox="0 0 24 24" fill="none" xmlns="http://www.w3.org/2000/svg">
<mask id="mask0_8002_122017" style="mask-type:alpha" maskUnits="userSpaceOnUse" x="0" y="0" width="24" height="24">
<rect width="24" height="24" fill="#D9D9D9"/>
</mask>
<g mask="url(#mask0_8002_122017)">
<path d="M5.15425 18.999H6.39077L15.6504 9.73938L14.4139 8.50283L5.15425 17.7625V18.999ZM18.858 8.65478L15.4831 5.31061L16.787 4.00678C17.0806 3.7132 17.4376 3.56641 17.8581 3.56641C18.2786 3.56641 18.6356 3.7132 18.9292 4.00678L20.1465 5.22406C20.4401 5.51764 20.592 5.86956 20.6023 6.27981C20.6125 6.69006 20.4709 7.04197 20.1773 7.33556L18.858 8.65478ZM17.7735 9.75476L7.02922 20.499H3.6543V17.1241L14.3985 6.37981L17.7735 9.75476Z" fill="#C89B6A"/>
</g>
</svg>
