<svg width="73" height="72" viewBox="0 0 73 72" fill="none" xmlns="http://www.w3.org/2000/svg">
<path d="M36.5 0.166656C16.72 0.166656 0.666626 16.22 0.666626 36C0.666626 55.78 16.72 71.8333 36.5 71.8333C56.28 71.8333 72.3333 55.78 72.3333 36C72.3333 16.22 56.28 0.166656 36.5 0.166656ZM26.7891 51.3725L13.925 38.5083C12.5275 37.1108 12.5275 34.8533 13.925 33.4558C15.3225 32.0583 17.58 32.0583 18.9775 33.4558L29.3333 43.7758L53.9866 19.1225C55.3841 17.725 57.6416 17.725 59.0391 19.1225C60.4366 20.52 60.4366 22.7775 59.0391 24.175L31.8416 51.3725C30.48 52.77 28.1866 52.77 26.7891 51.3725Z" fill="#1A9338"/>
</svg>
