<svg width="73" height="72" viewBox="0 0 73 72" fill="none" xmlns="http://www.w3.org/2000/svg">
<path d="M36.5 0.166687C16.6841 0.166687 0.666626 16.1842 0.666626 36C0.666626 55.8159 16.6841 71.8334 36.5 71.8334C56.3158 71.8334 72.3333 55.8159 72.3333 36C72.3333 16.1842 56.3158 0.166687 36.5 0.166687ZM51.9083 51.4084C50.5108 52.8059 48.2533 52.8059 46.8558 51.4084L36.5 41.0525L26.1441 51.4084C24.7466 52.8059 22.4891 52.8059 21.0916 51.4084C19.6941 50.0109 19.6941 47.7534 21.0916 46.3559L31.4475 36L21.0916 25.6442C19.6941 24.2467 19.6941 21.9892 21.0916 20.5917C22.4891 19.1942 24.7466 19.1942 26.1441 20.5917L36.5 30.9475L46.8558 20.5917C48.2533 19.1942 50.5108 19.1942 51.9083 20.5917C53.3058 21.9892 53.3058 24.2467 51.9083 25.6442L41.5525 36L51.9083 46.3559C53.27 47.7175 53.27 50.0109 51.9083 51.4084Z" fill="#DC2A23"/>
</svg>
