<svg width="34" height="34" viewBox="0 0 34 34" fill="none" xmlns="http://www.w3.org/2000/svg">
<mask id="mask0_8002_96458" style="mask-type:alpha" maskUnits="userSpaceOnUse" x="0" y="0" width="34" height="34">
<rect width="34" height="34" fill="#D9D9D9"/>
</mask>
<g mask="url(#mask0_8002_96458)">
<path d="M2.30273 18.0612V15.9362H10.0944V18.0612H2.30273ZM11.334 12.8195L8.57149 10.057L10.059 8.56953L12.8215 11.332L11.334 12.8195ZM15.9382 10.0924V2.30078H18.0632V10.0924H15.9382ZM22.6673 12.8195L21.1798 11.332L23.9423 8.56953L25.4298 10.057L22.6673 12.8195ZM23.9069 18.0612V15.9362H31.6986V18.0612H23.9069ZM17.0007 20.5404C16.009 20.5404 15.1708 20.198 14.4861 19.5133C13.8013 18.8286 13.459 17.9904 13.459 16.9987C13.459 16.007 13.8013 15.1688 14.4861 14.4841C15.1708 13.7994 16.009 13.457 17.0007 13.457C17.9923 13.457 18.8305 13.7994 19.5152 14.4841C20.2 15.1688 20.5423 16.007 20.5423 16.9987C20.5423 17.9904 20.2 18.8286 19.5152 19.5133C18.8305 20.198 17.9923 20.5404 17.0007 20.5404ZM23.9423 25.4279L21.1798 22.6654L22.6673 21.1779L25.4298 23.9404L23.9423 25.4279ZM10.059 25.4279L8.57149 23.9404L11.334 21.1779L12.8215 22.6654L10.059 25.4279ZM15.9382 31.6966V23.9049H18.0632V31.6966H15.9382Z" fill="#161616"/>
</g>
</svg>
