<svg width="24" height="24" viewBox="0 0 24 24" fill="none" xmlns="http://www.w3.org/2000/svg">
<mask id="mask0_8002_101909" style="mask-type:alpha" maskUnits="userSpaceOnUse" x="0" y="0" width="24" height="24">
<rect width="24" height="24" fill="#D9D9D9"/>
</mask>
<g mask="url(#mask0_8002_101909)">
<path d="M9 19V17H21V19H9ZM9 13V11H21V13H9ZM9 7V5H21V7H9ZM5 20C4.45 20 3.979 19.8043 3.587 19.413C3.19567 19.021 3 18.55 3 18C3 17.45 3.19567 16.979 3.587 16.587C3.979 16.1957 4.45 16 5 16C5.55 16 6.02067 16.1957 6.412 16.587C6.804 16.979 7 17.45 7 18C7 18.55 6.804 19.021 6.412 19.413C6.02067 19.8043 5.55 20 5 20ZM5 14C4.45 14 3.979 13.804 3.587 13.412C3.19567 13.0207 3 12.55 3 12C3 11.45 3.19567 10.979 3.587 10.587C3.979 10.1957 4.45 10 5 10C5.55 10 6.02067 10.1957 6.412 10.587C6.804 10.979 7 11.45 7 12C7 12.55 6.804 13.0207 6.412 13.412C6.02067 13.804 5.55 14 5 14ZM5 8C4.45 8 3.979 7.804 3.587 7.412C3.19567 7.02067 3 6.55 3 6C3 5.45 3.19567 4.97933 3.587 4.588C3.979 4.196 4.45 4 5 4C5.55 4 6.02067 4.196 6.412 4.588C6.804 4.97933 7 5.45 7 6C7 6.55 6.804 7.02067 6.412 7.412C6.02067 7.804 5.55 8 5 8Z" fill="#393939"/>
</g>
</svg>
