<svg width="32" height="32" viewBox="0 0 32 32" fill="none" xmlns="http://www.w3.org/2000/svg">
<path d="M28.8604 13.8315C28.172 13.2575 27.2735 12.9705 26.3284 13.0024C25.3949 13.0449 24.5315 13.417 23.8897 14.0441L20.1325 17.7966C19.4908 16.8292 18.3239 16.1808 16.9937 16.1808H6.66731C4.08862 16.1808 2 18.0836 2 20.4329V25.7479C2 28.0972 4.08862 30 6.66731 30H12.4548C15.7802 30 18.954 28.7031 21.171 26.4389L29.1171 18.3175C30.3889 17.01 30.2723 15.0009 28.8604 13.8209V13.8315ZM27.3785 16.9143L19.4324 25.0357C17.6588 26.8428 15.1268 27.8846 12.4665 27.8846H6.66731C5.3838 27.8846 4.33366 26.9279 4.33366 25.7586V20.4435C4.33366 19.2742 5.3838 18.3175 6.66731 18.3175H17.0054C17.7405 18.3175 18.3356 18.8596 18.3356 19.5293C18.3356 20.1246 17.8455 20.6455 17.1921 20.7305L11.1713 21.5171C10.5295 21.6022 10.0861 22.1337 10.1795 22.7183C10.2728 23.303 10.8679 23.707 11.498 23.6219L17.5188 22.8353C18.8957 22.6546 20.0042 21.7829 20.4476 20.6455L25.6166 15.4792C25.8266 15.2666 26.1183 15.1391 26.4334 15.1284C26.7484 15.1284 27.0518 15.2135 27.2852 15.4048C27.7636 15.7981 27.7986 16.4785 27.3669 16.9143H27.3785Z" fill="#393939"/>
<path d="M12.6228 13.8193H13.0495C14.6776 13.8193 15.9913 12.426 15.9913 10.7257C15.9913 9.20254 14.9583 7.91553 13.5323 7.66757L9.84946 7.01817C9.51261 6.95913 9.26559 6.65213 9.26559 6.2861C9.26559 5.88465 9.57998 5.55404 9.96174 5.55404H12.926C13.3302 5.55404 13.7007 5.77838 13.9028 6.14441C14.206 6.71117 14.8909 6.90009 15.4411 6.56948C15.98 6.23887 16.1597 5.51862 15.8453 4.95186C15.2502 3.86558 14.1274 3.18074 12.926 3.18074H12.6228C12.6228 2.53134 12.1175 2 11.5 2C10.8825 2 10.3772 2.53134 10.3772 3.18074H9.95051C8.32243 3.18074 7.00873 4.57402 7.00873 6.2743C7.00873 7.79746 8.04172 9.08447 9.4677 9.33243L13.1505 9.98183C13.4874 10.0409 13.7344 10.3479 13.7344 10.7139C13.7344 11.1153 13.42 11.446 13.0383 11.446H10.074C9.66981 11.446 9.29928 11.2216 9.09717 10.8556C8.78278 10.2888 8.09786 10.0999 7.55891 10.4305C7.01996 10.7611 6.84031 11.4814 7.1547 12.0481C7.74979 13.1344 8.87261 13.8193 10.074 13.8193H10.3772C10.3772 14.4687 10.8825 15 11.5 15C12.1175 15 12.6228 14.4687 12.6228 13.8193Z" fill="#393939"/>
</svg>
