<svg width="32" height="32" viewBox="0 0 32 32" fill="none" xmlns="http://www.w3.org/2000/svg">
<mask id="mask0_8002_101855" style="mask-type:alpha" maskUnits="userSpaceOnUse" x="0" y="0" width="32" height="32">
<rect width="32" height="32" fill="#D9D9D9"/>
</mask>
<g mask="url(#mask0_8002_101855)">
<path d="M9.33398 18.6667C8.60065 18.6667 7.97309 18.4053 7.45132 17.8827C6.92865 17.3609 6.66732 16.7333 6.66732 16C6.66732 15.2667 6.92865 14.6387 7.45132 14.116C7.97309 13.5942 8.60065 13.3333 9.33398 13.3333C10.0673 13.3333 10.6949 13.5942 11.2167 14.116C11.7393 14.6387 12.0007 15.2667 12.0007 16C12.0007 16.7333 11.7393 17.3609 11.2167 17.8827C10.6949 18.4053 10.0673 18.6667 9.33398 18.6667ZM9.33398 24C7.11176 24 5.22287 23.2222 3.66732 21.6667C2.11176 20.1111 1.33398 18.2222 1.33398 16C1.33398 13.7778 2.11176 11.8889 3.66732 10.3333C5.22287 8.77778 7.11176 8 9.33398 8C10.8229 8 12.1731 8.36667 13.3847 9.1C14.5953 9.83333 15.5562 10.8 16.2673 12H28.0006L32.0006 16L26.0007 22L23.334 20L20.6673 22L17.834 20H16.2673C15.5562 21.2 14.5953 22.1667 13.3847 22.9C12.1731 23.6333 10.8229 24 9.33398 24ZM9.33398 21.3333C10.5784 21.3333 11.6731 20.9556 12.618 20.2C13.562 19.4444 14.1895 18.4889 14.5007 17.3333H18.6673L20.6006 18.7L23.334 16.6667L25.7006 18.5L28.2006 16L26.8673 14.6667H14.5007C14.1895 13.5111 13.562 12.5556 12.618 11.8C11.6731 11.0444 10.5784 10.6667 9.33398 10.6667C7.86732 10.6667 6.61176 11.1889 5.56732 12.2333C4.52287 13.2778 4.00065 14.5333 4.00065 16C4.00065 17.4667 4.52287 18.7222 5.56732 19.7667C6.61176 20.8111 7.86732 21.3333 9.33398 21.3333Z" fill="#393939"/>
</g>
</svg>
