<svg width="17" height="18" viewBox="0 0 17 18" fill="none" xmlns="http://www.w3.org/2000/svg">
<path d="M4.55835 13.7692C4.80918 13.7692 5.01921 13.6844 5.18843 13.5147C5.35766 13.345 5.44228 13.1347 5.44228 12.8839C5.44228 12.6331 5.35743 12.423 5.18775 12.2538C5.01808 12.0846 4.80783 12 4.557 12C4.30617 12 4.09613 12.0848 3.9269 12.2545C3.75768 12.4242 3.67308 12.6344 3.67308 12.8853C3.67308 13.1361 3.75791 13.3461 3.92758 13.5154C4.09726 13.6846 4.30752 13.7692 4.55835 13.7692ZM4.55835 9.88458C4.80918 9.88458 5.01921 9.79974 5.18843 9.63008C5.35766 9.46039 5.44228 9.25013 5.44228 8.9993C5.44228 8.74847 5.35743 8.53843 5.18775 8.3692C5.01808 8.19999 4.80783 8.11538 4.557 8.11538C4.30617 8.11538 4.09613 8.20021 3.9269 8.36988C3.75768 8.53956 3.67308 8.74982 3.67308 9.00065C3.67308 9.25148 3.75791 9.46152 3.92758 9.63075C4.09726 9.79997 4.30752 9.88458 4.55835 9.88458ZM4.55835 5.99998C4.80918 5.99998 5.01921 5.91513 5.18843 5.74545C5.35766 5.57578 5.44228 5.36553 5.44228 5.1147C5.44228 4.86387 5.35743 4.65383 5.18775 4.4846C5.01808 4.31537 4.80783 4.23075 4.557 4.23075C4.30617 4.23075 4.09613 4.31559 3.9269 4.48528C3.75768 4.65496 3.67308 4.86522 3.67308 5.11605C3.67308 5.36688 3.75791 5.57691 3.92758 5.74613C4.09726 5.91536 4.30752 5.99998 4.55835 5.99998ZM7.59613 13.6346H13.2884V12.1346H7.59613V13.6346ZM7.59613 9.74995H13.2884V8.25H7.59613V9.74995ZM7.59613 5.86535H13.2884V4.36538H7.59613V5.86535ZM1.8077 17.5C1.30257 17.5 0.875 17.325 0.525 16.975C0.175 16.625 0 16.1974 0 15.6923V2.3077C0 1.80257 0.175 1.375 0.525 1.025C0.875 0.675 1.30257 0.5 1.8077 0.5H15.1923C15.6974 0.5 16.125 0.675 16.475 1.025C16.825 1.375 17 1.80257 17 2.3077V15.6923C17 16.1974 16.825 16.625 16.475 16.975C16.125 17.325 15.6974 17.5 15.1923 17.5H1.8077ZM1.8077 16H15.1923C15.2692 16 15.3397 15.9679 15.4038 15.9038C15.4679 15.8397 15.5 15.7692 15.5 15.6923V2.3077C15.5 2.23077 15.4679 2.16024 15.4038 2.09613C15.3397 2.03203 15.2692 1.99998 15.1923 1.99998H1.8077C1.73077 1.99998 1.66024 2.03203 1.59612 2.09613C1.53202 2.16024 1.49997 2.23077 1.49997 2.3077V15.6923C1.49997 15.7692 1.53202 15.8397 1.59612 15.9038C1.66024 15.9679 1.73077 16 1.8077 16Z" fill="#393939"/>
</svg>
