<svg width="24" height="25" viewBox="0 0 24 25" fill="none" xmlns="http://www.w3.org/2000/svg">
<mask id="mask0_22629_3687" style="mask-type:alpha" maskUnits="userSpaceOnUse" x="0" y="0" width="24" height="25">
<rect y="0.5" width="24" height="24" fill="#D9D9D9"/>
</mask>
<g mask="url(#mask0_22629_3687)">
<path d="M6.3077 8.99995H15V6.99995C15 6.16662 14.7083 5.45828 14.125 4.87495C13.5416 4.29162 12.8333 3.99995 12 3.99995C11.1666 3.99995 10.4583 4.29162 9.87497 4.87495C9.29164 5.45828 8.99997 6.16662 8.99997 6.99995H7.5C7.5 5.75125 7.93782 4.68908 8.81345 3.81345C9.6891 2.93782 10.7513 2.5 12 2.5C13.2487 2.5 14.3108 2.93782 15.1865 3.81345C16.0621 4.68908 16.5 5.75125 16.5 6.99995V8.99995H17.6922C18.191 8.99995 18.6169 9.17656 18.9701 9.52977C19.3233 9.88297 19.5 10.3089 19.5 10.8077V20.1922C19.5 20.6909 19.3233 21.1169 18.9701 21.4701C18.6169 21.8233 18.191 21.9999 17.6922 21.9999H6.3077C5.80898 21.9999 5.38302 21.8233 5.02982 21.4701C4.67661 21.1169 4.5 20.6909 4.5 20.1922V10.8077C4.5 10.3089 4.67661 9.88297 5.02982 9.52977C5.38302 9.17656 5.80898 8.99995 6.3077 8.99995ZM6.3077 20.4999H17.6922C17.782 20.4999 17.8557 20.4711 17.9134 20.4134C17.9711 20.3557 18 20.2819 18 20.1922V10.8077C18 10.7179 17.9711 10.6442 17.9134 10.5865C17.8557 10.5288 17.782 10.4999 17.6922 10.4999H6.3077C6.21795 10.4999 6.14423 10.5288 6.08652 10.5865C6.02882 10.6442 5.99997 10.7179 5.99997 10.8077V20.1922C5.99997 20.2819 6.02882 20.3557 6.08652 20.4134C6.14423 20.4711 6.21795 20.4999 6.3077 20.4999ZM12 17.2499C12.4859 17.2499 12.899 17.0797 13.2394 16.7393C13.5798 16.399 13.75 15.9858 13.75 15.4999C13.75 15.014 13.5798 14.6009 13.2394 14.2605C12.899 13.9201 12.4859 13.75 12 13.75C11.5141 13.75 11.1009 13.9201 10.7606 14.2605C10.4202 14.6009 10.25 15.014 10.25 15.4999C10.25 15.9858 10.4202 16.399 10.7606 16.7393C11.1009 17.0797 11.5141 17.2499 12 17.2499Z" fill="#393939"/>
</g>
</svg>
