<svg width="24" height="24" viewBox="0 0 24 24" fill="none" xmlns="http://www.w3.org/2000/svg">
<mask id="mask0_21583_50164" style="mask-type:alpha" maskUnits="userSpaceOnUse" x="0" y="0" width="25" height="24">
<rect x="0.00292969" width="24" height="24" fill="#D9D9D9"/>
</mask>
<g mask="url(#mask0_21583_50164)">
<path d="M6.00293 22C5.45293 22 4.9821 21.8042 4.59043 21.4125C4.19876 21.0208 4.00293 20.55 4.00293 20V10C4.00293 9.45 4.19876 8.97917 4.59043 8.5875C4.9821 8.19583 5.45293 8 6.00293 8H7.00293V6C7.00293 4.61667 7.49043 3.4375 8.46543 2.4625C9.44043 1.4875 10.6196 1 12.0029 1C13.3863 1 14.5654 1.4875 15.5404 2.4625C16.5154 3.4375 17.0029 4.61667 17.0029 6V8H18.0029C18.5529 8 19.0238 8.19583 19.4154 8.5875C19.8071 8.97917 20.0029 9.45 20.0029 10V20C20.0029 20.55 19.8071 21.0208 19.4154 21.4125C19.0238 21.8042 18.5529 22 18.0029 22H6.00293ZM6.00293 20H18.0029V10H6.00293V20ZM12.0029 17C12.5529 17 13.0238 16.8042 13.4154 16.4125C13.8071 16.0208 14.0029 15.55 14.0029 15C14.0029 14.45 13.8071 13.9792 13.4154 13.5875C13.0238 13.1958 12.5529 13 12.0029 13C11.4529 13 10.9821 13.1958 10.5904 13.5875C10.1988 13.9792 10.0029 14.45 10.0029 15C10.0029 15.55 10.1988 16.0208 10.5904 16.4125C10.9821 16.8042 11.4529 17 12.0029 17ZM9.00293 8H15.0029V6C15.0029 5.16667 14.7113 4.45833 14.1279 3.875C13.5446 3.29167 12.8363 3 12.0029 3C11.1696 3 10.4613 3.29167 9.87793 3.875C9.2946 4.45833 9.00293 5.16667 9.00293 6V8Z" fill="#393939"/>
</g>
</svg>
