<svg width="28" height="28" viewBox="0 0 28 28" fill="none" xmlns="http://www.w3.org/2000/svg">
<path d="M3.33268 27.3327C2.59935 27.3327 1.97157 27.0716 1.44935 26.5493C0.927127 26.0271 0.666016 25.3993 0.666016 24.666V8.66602C0.666016 7.93268 0.927127 7.3049 1.44935 6.78268C1.97157 6.26046 2.59935 5.99935 3.33268 5.99935H8.66602V3.33268C8.66602 2.59935 8.92713 1.97157 9.44935 1.44935C9.97157 0.927127 10.5993 0.666016 11.3327 0.666016H16.666C17.3993 0.666016 18.0271 0.927127 18.5493 1.44935C19.0716 1.97157 19.3327 2.59935 19.3327 3.33268V5.99935H24.666C25.3993 5.99935 26.0271 6.26046 26.5493 6.78268C27.0716 7.3049 27.3327 7.93268 27.3327 8.66602V24.666C27.3327 25.3993 27.0716 26.0271 26.5493 26.5493C26.0271 27.0716 25.3993 27.3327 24.666 27.3327H3.33268ZM3.33268 24.666H24.666V8.66602H3.33268V24.666ZM11.3327 5.99935H16.666V3.33268H11.3327V5.99935ZM12.666 17.9993V21.9993H15.3327V17.9993H19.3327V15.3327H15.3327V11.3327H12.666V15.3327H8.66602V17.9993H12.666Z" fill="#393939"/>
</svg>
