<svg width="30" height="22" viewBox="0 0 30 22" fill="none" xmlns="http://www.w3.org/2000/svg">
<path d="M24.334 13.6673V3.00065C24.334 1.53398 23.134 0.333984 21.6673 0.333984H3.00065C1.53398 0.333984 0.333984 1.53398 0.333984 3.00065V13.6673C0.333984 15.134 1.53398 16.334 3.00065 16.334H21.6673C23.134 16.334 24.334 15.134 24.334 13.6673ZM21.6673 13.6673H3.00065V3.00065H21.6673V13.6673ZM12.334 4.33398C10.1207 4.33398 8.33398 6.12065 8.33398 8.33398C8.33398 10.5473 10.1207 12.334 12.334 12.334C14.5473 12.334 16.334 10.5473 16.334 8.33398C16.334 6.12065 14.5473 4.33398 12.334 4.33398ZM29.6673 4.33398V19.0007C29.6673 20.4673 28.4673 21.6673 27.0006 21.6673H4.33398C4.33398 20.334 4.33398 20.4673 4.33398 19.0007H27.0006V4.33398C28.4673 4.33398 28.334 4.33398 29.6673 4.33398Z" fill="#393939"/>
</svg>
