<svg width="28" height="28" viewBox="0 0 28 28" fill="none" xmlns="http://www.w3.org/2000/svg">
<mask id="mask0_13212_31422" style="mask-type:alpha" maskUnits="userSpaceOnUse" x="0" y="0" width="28" height="28">
<rect width="28" height="28" fill="#D9D9D9"/>
</mask>
<g mask="url(#mask0_13212_31422)">
<path d="M16.7418 9.96342C16.5084 9.38009 16.1633 8.92314 15.7064 8.59259C15.2494 8.26203 14.7001 8.09675 14.0584 8.09675C13.7084 8.09675 13.3532 8.15285 12.9927 8.26505C12.6323 8.37722 12.3159 8.58064 12.0437 8.8753L10.7783 7.60993C11.058 7.31527 11.4219 7.06362 11.8698 6.85498C12.3178 6.64632 12.7362 6.51657 13.1251 6.46572V4.28496H14.8751V6.42982C15.6304 6.55246 16.3237 6.84749 16.9549 7.31491C17.5861 7.78232 18.067 8.43258 18.3975 9.2657L16.7418 9.96342ZM22.8309 25.2893L17.711 20.1694C17.4044 20.5434 16.9796 20.8545 16.4366 21.1028C15.8937 21.3511 15.3732 21.4872 14.8751 21.5111V23.6919H13.1251V21.4528C12.0961 21.2254 11.2544 20.7782 10.6 20.1111C9.94561 19.444 9.45315 18.5885 9.1226 17.5445L10.8501 16.858C11.0909 17.6747 11.4865 18.3747 12.037 18.958C12.5874 19.5413 13.3196 19.833 14.2334 19.833C14.6881 19.833 15.1006 19.75 15.4708 19.5839C15.841 19.4179 16.166 19.1913 16.4456 18.9041L2.71045 5.16889L3.93991 3.93945L24.0603 24.0598L22.8309 25.2893Z" fill="#1C1B1F"/>
</g>
</svg>
