<svg width="25" height="25" viewBox="0 0 25 25" fill="none" xmlns="http://www.w3.org/2000/svg">
<mask id="mask0_18854_120305" style="mask-type:alpha" maskUnits="userSpaceOnUse" x="0" y="0" width="25" height="25">
<rect x="0.5" y="0.5" width="24" height="24" fill="#D9D9D9"/>
</mask>
<g mask="url(#mask0_18854_120305)">
<path d="M12.5 21.5C10 21.5 7.875 20.625 6.125 18.875C4.375 17.125 3.5 15 3.5 12.5C3.5 10 4.375 7.875 6.125 6.125C7.875 4.375 10 3.5 12.5 3.5C12.7333 3.5 12.9625 3.50833 13.1875 3.525C13.4125 3.54167 13.6333 3.56667 13.85 3.6C13.1667 4.08333 12.6208 4.7125 12.2125 5.4875C11.8042 6.2625 11.6 7.1 11.6 8C11.6 9.5 12.125 10.775 13.175 11.825C14.225 12.875 15.5 13.4 17 13.4C17.9167 13.4 18.7583 13.1958 19.525 12.7875C20.2917 12.3792 20.9167 11.8333 21.4 11.15C21.4333 11.3667 21.4583 11.5875 21.475 11.8125C21.4917 12.0375 21.5 12.2667 21.5 12.5C21.5 15 20.625 17.125 18.875 18.875C17.125 20.625 15 21.5 12.5 21.5ZM12.5 19.5C13.9667 19.5 15.2833 19.0958 16.45 18.2875C17.6167 17.4792 18.4667 16.425 19 15.125C18.6667 15.2083 18.3333 15.275 18 15.325C17.6667 15.375 17.3333 15.4 17 15.4C14.95 15.4 13.2042 14.6792 11.7625 13.2375C10.3208 11.7958 9.6 10.05 9.6 8C9.6 7.66667 9.625 7.33333 9.675 7C9.725 6.66667 9.79167 6.33333 9.875 6C8.575 6.53333 7.52083 7.38333 6.7125 8.55C5.90417 9.71667 5.5 11.0333 5.5 12.5C5.5 14.4333 6.18333 16.0833 7.55 17.45C8.91667 18.8167 10.5667 19.5 12.5 19.5Z" fill="#1C1B1F"/>
</g>
</svg>
