<svg width="24" height="24" viewBox="0 0 24 24" fill="none" xmlns="http://www.w3.org/2000/svg">
<mask id="mask0_17052_71412" style="mask-type:alpha" maskUnits="userSpaceOnUse" x="0" y="0" width="24" height="25">
<rect y="0.000244141" width="24" height="24" fill="#D9D9D9"/>
</mask>
<g mask="url(#mask0_17052_71412)">
<path d="M12 20.0002C11.45 20.0002 10.9793 19.8046 10.588 19.4132C10.196 19.0212 10 18.5502 10 18.0002C10 17.4502 10.196 16.9792 10.588 16.5872C10.9793 16.1959 11.45 16.0002 12 16.0002C12.55 16.0002 13.021 16.1959 13.413 16.5872C13.8043 16.9792 14 17.4502 14 18.0002C14 18.5502 13.8043 19.0212 13.413 19.4132C13.021 19.8046 12.55 20.0002 12 20.0002ZM12 14.0002C11.45 14.0002 10.9793 13.8042 10.588 13.4122C10.196 13.0209 10 12.5502 10 12.0002C10 11.4502 10.196 10.9792 10.588 10.5872C10.9793 10.1959 11.45 10.0002 12 10.0002C12.55 10.0002 13.021 10.1959 13.413 10.5872C13.8043 10.9792 14 11.4502 14 12.0002C14 12.5502 13.8043 13.0209 13.413 13.4122C13.021 13.8042 12.55 14.0002 12 14.0002ZM12 8.00024C11.45 8.00024 10.9793 7.80424 10.588 7.41224C10.196 7.02091 10 6.55024 10 6.00024C10 5.45024 10.196 4.97958 10.588 4.58824C10.9793 4.19624 11.45 4.00024 12 4.00024C12.55 4.00024 13.021 4.19624 13.413 4.58824C13.8043 4.97958 14 5.45024 14 6.00024C14 6.55024 13.8043 7.02091 13.413 7.41224C13.021 7.80424 12.55 8.00024 12 8.00024Z" fill="#393939"/>
</g>
</svg>
