<svg width="36" height="36" viewBox="0 0 36 36" fill="none" xmlns="http://www.w3.org/2000/svg">
<path d="M3.99984 6C3.44766 6 3 6.44813 3 6.99986V10.9998C3 11.552 3.44813 11.9996 3.99984 11.9996C4.55156 11.9996 4.99969 11.5515 4.99969 10.9998V7.99973H7.99969C8.55188 7.99973 8.99953 7.55159 8.99953 6.99986C8.99953 6.44813 8.55141 6 7.99969 6H3.99984ZM27.9998 6C27.4477 6 27 6.44813 27 6.99986C27 7.55159 27.4481 7.99973 27.9998 7.99973H30.9998V10.9998C30.9998 11.552 31.448 11.9996 31.9997 11.9996C32.5514 11.9996 32.9995 11.5515 32.9995 10.9998V6.99986C32.9995 6.44767 32.5514 6 31.9997 6H27.9998ZM7.99992 9.99992C7.44759 9.99992 6.99984 10.4477 6.99984 11V25C6.99984 25.5523 7.44759 26.0001 7.99992 26.0001C8.55225 26.0001 9 25.5523 9 25V11C9 10.4477 8.55225 9.99992 7.99992 9.99992ZM12.0002 9.99992C11.4479 9.99992 11.0002 10.4477 11.0002 11V18.5002C11.0002 19.0525 11.4479 19.5003 12.0002 19.5003C12.5526 19.5003 13.0003 19.0525 13.0003 18.5002V11C13.0003 10.4477 12.5526 9.99992 12.0002 9.99992ZM16.0001 9.99992C15.4478 9.99992 15 10.4477 15 11V12.2498C15 12.8021 15.4478 13.2498 16.0001 13.2498C16.5524 13.2498 17.0002 12.8021 17.0002 12.2497V11C17.0002 10.4477 16.5524 9.99992 16.0001 9.99992ZM19.9999 9.99992C19.4476 9.99992 18.9998 10.4477 18.9998 11V25C18.9998 25.5523 19.4476 26.0001 19.9999 26.0001C20.5523 26.0001 21 25.5523 21 25V11C21 10.4477 20.5523 9.99992 19.9999 9.99992ZM24.0002 9.99992C23.4479 9.99992 23.0002 10.4477 23.0002 11V18.5002C23.0002 19.0525 23.4479 19.5003 24.0002 19.5003C24.5526 19.5003 25.0003 19.0525 25.0003 18.5002V11C25.0003 10.4477 24.5526 9.99992 24.0002 9.99992ZM28.0001 9.99992C27.4478 9.99992 27 10.4477 27 11V25C27 25.5523 27.4478 26.0001 28.0001 26.0001C28.5524 26.0001 29.0002 25.5523 29.0002 25V11C29.0002 10.4477 28.5524 9.99992 28.0001 9.99992ZM16.0001 15.25C15.4478 15.25 15 15.6978 15 16.2501V25C15 25.5523 15.4478 26.0001 16.0001 26.0001C16.5524 26.0001 17.0002 25.5523 17.0002 25V16.2501C17.0002 15.6978 16.5524 15.25 16.0001 15.25ZM12.0002 21.5005C11.4479 21.5005 11.0002 21.9482 11.0002 22.5005V25.0005C11.0002 25.5528 11.4479 26.0005 12.0002 26.0005C12.5526 26.0005 13.0003 25.5528 13.0003 25.0005V22.5005C13.0003 21.9482 12.5526 21.5005 12.0002 21.5005ZM24.0002 21.5005C23.4479 21.5005 23.0002 21.9482 23.0002 22.5005V25.0005C23.0002 25.5528 23.4479 26.0005 24.0002 26.0005C24.5526 26.0005 25.0003 25.5528 25.0003 25.0005V22.5005C25.0003 21.9482 24.5526 21.5005 24.0002 21.5005ZM3.99984 24.0003C3.44766 24.0003 3 24.4485 3 25.0002V29.0001C3 29.5523 3.44813 30 3.99984 30H7.99969C8.55188 30 8.99953 29.5519 8.99953 29.0001C8.99953 28.4484 8.55141 28.0003 7.99969 28.0003H4.99969V25.0002C4.99969 24.448 4.55156 24.0003 3.99984 24.0003ZM32.0002 24.0003C31.448 24.0003 31.0003 24.4485 31.0003 25.0002V28.0003H28.0003C27.4481 28.0003 27.0005 28.4484 27.0005 29.0001C27.0005 29.5519 27.4486 30 28.0003 30H32.0002C32.5524 30 33 29.5519 33 29.0001V25.0002C33 24.448 32.5519 24.0003 32.0002 24.0003Z" fill="white"/>
</svg>
