<svg width="24" height="24" viewBox="0 0 24 24" fill="none" xmlns="http://www.w3.org/2000/svg">
<mask id="mask0_8791_158932" style="mask-type:alpha" maskUnits="userSpaceOnUse" x="0" y="0" width="25" height="24">
<rect x="0.00195312" width="24" height="24" fill="#D9D9D9"/>
</mask>
<g mask="url(#mask0_8791_158932)">
<path d="M2.00195 19V17H22.002V19H2.00195ZM3.15195 12.95L1.85195 12.2L2.70195 10.7H1.00195V9.2H2.70195L1.85195 7.75L3.15195 7L4.00195 8.45L4.85195 7L6.15195 7.75L5.30195 9.2H7.00195V10.7H5.30195L6.15195 12.2L4.85195 12.95L4.00195 11.45L3.15195 12.95ZM11.152 12.95L9.85195 12.2L10.702 10.7H9.00195V9.2H10.702L9.85195 7.75L11.152 7L12.002 8.45L12.852 7L14.152 7.75L13.302 9.2H15.002V10.7H13.302L14.152 12.2L12.852 12.95L12.002 11.45L11.152 12.95ZM19.152 12.95L17.852 12.2L18.702 10.7H17.002V9.2H18.702L17.852 7.75L19.152 7L20.002 8.45L20.852 7L22.152 7.75L21.302 9.2H23.002V10.7H21.302L22.152 12.2L20.852 12.95L20.002 11.45L19.152 12.95Z" fill="#393939"/>
</g>
</svg>
