<svg width="28" height="27" viewBox="0 0 28 27" fill="none" xmlns="http://www.w3.org/2000/svg">
<path d="M9.50176 14.6388H10.7413V11.8055H12.3351C12.6893 11.8055 12.9844 11.6817 13.2205 11.4343C13.4566 11.1859 13.5747 10.8846 13.5747 10.5305V8.97214C13.5747 8.61797 13.4566 8.31669 13.2205 8.0683C12.9844 7.82086 12.6893 7.69714 12.3351 7.69714H9.50176V14.6388ZM10.7413 10.5305V8.97214H12.3351V10.5305H10.7413ZM15.0268 14.6388H17.8247C18.1788 14.6388 18.474 14.5151 18.7101 14.2676C18.9462 14.0192 19.0643 13.718 19.0643 13.3638V8.97214C19.0643 8.61797 18.9462 8.31669 18.7101 8.0683C18.474 7.82086 18.1788 7.69714 17.8247 7.69714H15.0268V14.6388ZM16.3018 13.3638V8.97214H17.8247V13.3638H16.3018ZM20.658 14.6388H21.8976V11.8055H23.5976V10.5305H21.8976V8.97214H23.5976V7.69714H20.658V14.6388ZM8.40384 21.793C7.69551 21.793 7.09342 21.5451 6.59759 21.0492C6.10176 20.5534 5.85384 19.9513 5.85384 19.243V3.09297C5.85384 2.38464 6.10176 1.78255 6.59759 1.28672C7.09342 0.790886 7.69551 0.542969 8.40384 0.542969H24.5538C25.2622 0.542969 25.8643 0.790886 26.3601 1.28672C26.8559 1.78255 27.1038 2.38464 27.1038 3.09297V19.243C27.1038 19.9513 26.8559 20.5534 26.3601 21.0492C25.8643 21.5451 25.2622 21.793 24.5538 21.793H8.40384ZM8.40384 19.668H24.5538C24.6483 19.668 24.7427 19.6207 24.8372 19.5263C24.9316 19.4319 24.9788 19.3374 24.9788 19.243V3.09297C24.9788 2.99852 24.9316 2.90408 24.8372 2.80964C24.7427 2.71519 24.6483 2.66797 24.5538 2.66797H8.40384C8.3094 2.66797 8.21495 2.71519 8.12051 2.80964C8.02606 2.90408 7.97884 2.99852 7.97884 3.09297V19.243C7.97884 19.3374 8.02606 19.4319 8.12051 19.5263C8.21495 19.6207 8.3094 19.668 8.40384 19.668ZM3.44551 26.7513C2.73717 26.7513 2.13509 26.5034 1.63926 26.0076C1.14342 25.5117 0.895508 24.9096 0.895508 24.2013V5.9263H3.02051V24.2013C3.02051 24.2957 3.06773 24.3902 3.16217 24.4846C3.25662 24.5791 3.35106 24.6263 3.44551 24.6263H21.7205V26.7513H3.44551Z" fill="#1C1B1F"/>
</svg>
