<svg width="131" height="130" viewBox="0 0 131 130" fill="none" xmlns="http://www.w3.org/2000/svg">
<mask id="mask0_8060_144033" style="mask-type:alpha" maskUnits="userSpaceOnUse" x="0" y="0" width="131" height="130">
<rect x="0.5" width="130" height="130" fill="#D9D9D9"/>
</mask>
<g mask="url(#mask0_8060_144033)">
<path d="M65.501 109.895L4.35547 48.7499C12.5846 40.8263 21.9716 34.7829 32.5167 30.6197C43.0618 26.4566 54.0565 24.375 65.501 24.375C76.9454 24.375 87.9401 26.4566 98.4852 30.6197C109.03 34.7829 118.417 40.8263 126.646 48.7499L65.501 109.895ZM65.501 98.3124L114.793 49.0207C107.661 43.604 99.8968 39.4964 91.501 36.6978C83.1051 33.8992 74.4385 32.4999 65.501 32.4999C56.5635 32.4999 47.8968 33.8992 39.501 36.6978C31.1051 39.4964 23.3412 43.604 16.2093 49.0207L65.501 98.3124ZM61.4386 81.2499V54.1665H69.5633V81.2499H61.4386ZM65.501 48.2291C64.2614 48.2291 63.2223 47.8098 62.3838 46.9712C61.5453 46.1327 61.1261 45.0936 61.1261 43.854C61.1261 42.6145 61.5453 41.5755 62.3838 40.737C63.2223 39.8984 64.2614 39.4791 65.501 39.4791C66.7406 39.4791 67.7796 39.8984 68.6181 40.737C69.4566 41.5755 69.8759 42.6145 69.8759 43.854C69.8759 45.0936 69.4566 46.1327 68.6181 46.9712C67.7796 47.8098 66.7406 48.2291 65.501 48.2291Z" fill="#393939"/>
</g>
</svg>
