<svg width="24" height="24" viewBox="0 0 24 24" fill="none" xmlns="http://www.w3.org/2000/svg">
<g clip-path="url(#clip0_17056_35067)">
<path d="M15.5 1.00037H7.5C6.12 1.00037 5 2.12037 5 3.50037V20.5004C5 21.8804 6.12 23.0004 7.5 23.0004H15.5C16.88 23.0004 18 21.8804 18 20.5004V3.50037C18 2.12037 16.88 1.00037 15.5 1.00037ZM11.5 22.0004C10.67 22.0004 10 21.3304 10 20.5004C10 19.6704 10.67 19.0004 11.5 19.0004C12.33 19.0004 13 19.6704 13 20.5004C13 21.3304 12.33 22.0004 11.5 22.0004ZM16 18.0004H7V4.00037H16V18.0004Z" fill="#393939"/>
</g>
<defs>
<clipPath id="clip0_17056_35067">
<rect width="24" height="24" fill="white" transform="translate(0 0.000366211)"/>
</clipPath>
</defs>
</svg>
