<svg width="36" height="36" viewBox="0 0 36 36" fill="none" xmlns="http://www.w3.org/2000/svg">
<path d="M22.5724 25.3669L22.5723 25.3667L18.1885 20.9831L13.7883 25.3832L13.7881 25.3835C13.0959 26.0752 12.2465 26.557 11.3213 26.7952L15.484 30.9581C15.484 30.9581 15.4841 30.9581 15.4841 30.9581C16.8734 32.3473 19.1259 32.3473 20.5153 30.9581C20.5153 30.9581 20.5153 30.9581 20.5153 30.9581L24.771 26.7024C23.9499 26.4448 23.1971 25.9914 22.5724 25.3669ZM18.0714 20.866C18.0718 20.8664 18.0721 20.8668 18.0725 20.8671L18.0714 20.866Z" stroke="white" stroke-width="2"/>
<path d="M13.7879 10.6165L13.7881 10.6167L18.188 15.0173L22.5719 10.633L22.5721 10.6328C23.1969 10.0084 23.9497 9.55499 24.7707 9.2974L20.5151 5.04176C19.1258 3.65242 16.8733 3.65242 15.4839 5.04176L11.3213 9.2044C12.2465 9.44271 13.0958 9.92467 13.7879 10.6165Z" stroke="white" stroke-width="2"/>
<path d="M30.958 15.4849L30.958 15.4848L27.8467 12.3735H26.3959C25.8492 12.3735 25.309 12.5974 24.9231 12.9835L24.9229 12.9838L20.4232 17.4834C20.4232 17.4835 20.4232 17.4835 20.4231 17.4835C20.2144 17.6923 19.9833 17.8658 19.7376 18.0039C19.9853 18.1397 20.2166 18.3109 20.4231 18.5175C20.4232 18.5177 20.4234 18.5179 20.4235 18.518L24.9228 23.0167L24.9232 23.0171C25.3091 23.4034 25.8492 23.6272 26.3959 23.6272H27.8467L30.958 20.516C30.958 20.516 30.958 20.516 30.958 20.516C32.3474 19.1265 32.3473 16.874 30.958 15.4849ZM9.96515 12.3571H8.16971L5.042 15.4848L5.04198 15.4849C3.65272 16.874 3.65263 19.1265 5.042 20.516C5.04201 20.516 5.04202 20.516 5.04203 20.516L8.16957 23.6436H9.96515C10.5118 23.6436 11.0519 23.4198 11.438 23.0335L11.4382 23.0333L15.9543 18.5172L15.9546 18.5169C16.1611 18.3106 16.3924 18.1396 16.6401 18.0039C16.3946 17.8659 16.1637 17.6927 15.9551 17.4843L15.9548 17.484L11.4382 12.9674L11.438 12.9672C11.0519 12.5809 10.5118 12.3571 9.96515 12.3571Z" stroke="white" stroke-width="2"/>
</svg>
