<svg width="24" height="22" viewBox="0 0 24 22" fill="none" xmlns="http://www.w3.org/2000/svg">
<path d="M7.33333 17.5915H8.66667V16.0759H10.3077C10.6 16.0759 10.844 15.9647 11.0397 15.7422C11.2355 15.5197 11.3333 15.2423 11.3333 14.9101V11.1793C11.3333 10.8471 11.2355 10.5697 11.0397 10.3472C10.844 10.1248 10.6 10.0135 10.3077 10.0135H6V6.98231H11.3333V5.46671H8.66667V3.95111H7.33333V5.46671H5.6923C5.39999 5.46671 5.15598 5.57795 4.96027 5.80044C4.76453 6.02291 4.66667 6.30027 4.66667 6.63254V10.3633C4.66667 10.6955 4.76453 10.9729 4.96027 11.1954C5.15598 11.4179 5.39999 11.5291 5.6923 11.5291H10V14.5603H4.66667V16.0759H7.33333V17.5915ZM17.3333 16.8046L19.3846 14.4729H15.282L17.3333 16.8046ZM15.282 7.44866H19.3846L17.3333 5.11694L15.282 7.44866ZM2.15383 21.3805C1.54017 21.3805 1.02778 21.1468 0.616667 20.6795C0.205556 20.2122 0 19.6298 0 18.9322V2.61037C0 1.91282 0.205556 1.33038 0.616667 0.863074C1.02778 0.395764 1.54017 0.162109 2.15383 0.162109H21.8462C22.4598 0.162109 22.9722 0.395764 23.3833 0.863074C23.7944 1.33038 24 1.91282 24 2.61037V18.9322C24 19.6298 23.7944 20.2122 23.3833 20.6795C22.9722 21.1468 22.4598 21.3805 21.8462 21.3805H2.15383ZM2.15383 19.8649H21.8462C22.0513 19.8649 22.2393 19.7678 22.4103 19.5735C22.5812 19.3791 22.6667 19.1654 22.6667 18.9322V2.61037C22.6667 2.37722 22.5812 2.16348 22.4103 1.96916C22.2393 1.77486 22.0513 1.67771 21.8462 1.67771H2.15383C1.94872 1.67771 1.76069 1.77486 1.58973 1.96916C1.4188 2.16348 1.33333 2.37722 1.33333 2.61037V18.9322C1.33333 19.1654 1.4188 19.3791 1.58973 19.5735C1.76069 19.7678 1.94872 19.8649 2.15383 19.8649Z" fill="#393939"/>
</svg>
