<svg width="26" height="26" viewBox="0 0 26 26" fill="none" xmlns="http://www.w3.org/2000/svg">
<path d="M0.332031 6.35763V0.332031H6.35763V2.332H2.332V6.35763H0.332031ZM0.332031 25.6653V19.6397H2.332V23.6653H6.35763V25.6653H0.332031ZM19.6397 25.6653V23.6653H23.6653V19.6397H25.6653V25.6653H19.6397ZM23.6653 6.35763V2.332H19.6397V0.332031H25.6653V6.35763H23.6653ZM19.9602 19.9602H21.7679V21.7679H19.9602V19.9602ZM19.9602 16.3448H21.7679V18.1525H19.9602V16.3448ZM18.1525 18.1525H19.9602V19.9602H18.1525V18.1525ZM16.3448 19.9602H18.1525V21.7679H16.3448V19.9602ZM14.5371 18.1525H16.3448V19.9602H14.5371V18.1525ZM18.1525 14.5371H19.9602V16.3448H18.1525V14.5371ZM16.3448 16.3448H18.1525V18.1525H16.3448V16.3448ZM14.5371 14.5371H16.3448V16.3448H14.5371V14.5371ZM21.7679 4.22947V11.4602H14.5371V4.22947H21.7679ZM11.4602 14.5371V21.7679H4.22946V14.5371H11.4602ZM11.4602 4.22947V11.4602H4.22946V4.22947H11.4602ZM9.87046 20.1781V16.1269H5.8192V20.1781H9.87046ZM9.87046 9.87047V5.8192H5.8192V9.87047H9.87046ZM20.1781 9.87047V5.8192H16.1269V9.87047H20.1781Z" fill="#1C1B1F"/>
</svg>
