<svg width="33" height="32" viewBox="0 0 33 32" fill="none" xmlns="http://www.w3.org/2000/svg">
<mask id="mask0_8002_101877" style="mask-type:alpha" maskUnits="userSpaceOnUse" x="0" y="0" width="33" height="32">
<rect x="0.5" width="32" height="32" fill="#D9D9D9"/>
</mask>
<g mask="url(#mask0_8002_101877)">
<path d="M4.5 14.6667V4H15.1667V14.6667H4.5ZM7.16667 12H12.5V6.66667H7.16667V12ZM4.5 28V17.3333H15.1667V28H4.5ZM7.16667 25.3333H12.5V20H7.16667V25.3333ZM17.8333 14.6667V4H28.5V14.6667H17.8333ZM20.5 12H25.8333V6.66667H20.5V12ZM25.8333 28V25.3333H28.5V28H25.8333ZM17.8333 20V17.3333H20.5V20H17.8333ZM20.5 22.6667V20H23.1667V22.6667H20.5ZM17.8333 25.3333V22.6667H20.5V25.3333H17.8333ZM20.5 28V25.3333H23.1667V28H20.5ZM23.1667 25.3333V22.6667H25.8333V25.3333H23.1667ZM23.1667 20V17.3333H25.8333V20H23.1667ZM25.8333 22.6667V20H28.5V22.6667H25.8333Z" fill="#393939"/>
</g>
</svg>
