<svg width="26" height="26" viewBox="0 0 26 26" fill="none" xmlns="http://www.w3.org/2000/svg">
<path d="M12.9997 19.657C13.3302 19.657 13.6018 19.5508 13.8143 19.3383C14.0268 19.1258 14.133 18.8543 14.133 18.5237C14.133 18.1931 14.0268 17.9216 13.8143 17.7091C13.6018 17.4966 13.3302 17.3904 12.9997 17.3904C12.6691 17.3904 12.3976 17.4966 12.1851 17.7091C11.9726 17.9216 11.8663 18.1931 11.8663 18.5237C11.8663 18.8543 11.9726 19.1258 12.1851 19.3383C12.3976 19.5508 12.6691 19.657 12.9997 19.657ZM11.9372 14.7341H14.0622V6.1987H11.9372V14.7341ZM7.97051 25.0404L0.958008 18.0279V7.96953L7.97051 0.957031H18.0288L25.0413 7.96953V18.0279L18.0288 25.0404H7.97051ZM8.89134 22.9154H17.108L22.9163 17.107V8.89037L17.108 3.08203H8.89134L3.08301 8.89037V17.107L8.89134 22.9154Z" fill="#1C1B1F"/>
</svg>
