<svg width="20" height="24" viewBox="0 0 20 24" fill="none" xmlns="http://www.w3.org/2000/svg">
<path d="M9.79617 20.3333H11.1295V19H13.1295C13.3193 19 13.4778 18.9363 13.6051 18.809C13.7325 18.6816 13.7962 18.5231 13.7962 18.3333V14.3333C13.7962 14.1436 13.7325 13.9851 13.6051 13.8577C13.4778 13.7303 13.3193 13.6667 13.1295 13.6667H8.46284V11H13.7962V9.66667H11.1295V8.33333H9.79617V9.66667H7.79617C7.60644 9.66667 7.44789 9.73035 7.32054 9.8577C7.19318 9.98506 7.1295 10.1436 7.1295 10.3333V14.3333C7.1295 14.5231 7.19318 14.6816 7.32054 14.809C7.44789 14.9363 7.60644 15 7.79617 15H12.4628V17.6667H7.1295V19H9.79617V20.3333ZM2.8218 24C2.20814 24 1.69575 23.7944 1.28464 23.3833C0.873524 22.9722 0.667969 22.4598 0.667969 21.8462V2.15383C0.667969 1.54017 0.873524 1.02778 1.28464 0.616667C1.69575 0.205556 2.20814 0 2.8218 0H13.3346L19.3346 6V21.8462C19.3346 22.4598 19.1291 22.9722 18.718 23.3833C18.3069 23.7944 17.7945 24 17.1808 24H2.8218ZM12.668 6.35897V1.33333H2.8218C2.61669 1.33333 2.42866 1.4188 2.2577 1.58973C2.08677 1.76069 2.0013 1.94872 2.0013 2.15383V21.8462C2.0013 22.0513 2.08677 22.2393 2.2577 22.4103C2.42866 22.5812 2.61669 22.6667 2.8218 22.6667H17.1808C17.3859 22.6667 17.5739 22.5812 17.7449 22.4103C17.9158 22.2393 18.0013 22.0513 18.0013 21.8462V6.35897H12.668Z" fill="#393939"/>
</svg>
