<svg width="344" height="184" viewBox="0 0 344 184" fill="none" xmlns="http://www.w3.org/2000/svg">
<g clip-path="url(#clip0_17270_36058)">
<path d="M0 -46H375V184C375 192.837 367.837 200 359 200H16C7.16345 200 0 192.837 0 184V-46Z" fill="#C89B6A"/>
<g opacity="0.5">
<mask id="mask0_17270_36058" style="mask-type:alpha" maskUnits="userSpaceOnUse" x="214" y="54" width="208" height="207">
<rect x="214" y="161.426" width="159" height="134" transform="rotate(-42.5028 214 161.426)" fill="#D9D9D9"/>
</mask>
<g mask="url(#mask0_17270_36058)">
<path d="M314.466 83.8629L353.861 126.976C355.609 128.889 356.305 131.229 355.948 133.995C355.591 136.762 354.281 139.186 352.017 141.266L283.087 204.618C280.824 206.698 278.303 207.796 275.523 207.912C272.744 208.028 270.481 207.13 268.733 205.217L229.337 162.104C227.589 160.191 226.894 157.851 227.251 155.084C227.608 152.317 228.918 149.894 231.181 147.814L300.112 84.4612C302.375 82.3811 304.896 81.2831 307.675 81.1672C310.455 81.0514 312.718 81.95 314.466 83.8629ZM243.312 163.865L314.999 97.9778L307.746 90.0397C307.479 89.7483 307.092 89.6132 306.583 89.6344C306.074 89.6557 305.647 89.8247 305.302 90.1415L236.372 153.494C236.027 153.811 235.822 154.223 235.757 154.73C235.691 155.236 235.792 155.635 236.058 155.927L243.312 163.865ZM254.358 175.954L275.453 199.04C275.719 199.331 276.107 199.466 276.616 199.445C277.125 199.424 277.552 199.255 277.897 198.938L346.827 135.585C347.172 135.268 347.377 134.857 347.442 134.35C347.508 133.843 347.407 133.444 347.141 133.153L326.046 110.067L254.358 175.954Z" fill="#F4F4F4"/>
</g>
</g>
<g opacity="0.5">
<mask id="mask1_17270_36058" style="mask-type:alpha" maskUnits="userSpaceOnUse" x="201" y="-66" width="208" height="207">
<rect x="201" y="41.4258" width="159" height="134" transform="rotate(-42.5028 201 41.4258)" fill="#D9D9D9"/>
</mask>
<g mask="url(#mask1_17270_36058)">
<path d="M302.541 -26.5356L341.936 16.5775C343.684 18.4904 344.379 20.8303 344.022 23.597C343.665 26.3637 342.355 28.7871 340.092 30.8672L271.162 94.2199C268.898 96.3 266.377 97.398 263.598 97.5138C260.818 97.6296 258.555 96.7311 256.807 94.8182L217.412 51.7051C215.664 49.7922 214.968 47.4523 215.325 44.6856C215.682 41.9189 216.992 39.4955 219.256 37.4154L288.186 -25.9373C290.449 -28.0174 292.97 -29.1154 295.75 -29.2312C298.529 -29.347 300.793 -28.4485 302.541 -26.5356ZM231.386 53.4664L303.073 -12.4207L295.82 -20.3587C295.554 -20.6501 295.166 -20.7852 294.657 -20.764C294.148 -20.7428 293.721 -20.5737 293.376 -20.2569L224.446 43.0958C224.101 43.4126 223.896 43.8244 223.831 44.3311C223.766 44.8379 223.866 45.2369 224.132 45.5283L231.386 53.4664ZM242.432 65.5554L263.527 88.6414C263.794 88.9327 264.181 89.0678 264.69 89.0466C265.199 89.0254 265.626 88.8563 265.971 88.5395L334.901 25.1869C335.246 24.87 335.451 24.4583 335.516 23.9515C335.582 23.4447 335.481 23.0456 335.215 22.7543L314.12 -0.331686L242.432 65.5554Z" fill="#F4F4F4"/>
</g>
</g>
<g opacity="0.5">
<mask id="mask2_17270_36058" style="mask-type:alpha" maskUnits="userSpaceOnUse" x="59" y="41" width="208" height="207">
<rect x="59" y="148.426" width="159" height="134" transform="rotate(-42.5028 59 148.426)" fill="#D9D9D9"/>
</mask>
<g mask="url(#mask2_17270_36058)">
<path d="M172.281 71.9019L211.676 115.015C213.424 116.928 214.119 119.268 213.762 122.034C213.405 124.801 212.095 127.225 209.832 129.305L140.902 192.657C138.639 194.737 136.117 195.835 133.338 195.951C130.559 196.067 128.295 195.169 126.547 193.256L87.1519 150.143C85.4039 148.23 84.7084 145.89 85.0655 143.123C85.4225 140.356 86.7326 137.933 88.9959 135.853L157.926 72.5002C160.189 70.4201 162.711 69.3221 165.49 69.2063C168.269 69.0905 170.533 69.989 172.281 71.9019ZM101.126 151.904L172.814 86.0168L165.56 78.0788C165.294 77.7874 164.906 77.6523 164.397 77.6735C163.888 77.6947 163.461 77.8638 163.117 78.1806L94.1864 141.533C93.8417 141.85 93.6366 142.262 93.5711 142.769C93.5058 143.275 93.6063 143.674 93.8725 143.966L101.126 151.904ZM112.172 163.993L133.268 187.079C133.534 187.37 133.922 187.505 134.431 187.484C134.94 187.463 135.367 187.294 135.711 186.977L204.641 123.624C204.986 123.308 205.191 122.896 205.257 122.389C205.322 121.882 205.222 121.483 204.955 121.192L183.86 98.1058L112.172 163.993Z" fill="#F4F4F4"/>
</g>
</g>
<g opacity="0.5">
<mask id="mask3_17270_36058" style="mask-type:alpha" maskUnits="userSpaceOnUse" x="89" y="-116" width="208" height="207">
<rect x="89" y="-8.57422" width="159" height="134" transform="rotate(-42.5028 89 -8.57422)" fill="#D9D9D9"/>
</mask>
<g mask="url(#mask3_17270_36058)">
<path d="M199.8 -72.5356L239.195 -29.4225C240.943 -27.5096 241.639 -25.1697 241.282 -22.403C240.925 -19.6363 239.615 -17.2129 237.351 -15.1328L168.421 48.2199C166.158 50.3 163.637 51.398 160.857 51.5138C158.078 51.6296 155.815 50.7311 154.067 48.8182L114.671 5.7051C112.923 3.79217 112.228 1.45234 112.585 -1.31438C112.942 -4.0811 114.252 -6.50452 116.515 -8.58463L185.446 -71.9373C187.709 -74.0174 190.23 -75.1154 193.009 -75.2312C195.789 -75.347 198.052 -74.4485 199.8 -72.5356ZM128.646 7.46637L200.333 -58.4207L193.08 -66.3587C192.813 -66.6501 192.426 -66.7852 191.917 -66.764C191.408 -66.7428 190.981 -66.5737 190.636 -66.2569L121.706 -2.90425C121.361 -2.58744 121.156 -2.17565 121.091 -1.66888C121.025 -1.16211 121.126 -0.763051 121.392 -0.471705L128.646 7.46637ZM139.692 19.5554L160.787 42.6414C161.053 42.9327 161.441 43.0678 161.95 43.0466C162.459 43.0254 162.886 42.8563 163.231 42.5395L232.161 -20.8131C232.506 -21.13 232.711 -21.5417 232.776 -22.0485C232.842 -22.5553 232.741 -22.9544 232.475 -23.2457L211.38 -46.3317L139.692 19.5554Z" fill="#F4F4F4"/>
</g>
</g>
<g opacity="0.5">
<mask id="mask4_17270_36058" style="mask-type:alpha" maskUnits="userSpaceOnUse" x="-58" y="2" width="208" height="207">
<rect x="-58" y="109.426" width="159" height="134" transform="rotate(-42.5028 -58 109.426)" fill="#D9D9D9"/>
</mask>
<g mask="url(#mask4_17270_36058)">
<path d="M64.9527 36.023L104.348 79.1361C106.096 81.049 106.791 83.3888 106.434 86.1556C106.077 88.9223 104.767 91.3457 102.504 93.4258L33.5737 156.778C31.3104 158.859 28.7891 159.957 26.0098 160.072C23.2305 160.188 20.9669 159.29 19.2189 157.377L-20.1763 114.264C-21.9242 112.351 -22.6197 110.011 -22.2627 107.244C-21.9056 104.477 -20.5955 102.054 -18.3323 99.974L50.5979 36.6213C52.8612 34.5412 55.3824 33.4432 58.1618 33.3274C60.9411 33.2115 63.2047 34.1101 64.9527 36.023ZM-6.20212 116.025L65.4856 50.1379L58.2321 42.1998C57.9658 41.9085 57.5782 41.7734 57.0691 41.7945C56.56 41.8158 56.1331 41.9849 55.7884 42.3017L-13.1417 105.654C-13.4864 105.971 -13.6915 106.383 -13.757 106.89C-13.8223 107.396 -13.7219 107.796 -13.4556 108.087L-6.20212 116.025ZM4.84436 128.114L25.9395 151.2C26.2057 151.491 26.5934 151.626 27.1024 151.605C27.6115 151.584 28.0384 151.415 28.3831 151.098L97.3133 87.7454C97.658 87.4286 97.8631 87.0168 97.9286 86.5101C97.9939 86.0033 97.8934 85.6042 97.6272 85.3129L76.5321 62.2269L4.84436 128.114Z" fill="#F4F4F4"/>
</g>
</g>
<g opacity="0.5">
<mask id="mask5_17270_36058" style="mask-type:alpha" maskUnits="userSpaceOnUse" x="-77" y="-129" width="208" height="207">
<rect x="-77" y="-21.5742" width="159" height="134" transform="rotate(-42.5028 -77 -21.5742)" fill="#D9D9D9"/>
</mask>
<g mask="url(#mask5_17270_36058)">
<path d="M47.523 -84.4965L86.9181 -41.3834C88.6661 -39.4705 89.3616 -37.1307 89.0046 -34.364C88.6475 -31.5972 87.3374 -29.1738 85.0742 -27.0937L16.144 36.2589C13.8807 38.3391 11.3594 39.437 8.58014 39.5529C5.80083 39.6687 3.53718 38.7701 1.78922 36.8572L-37.6059 -6.25584C-39.3539 -8.16877 -40.0494 -10.5086 -39.6924 -13.2753C-39.3353 -16.042 -38.0252 -18.4655 -35.762 -20.5456L33.1682 -83.8982C35.4315 -85.9783 37.9527 -87.0763 40.7321 -87.1921C43.5114 -87.308 45.775 -86.4094 47.523 -84.4965ZM-23.6318 -4.49457L48.0559 -70.3816L40.8024 -78.3197C40.5361 -78.611 40.1485 -78.7461 39.6394 -78.725C39.1303 -78.7037 38.7034 -78.5346 38.3588 -78.2178L-30.5714 -14.8652C-30.9161 -14.5484 -31.1212 -14.1366 -31.1867 -13.6298C-31.252 -13.123 -31.1516 -12.724 -30.8853 -12.4326L-23.6318 -4.49457ZM-12.5853 7.59442L8.50983 30.6804C8.77605 30.9718 9.16369 31.1069 9.67276 31.0857C10.1818 31.0644 10.6087 30.8954 10.9534 30.5786L79.8836 -32.7741C80.2283 -33.0909 80.4334 -33.5027 80.4989 -34.0095C80.5642 -34.5162 80.4637 -34.9153 80.1975 -35.2066L59.1024 -58.2926L-12.5853 7.59442Z" fill="#F4F4F4"/>
</g>
</g>
</g>
<defs>
<clipPath id="clip0_17270_36058">
<path d="M0 8C0 3.58172 3.58172 0 8 0H336C340.418 0 344 3.58172 344 8V176C344 180.418 340.418 184 336 184H8C3.58173 184 0 180.418 0 176V8Z" fill="white"/>
</clipPath>
</defs>
</svg>
