<svg width="177" height="177" viewBox="0 0 177 177" fill="none" xmlns="http://www.w3.org/2000/svg">
<mask id="mask0_11905_84237" style="mask-type:alpha" maskUnits="userSpaceOnUse" x="0" y="0" width="177" height="177">
<rect width="177" height="177" fill="#D9D9D9"/>
</mask>
<g mask="url(#mask0_11905_84237)">
<path d="M115.327 78.7612C118.084 78.7612 120.427 77.7966 122.356 75.8672C124.285 73.9378 125.25 71.595 125.25 68.8388C125.25 66.0825 124.285 63.7397 122.356 61.8103C120.427 59.8809 118.084 58.9162 115.327 58.9162C112.571 58.9162 110.228 59.8809 108.299 61.8103C106.37 63.7397 105.405 66.0825 105.405 68.8388C105.405 71.595 106.37 73.9378 108.299 75.8672C110.228 77.7966 112.571 78.7612 115.327 78.7612ZM61.6725 78.7612C64.4287 78.7612 66.7716 77.7966 68.7009 75.8672C70.6303 73.9378 71.595 71.595 71.595 68.8388C71.595 66.0825 70.6303 63.7397 68.7009 61.8103C66.7716 59.8809 64.4287 58.9162 61.6725 58.9162C58.9162 58.9162 56.5734 59.8809 54.6441 61.8103C52.7147 63.7397 51.75 66.0825 51.75 68.8388C51.75 71.595 52.7147 73.9378 54.6441 75.8672C56.5734 77.7966 58.9162 78.7612 61.6725 78.7612ZM88.532 100.076C80.3032 100.076 72.8506 102.373 66.1744 106.967C59.4981 111.561 54.5675 117.655 51.3825 125.25H61.1213C63.8162 120.105 67.6243 116.124 72.5455 113.306C77.4667 110.489 82.8261 109.08 88.6237 109.08C94.4212 109.08 99.7394 110.519 104.578 113.398C109.417 116.277 113.245 120.228 116.062 125.25H125.618C122.555 117.533 117.666 111.408 110.949 106.875C104.233 102.342 96.7608 100.076 88.532 100.076ZM88.5 162C78.3325 162 68.7775 160.071 59.835 156.212C50.8925 152.353 43.1138 147.116 36.4987 140.501C29.8837 133.886 24.6469 126.108 20.7881 117.165C16.9294 108.223 15 98.6675 15 88.5C15 78.3325 16.9294 68.7775 20.7881 59.835C24.6469 50.8925 29.8837 43.1138 36.4987 36.4987C43.1138 29.8837 50.8925 24.6469 59.835 20.7881C68.7775 16.9294 78.3325 15 88.5 15C98.6675 15 108.223 16.9294 117.165 20.7881C126.108 24.6469 133.886 29.8837 140.501 36.4987C147.116 43.1138 152.353 50.8925 156.212 59.835C160.071 68.7775 162 78.3325 162 88.5C162 98.6675 160.071 108.223 156.212 117.165C152.353 126.108 147.116 133.886 140.501 140.501C133.886 147.116 126.108 152.353 117.165 156.212C108.223 160.071 98.6675 162 88.5 162ZM88.5 150.975C105.941 150.975 120.714 144.923 132.818 132.818C144.923 120.714 150.975 105.941 150.975 88.5C150.975 71.0591 144.923 56.2863 132.818 44.1817C120.714 32.0772 105.941 26.025 88.5 26.025C71.0591 26.025 56.2863 32.0772 44.1817 44.1817C32.0772 56.2863 26.025 71.0591 26.025 88.5C26.025 105.941 32.0772 120.714 44.1817 132.818C56.2863 144.923 71.0591 150.975 88.5 150.975Z" fill="#393939"/>
</g>
</svg>
