<svg width="24" height="25" viewBox="0 0 24 25" fill="none" xmlns="http://www.w3.org/2000/svg">
<mask id="mask0_17378_31298" style="mask-type:alpha" maskUnits="userSpaceOnUse" x="0" y="0" width="24" height="25">
<rect y="0.5" width="24" height="24" fill="#D9D9D9"/>
</mask>
<g mask="url(#mask0_17378_31298)">
<path d="M10.0884 22.5L9.70768 19.4538C9.43973 19.3641 9.16504 19.2384 8.88363 19.0769C8.60221 18.9153 8.3506 18.7422 8.1288 18.5576L5.30765 19.7499L3 15.75L5.44038 13.9058C5.41729 13.757 5.40094 13.6077 5.39133 13.4577C5.38171 13.3077 5.3769 13.1583 5.3769 13.0096C5.3769 12.8673 5.38171 12.7227 5.39133 12.5759C5.40094 12.4291 5.41729 12.2686 5.44038 12.0942L3 10.25L5.30765 6.26925L8.11917 7.45195C8.36021 7.26092 8.61758 7.08623 8.8913 6.9279C9.16503 6.76955 9.43395 6.6423 9.69805 6.54615L10.0884 3.5H14.7038L15.0845 6.55578C15.3845 6.66474 15.656 6.79198 15.899 6.9375C16.1419 7.08302 16.3871 7.2545 16.6346 7.45195L19.4846 6.26925L21.7922 10.25L19.3134 12.123C19.3493 12.2846 19.3688 12.4355 19.372 12.5759C19.3752 12.7163 19.3768 12.8577 19.3768 13C19.3768 13.1359 19.3736 13.274 19.3672 13.4144C19.3608 13.5548 19.3377 13.7154 19.298 13.8962L21.7576 15.75L19.4499 19.7499L16.6346 18.548C16.3871 18.7455 16.1345 18.9201 15.8768 19.0721C15.6191 19.224 15.355 19.348 15.0845 19.4442L14.7038 22.5H10.0884ZM12.4076 16C13.2397 16 13.9477 15.708 14.5316 15.124C15.1156 14.54 15.4076 13.832 15.4076 13C15.4076 12.1679 15.1156 11.4599 14.5316 10.876C13.9477 10.292 13.2397 10 12.4076 10C11.5653 10 10.8548 10.292 10.2759 10.876C9.69709 11.4599 9.40768 12.1679 9.40768 13C9.40768 13.832 9.69709 14.54 10.2759 15.124C10.8548 15.708 11.5653 16 12.4076 16ZM12.4076 14.5C11.991 14.5 11.6368 14.3541 11.3451 14.0625C11.0535 13.7708 10.9076 13.4166 10.9076 13C10.9076 12.5833 11.0535 12.2291 11.3451 11.9375C11.6368 11.6458 11.991 11.5 12.4076 11.5C12.8243 11.5 13.1785 11.6458 13.4701 11.9375C13.7618 12.2291 13.9076 12.5833 13.9076 13C13.9076 13.4166 13.7618 13.7708 13.4701 14.0625C13.1785 14.3541 12.8243 14.5 12.4076 14.5ZM11.3961 21H13.3615L13.7211 18.3211C14.2313 18.1878 14.6977 17.9984 15.1201 17.7529C15.5426 17.5074 15.9499 17.1917 16.3422 16.8058L18.8269 17.85L19.8115 16.15L17.6423 14.5154C17.7256 14.2564 17.7823 14.0025 17.8124 13.7538C17.8426 13.5051 17.8576 13.2538 17.8576 13C17.8576 12.7397 17.8426 12.4884 17.8124 12.2461C17.7823 12.0038 17.7256 11.7564 17.6423 11.5038L19.8307 9.84998L18.8461 8.14998L16.3326 9.2096C15.998 8.8519 15.5971 8.53588 15.1298 8.26153C14.6624 7.98716 14.1897 7.79293 13.7115 7.67883L13.3961 4.99998H11.4115L11.0807 7.6692C10.5705 7.78972 10.0993 7.97433 9.66725 8.22305C9.2352 8.47177 8.82303 8.79228 8.43073 9.1846L5.9461 8.14998L4.96148 9.84998L7.1211 11.4596C7.03777 11.6968 6.97943 11.9436 6.9461 12.2C6.91277 12.4564 6.8961 12.7263 6.8961 13.0096C6.8961 13.2699 6.91277 13.525 6.9461 13.775C6.97943 14.025 7.03456 14.2718 7.11147 14.5154L4.96148 16.15L5.9461 17.85L8.4211 16.8C8.80058 17.1897 9.20635 17.509 9.6384 17.7577C10.0704 18.0064 10.548 18.1974 11.0711 18.3308L11.3961 21Z" fill="#393939"/>
</g>
</svg>
