<svg width="22" height="28" viewBox="0 0 22 28" fill="none" xmlns="http://www.w3.org/2000/svg">
<path d="M3.00065 27.3327C2.26732 27.3327 1.63954 27.0716 1.11732 26.5493C0.595096 26.0271 0.333984 25.3993 0.333984 24.666V8.66602C0.333984 7.93268 0.595096 7.3049 1.11732 6.78268C1.63954 6.26046 2.26732 5.99935 3.00065 5.99935H5.66732C5.66732 4.53268 6.18954 3.27713 7.23398 2.23268C8.27843 1.18824 9.53398 0.666016 11.0007 0.666016C12.4673 0.666016 13.7229 1.18824 14.7673 2.23268C15.8118 3.27713 16.334 4.53268 16.334 5.99935H19.0007C19.734 5.99935 20.3618 6.26046 20.884 6.78268C21.4062 7.3049 21.6673 7.93268 21.6673 8.66602V24.666C21.6673 25.3993 21.4062 26.0271 20.884 26.5493C20.3618 27.0716 19.734 27.3327 19.0007 27.3327H3.00065ZM3.00065 24.666H19.0007V8.66602H16.334V11.3327C16.334 11.7105 16.2062 12.0271 15.9507 12.2827C15.6951 12.5382 15.3784 12.666 15.0007 12.666C14.6229 12.666 14.3062 12.5382 14.0507 12.2827C13.7951 12.0271 13.6673 11.7105 13.6673 11.3327V8.66602H8.33398V11.3327C8.33398 11.7105 8.20621 12.0271 7.95065 12.2827C7.6951 12.5382 7.37843 12.666 7.00065 12.666C6.62287 12.666 6.30621 12.5382 6.05065 12.2827C5.7951 12.0271 5.66732 11.7105 5.66732 11.3327V8.66602H3.00065V24.666ZM8.33398 5.99935H13.6673C13.6673 5.26602 13.4062 4.63824 12.884 4.11602C12.3618 3.59379 11.734 3.33268 11.0007 3.33268C10.2673 3.33268 9.63954 3.59379 9.11732 4.11602C8.5951 4.63824 8.33398 5.26602 8.33398 5.99935Z" fill="#393939"/>
</svg>
