<svg width="346" height="258" viewBox="0 0 346 258" fill="none" xmlns="http://www.w3.org/2000/svg">
<path d="M346.001 226.562H0V226.701H346.001V226.562Z" fill="#EBEBEB"/>
<path d="M311.333 237.703H296.316V237.842H311.333V237.703Z" fill="#EBEBEB"/>
<path d="M238.535 234.105H214.938V234.244H238.535V234.105Z" fill="#EBEBEB"/>
<path d="M305.243 231.266H274.449V231.404H305.243V231.266Z" fill="#EBEBEB"/>
<path d="M119.718 234.727H112.037V234.865H119.718V234.727Z" fill="#EBEBEB"/>
<path d="M105.876 234.727H79.3027V234.865H105.876V234.727Z" fill="#EBEBEB"/>
<path d="M65.0493 231.82H45.8809V231.959H65.0493V231.82Z" fill="#EBEBEB"/>
<path d="M164.005 195.698H30.38C28.2348 195.698 26.4355 193.899 26.4355 191.754V3.94441C26.4355 1.7992 28.2348 0 30.38 0H164.005C166.22 0 167.95 1.7992 167.95 3.94441V191.754C167.95 193.899 166.22 195.698 164.005 195.698ZM30.38 0.138401C28.304 0.138401 26.5739 1.7992 26.5739 3.94441V191.754C26.5739 193.83 28.2348 195.56 30.38 195.56H164.005C166.081 195.56 167.811 193.899 167.811 191.754V3.94441C167.811 1.8684 166.151 0.138401 164.005 0.138401H30.38Z" fill="#EBEBEB"/>
<path d="M313.683 195.698H180.058C177.843 195.698 176.113 193.899 176.113 191.754V3.94441C176.113 1.7992 177.912 0 180.058 0H313.683C315.828 0 317.628 1.73 317.628 3.94441V191.754C317.628 193.899 315.898 195.698 313.683 195.698ZM180.058 0.138401C177.982 0.138401 176.252 1.7992 176.252 3.94441V191.754C176.252 193.83 177.912 195.56 180.058 195.56H313.683C315.759 195.56 317.489 193.899 317.489 191.754V3.94441C317.489 1.8684 315.828 0.138401 313.683 0.138401H180.058Z" fill="#EBEBEB"/>
<path d="M149.542 100.963L149.819 91.8982L144.214 90.099C144.006 86.985 143.452 83.9402 142.691 80.9646L147.397 77.5046L144.214 68.9929L138.331 69.4773C136.947 66.7093 135.356 64.0797 133.487 61.5885L136.532 56.5369L130.304 49.8937L125.045 52.5925C122.692 50.5857 120.201 48.7865 117.502 47.1949L118.333 41.3821L110.029 37.6453L106.223 42.0741C103.316 41.1053 100.271 40.4133 97.2266 39.9981L95.8426 34.3237L86.7082 34.0469L84.909 39.6521C81.8642 39.8597 78.7502 40.4133 75.7746 41.1745L72.2454 36.4689L63.7337 39.6521L64.2182 45.5341C61.4501 46.9181 58.8205 48.5789 56.3985 50.4473L51.2777 47.3333L44.5653 53.5613L47.2641 58.8205C45.2573 61.1733 43.4581 63.6645 41.8665 66.2941L36.0537 65.3945L32.2477 73.6986L36.7457 77.5046C35.7769 80.411 35.0849 83.4558 34.6697 86.5006L28.9261 87.9538L28.5801 97.019L34.1853 98.8182C34.3929 101.932 34.9465 104.977 35.7077 107.953L31.0021 111.413L34.2545 119.993L40.1365 119.509C41.5205 122.277 43.1121 124.907 44.9805 127.398L41.9357 132.449L48.1637 139.093L53.4229 136.394C55.7757 138.401 58.2669 140.2 60.8965 141.791L59.9969 147.604L68.301 151.41L72.107 146.981C75.0134 147.95 78.0582 148.642 81.103 149.057L82.487 154.732L91.6214 155.078L93.4206 149.473C96.5346 149.196 99.5794 148.711 102.555 148.019L106.015 152.725L114.527 149.542L114.111 143.66C116.879 142.276 119.509 140.615 122 138.747L127.052 141.791L133.695 135.563L130.996 130.304C133.003 127.951 134.802 125.46 136.394 122.831L142.207 123.73L146.013 115.426L141.515 111.62C142.484 108.714 143.176 105.669 143.66 102.624L149.542 100.963ZM88.0922 130.443C68.1626 129.751 52.5925 113.073 53.2153 93.1438C53.8381 73.2142 70.5846 57.6441 90.5142 58.2669C110.444 58.9589 126.014 75.6362 125.391 95.5658C124.699 115.495 108.022 131.065 88.0922 130.443Z" fill="#EBEBEB"/>
<path d="M305.173 70.8597L307.456 68.7145L306.557 66.9153C307.249 66.0849 307.872 65.2545 308.425 64.3549L310.432 64.6317L311.747 61.7945L310.224 60.4797C310.57 59.4417 310.778 58.4037 310.916 57.3657L312.923 56.8813L312.992 53.7673L311.055 53.1445C310.986 52.1065 310.778 50.9993 310.57 49.9613L312.231 48.7157L311.124 45.8092L309.117 45.9476C308.633 44.9788 308.079 44.0792 307.456 43.2488L308.494 41.5188L306.349 39.2352L304.481 40.1348C303.65 39.4428 302.82 38.82 301.92 38.2664L302.197 36.2596L299.36 34.9448L298.045 36.4672C297.007 36.1212 295.969 35.9136 294.931 35.7752L294.447 33.8376L291.333 33.6992L290.71 35.6368C289.672 35.706 288.565 35.9136 287.596 36.1212L286.42 34.5296L283.444 35.6368L283.582 37.6436C282.614 38.128 281.714 38.6816 280.884 39.3044L279.154 38.2664L276.87 40.4116L277.77 42.2108C277.078 43.0412 276.455 43.8716 275.901 44.7712L273.894 44.4944L272.58 47.3316L274.102 48.6465C273.756 49.6845 273.548 50.7225 273.41 51.7605L271.403 52.2449L271.334 55.3589L273.272 55.9817C273.341 57.0197 273.548 58.1269 273.756 59.1649L272.095 60.3413L273.202 63.2477L275.209 63.1093C275.694 64.0781 276.247 64.9777 276.87 65.8081L275.832 67.5381L277.977 69.8217L279.776 68.9221C280.607 69.6141 281.437 70.2369 282.337 70.7905L282.06 72.7973L284.897 74.1121L286.212 72.5897C287.25 72.9357 288.288 73.1433 289.326 73.2817L289.81 75.2193L292.924 75.3577L293.547 73.4201C294.585 73.3509 295.692 73.1433 296.661 72.9357L297.838 74.5965L300.813 73.4893L300.675 71.4825C301.644 70.9981 302.543 70.4445 303.374 69.8217L305.173 70.8597ZM288.842 57.6425C287.181 55.8433 287.25 53.0061 289.049 51.3453C290.848 49.6845 293.686 49.7537 295.346 51.5529C297.007 53.3521 296.938 56.1893 295.139 57.8501C293.34 59.5801 290.502 59.4417 288.842 57.6425Z" fill="#EBEBEB"/>
<path d="M221.439 164.211L214.312 159.298C213.62 156.737 212.651 154.246 211.405 151.824L213.204 144.627L202.824 133.486L195.489 134.801C193.206 133.417 190.784 132.31 188.223 131.41L183.794 123.936L168.57 123.383L163.657 130.51C161.097 131.202 158.605 132.171 156.183 133.348L148.987 131.548L137.845 141.928L139.16 149.194C137.776 151.478 136.669 153.9 135.769 156.46L128.296 160.889L127.742 176.113L134.939 181.027C135.631 183.587 136.6 186.147 137.776 188.5L135.908 195.628L146.288 206.769L153.554 205.454C155.837 206.838 158.329 207.945 160.82 208.845L165.249 216.319L180.473 216.872L185.386 209.745C188.016 209.053 190.507 208.084 192.929 206.838L200.056 208.637L211.198 198.257L209.883 190.991C211.267 188.708 212.374 186.286 213.274 183.725L220.747 179.297L221.439 164.211ZM174.106 187.324C164.695 186.978 157.291 179.089 157.567 169.678C157.913 160.266 165.802 152.862 175.213 153.139C184.625 153.485 192.029 161.374 191.752 170.785C191.406 180.265 183.518 187.67 174.106 187.324Z" fill="#EBEBEB"/>
<path d="M237.703 121.098L225.662 120.683C225.177 120.683 224.693 120.406 224.485 119.991L221.233 114.524C219.503 113.902 217.773 113.071 216.181 112.172L210.991 113.071C210.507 113.14 210.023 113.002 209.677 112.656L201.511 103.868C201.165 103.522 201.027 102.968 201.165 102.484L202.48 97.3628C201.649 95.702 201.027 93.972 200.473 92.1727L195.283 88.5743C194.868 88.2975 194.66 87.8131 194.66 87.3287L195.075 75.3571C195.075 74.8727 195.352 74.3883 195.767 74.1807L201.234 70.9283C201.857 69.1983 202.618 67.5375 203.587 65.9459L202.618 60.7559C202.549 60.2715 202.687 59.7871 203.033 59.4411L211.822 51.2755C212.168 50.9295 212.721 50.7911 213.206 50.9295L218.327 52.2443C219.987 51.4139 221.717 50.7911 223.517 50.2375L227.115 45.0475C227.392 44.6323 227.876 44.3555 228.361 44.4247L240.332 44.8399C240.817 44.8399 241.301 45.1167 241.578 45.5319L244.83 50.9987C246.56 51.6215 248.221 52.3827 249.813 53.3515L255.072 52.3827C255.556 52.3135 256.041 52.4519 256.387 52.7979L264.552 61.5863C264.898 61.9323 265.037 62.4859 264.898 62.9703L263.583 68.0911C264.414 69.7519 265.037 71.4819 265.59 73.2119L270.78 76.8103C271.196 77.0871 271.403 77.5715 271.403 78.0559L270.988 90.0275C270.988 90.512 270.711 90.9963 270.296 91.2731L264.829 94.5256C264.206 96.2556 263.445 97.9164 262.476 99.508L263.445 104.698C263.514 105.182 263.376 105.667 263.03 106.013L254.172 114.178C253.826 114.524 253.273 114.663 252.788 114.524L247.667 113.21C246.007 114.04 244.277 114.663 242.477 115.216L238.948 120.406C238.671 120.822 238.256 121.098 237.703 121.098ZM226.631 117.777L237.011 118.123L240.471 113.14C240.678 112.864 240.955 112.656 241.301 112.587C243.239 112.033 245.107 111.341 246.906 110.442C247.252 110.303 247.598 110.234 247.944 110.372L252.788 111.618L260.4 104.56L259.501 99.5772C259.431 99.2312 259.501 98.8852 259.708 98.5392C260.746 96.8092 261.577 95.01 262.199 93.1416C262.338 92.7956 262.545 92.5187 262.822 92.3111L268.012 89.1971L268.358 78.8171L263.376 75.3571C263.099 75.1495 262.891 74.9419 262.822 74.5959C262.822 74.5267 262.822 74.5267 262.822 74.4575C262.269 72.5199 261.577 70.7207 260.677 68.9215C260.539 68.5755 260.469 68.2295 260.539 67.8835L261.784 62.9703L254.726 55.3583L249.743 56.2579C249.397 56.3271 249.051 56.2579 248.705 56.0503C246.975 55.0123 245.176 54.1819 243.308 53.4899C243.169 53.4207 243.1 53.4207 242.962 53.3515C242.754 53.2131 242.616 53.0747 242.477 52.8671L239.363 47.6079L228.983 47.2619L225.523 52.2443C225.316 52.5211 225.039 52.7287 224.693 52.8671C222.755 53.4207 220.887 54.1127 219.088 55.0123C218.742 55.1507 218.396 55.2199 218.05 55.1507L213.137 53.9051L205.525 60.9635L206.424 65.9459C206.493 66.2919 206.424 66.5687 206.286 66.8455L206.217 66.9839C205.179 68.7139 204.348 70.5131 203.725 72.4507C203.587 72.7967 203.379 73.0735 203.103 73.2119L197.913 76.3259L197.567 86.7059L202.549 90.1659C202.826 90.3735 203.033 90.6503 203.103 90.9963C203.587 92.934 204.348 94.8024 205.248 96.6016C205.317 96.6708 205.317 96.8092 205.386 96.9476C205.455 97.1552 205.455 97.432 205.386 97.6396L204.141 102.484L211.199 110.096L216.112 109.196C216.458 109.127 216.804 109.196 217.15 109.404C218.88 110.442 220.679 111.272 222.617 111.964C222.963 112.033 223.24 112.31 223.447 112.587L226.631 117.777ZM232.997 104.698C232.72 104.698 232.513 104.698 232.236 104.698C220.195 104.49 210.576 94.5256 210.784 82.4847C210.991 70.4439 220.956 60.8251 232.997 61.0327C245.038 61.2403 254.657 71.2051 254.449 83.2459C254.241 95.01 244.761 104.49 232.997 104.698ZM232.997 63.8007C222.479 64.0083 214.105 72.6583 214.244 83.1767C214.382 93.6952 223.101 102.068 233.62 101.93C244.138 101.722 252.511 93.0724 252.373 82.5539C252.165 72.3123 243.931 64.0083 233.62 63.8007H232.997Z" fill="#EBEBEB"/>
<path d="M265.309 34.809L260.396 33.4942L259.012 28.5118L260.949 26.5742L263.025 30.8646L267.247 32.8714L265.309 34.809Z" fill="#E0E0E0"/>
<path d="M265.659 31.4853C266.558 30.5857 266.558 29.1325 265.659 28.2329C264.759 27.3333 263.306 27.3333 262.406 28.2329L264.897 24.4961L268.219 26.1569L268.911 29.6169L265.659 31.4853Z" fill="#E0E0E0"/>
<path d="M260.607 26.9879L264.275 23.3203L269.257 24.6351L270.572 29.6175L266.905 33.2851L261.922 31.9703L260.607 26.9879ZM267.181 29.9635C268.081 29.0639 268.081 27.6107 267.181 26.7111C266.282 25.8115 264.829 25.8115 263.929 26.7111C263.029 27.6107 263.029 29.0639 263.929 29.9635C264.829 30.8631 266.282 30.8631 267.181 29.9635Z" fill="#F0F0F0"/>
<path d="M62.4189 167.257L65.1177 166.565L65.8097 163.866L64.7717 162.828L63.6645 165.112L61.3809 166.219L62.4189 167.257Z" fill="#E0E0E0"/>
<path d="M62.2855 165.456C61.8011 164.971 61.8703 164.141 62.4239 163.726C62.9083 163.31 63.6003 163.31 64.0847 163.726L62.7699 161.719L60.9015 162.618L60.4863 164.487L62.2855 165.456Z" fill="#E0E0E0"/>
<path d="M64.978 163.035L63.0404 161.098L60.4108 161.79L59.7188 164.488L61.6564 166.495L64.286 165.803L64.978 163.035ZM61.4488 164.627C60.9644 164.142 60.8951 163.381 61.3103 162.897C61.7948 162.412 62.556 162.343 63.0404 162.758C63.1096 162.828 63.1096 162.828 63.1788 162.897C63.6632 163.381 63.594 164.212 63.0404 164.627C62.6252 165.042 61.9332 165.042 61.4488 164.627Z" fill="#F0F0F0"/>
<path d="M52.8703 21.2451L55.0847 23.4595C55.6383 24.0131 56.6071 24.0131 57.1607 23.4595C57.7143 22.9059 57.7143 21.9371 57.1607 21.3835L54.9463 19.1691C54.3927 18.6155 53.4239 18.6155 52.8703 19.1691C52.3167 19.7227 52.3167 20.6223 52.8703 21.2451Z" fill="#F0F0F0"/>
<path d="M51.2773 15.7069C52.9381 15.2225 54.5989 16.1913 55.0833 17.8521C55.5677 19.5129 54.5989 21.1737 52.9381 21.6581C51.3465 22.0733 49.7549 21.2429 49.2013 19.7205C48.6477 18.0597 49.6165 16.2605 51.2773 15.7069Z" fill="#E0E0E0"/>
<path d="M55.476 16.9768L48.8984 19.3398L49.226 20.2516L55.8035 17.8885L55.476 16.9768Z" fill="#F0F0F0"/>
<path d="M172.999 257.772C247.104 257.772 307.178 254.271 307.178 249.952C307.178 245.634 247.104 242.133 172.999 242.133C98.8943 242.133 38.8203 245.634 38.8203 249.952C38.8203 254.271 98.8943 257.772 172.999 257.772Z" fill="#F5F5F5"/>
<path d="M113.075 113.353C112.383 110.308 112.659 107.748 113.974 105.672C115.289 103.596 117.434 102.212 120.479 101.52C123.524 100.828 126.153 101.105 128.229 102.42C130.305 103.734 131.689 105.88 132.381 108.855C132.866 110.724 132.935 112.592 132.52 114.46C132.105 115.983 131.274 117.367 130.098 118.474C128.714 119.65 126.984 120.481 125.185 120.827C123.385 121.311 121.517 121.38 119.718 121.034C118.126 120.619 116.742 119.789 115.635 118.612C114.32 117.09 113.49 115.291 113.075 113.353ZM118.887 112.108C119.303 113.976 119.995 115.291 120.894 115.914C122.763 117.159 125.323 116.675 126.569 114.806C126.569 114.737 126.638 114.737 126.638 114.668C127.122 113.699 127.122 112.177 126.707 110.101C126.292 108.371 125.669 107.125 124.769 106.502C123.87 105.88 122.693 105.672 121.586 105.949C120.479 106.156 119.579 106.848 119.026 107.817C118.472 108.786 118.403 110.17 118.887 112.108Z" fill="#FF6B00"/>
<path d="M135.147 111.069C134.663 109.132 135.009 107.125 136.116 105.464C137.362 103.734 139.23 102.558 141.306 102.142C144.005 101.52 146.219 101.866 147.949 103.111C150.994 105.464 151.755 109.685 149.748 113.007C148.641 114.668 146.911 115.775 144.489 116.328C142.621 116.882 140.614 116.674 138.815 115.844C136.946 114.944 135.562 113.214 135.147 111.069ZM140.337 109.893C140.476 110.862 140.96 111.761 141.652 112.384C142.759 113.214 144.282 113.007 145.112 111.9C145.181 111.761 145.25 111.692 145.32 111.554C145.666 110.654 145.735 109.616 145.389 108.647C145.25 107.678 144.766 106.848 144.074 106.225C143.52 105.741 142.759 105.602 142.067 105.741C141.306 105.879 140.752 106.364 140.406 107.056C140.13 107.955 140.06 108.993 140.337 109.893Z" fill="#FF6B00"/>
<path d="M155.909 118.819L151.688 100.135L156.532 99.0274L157.016 101.034C157.362 100.204 157.846 99.5118 158.469 98.889C159.161 98.3354 159.992 97.9202 160.822 97.7126C162.483 97.2974 164.213 97.7126 165.458 98.8198C166.842 100.065 167.742 101.795 168.088 103.595C168.572 105.809 168.434 107.677 167.673 109.131C166.912 110.515 165.528 111.553 164.005 111.829C163.244 112.037 162.483 112.037 161.722 111.899C161.03 111.76 160.268 111.483 159.715 111.068L161.168 117.504L155.909 118.819ZM158.4 105.809C158.538 106.639 158.954 107.47 159.646 108.023C160.199 108.439 160.891 108.577 161.514 108.439C162.137 108.3 162.621 107.885 162.898 107.331C163.175 106.432 163.175 105.532 162.898 104.633C162.76 103.733 162.344 102.972 161.722 102.349C161.237 101.934 160.614 101.795 159.992 101.934C159.369 102.072 158.815 102.487 158.538 103.11C158.123 104.01 158.123 104.909 158.4 105.809Z" fill="#FF6B00"/>
<path d="M170.302 106.225L175.353 104.564C175.63 105.049 176.045 105.464 176.53 105.671C177.637 106.017 178.813 105.671 179.644 104.91C179.851 104.633 179.99 104.287 179.921 104.011C179.851 103.595 179.505 103.319 179.159 103.249C178.398 103.18 177.568 103.18 176.807 103.249C175.492 103.388 174.177 103.388 172.862 103.249C172.101 103.111 171.34 102.834 170.786 102.281C169.471 101.173 169.125 99.305 169.817 97.7826C170.233 96.9522 170.855 96.3294 171.617 95.845C172.724 95.2222 173.9 94.807 175.146 94.5302C176.322 94.1842 177.568 94.0458 178.813 94.115C179.575 94.1842 180.336 94.3918 181.028 94.807C181.72 95.2914 182.343 95.9142 182.758 96.6062L177.914 98.1978C177.706 97.8518 177.429 97.575 177.083 97.3674C176.599 97.1598 176.045 97.1598 175.492 97.2982C175.007 97.3674 174.592 97.575 174.246 97.921C174.039 98.1286 173.969 98.4746 174.039 98.7514C174.108 99.0974 174.385 99.305 174.731 99.3742C175.492 99.4434 176.253 99.4434 177.083 99.305C178.398 99.0974 179.782 99.0974 181.097 99.2358C181.927 99.3742 182.758 99.7202 183.381 100.274C183.934 100.827 184.349 101.519 184.557 102.211C184.765 103.042 184.695 103.872 184.349 104.633C184.003 105.533 183.381 106.363 182.55 106.917C181.305 107.678 179.99 108.232 178.537 108.509C176.045 109.062 174.246 109.131 173.001 108.647C171.824 108.301 170.855 107.401 170.302 106.225Z" fill="#FF6B00"/>
<path d="M187.189 89.0625H192.864V93.4221L191.826 102.211H188.297L187.189 93.4913V89.0625ZM187.466 103.525H192.795V108.231H187.466V103.525Z" fill="#FF6B00"/>
<path d="M153.9 172.86C154.869 157.359 153.07 129.195 182.203 132.932C213.413 136.945 204.486 173.483 204.486 173.483L153.9 172.86Z" fill="#263238"/>
<path d="M174.038 163.587C181.07 163.587 186.77 157.886 186.77 150.854C186.77 143.822 181.07 138.121 174.038 138.121C167.005 138.121 161.305 143.822 161.305 150.854C161.305 157.886 167.005 163.587 174.038 163.587Z" fill="white"/>
<path d="M175.698 138.122C169.678 137.084 163.242 141.512 162.619 146.01L186.493 148.225C185.663 143.173 180.473 138.952 175.698 138.122Z" fill="#263238"/>
<path d="M183.794 150.507C183.655 153.828 181.787 156.458 179.711 156.319C177.635 156.181 176.113 153.413 176.251 150.091C176.389 146.77 178.258 144.14 180.334 144.279C182.41 144.417 183.932 147.185 183.794 150.507Z" fill="#263238"/>
<path d="M174.036 164.279C166.632 164.279 160.611 158.259 160.611 150.855C160.611 143.45 166.632 137.43 174.036 137.43C181.441 137.43 187.461 143.45 187.461 150.855C187.461 158.259 181.441 164.279 174.036 164.279ZM174.036 138.814C167.393 138.814 161.995 144.211 161.995 150.855C161.995 157.498 167.393 162.895 174.036 162.895C180.679 162.895 186.077 157.498 186.077 150.855C186.077 144.211 180.679 138.814 174.036 138.814Z" fill="#FF6B00"/>
<path opacity="0.3" d="M201.025 172.514H200.956C200.748 172.445 200.679 172.306 200.679 172.099C200.679 172.029 202.893 162.618 200.61 153.138C200.541 152.93 200.679 152.723 200.887 152.723C201.094 152.723 201.302 152.792 201.302 152.999C203.655 162.687 201.371 172.168 201.371 172.306C201.302 172.375 201.163 172.514 201.025 172.514Z" fill="white"/>
<path opacity="0.3" d="M199.09 147.947C198.951 147.947 198.813 147.878 198.744 147.74C197.913 145.871 196.806 144.072 195.491 142.411C195.353 142.273 195.422 142.065 195.561 141.927C195.699 141.789 195.907 141.858 196.045 141.996C197.429 143.657 198.536 145.525 199.436 147.463C199.505 147.601 199.436 147.809 199.297 147.947C199.159 147.878 199.159 147.947 199.09 147.947Z" fill="white"/>
<path d="M89.0602 245.588H88.7834C86.8458 245.519 85.3926 243.927 85.3926 242.059C85.4618 240.121 87.0534 238.668 88.9218 238.668H88.991C90.9978 238.668 95.7726 236.246 105.876 220.399C106.914 218.807 109.059 218.323 110.651 219.361C110.789 219.43 110.927 219.569 111.066 219.707C118.955 226.489 127.605 232.44 136.739 237.353C138.469 238.114 139.23 240.19 138.469 241.92C137.708 243.65 135.632 244.411 133.902 243.65C133.833 243.581 133.694 243.581 133.625 243.512C125.113 238.945 117.017 233.616 109.543 227.527C101.17 240.121 94.9422 245.588 89.0602 245.588Z" fill="#263238"/>
<path d="M110.513 219.017H110.236C109.129 218.879 108.298 217.771 108.506 216.664C108.99 213.204 108.368 200.333 104.008 190.299C103.593 189.399 103.939 188.292 104.769 187.739C114.25 181.303 134.456 180.472 135.286 180.472C136.463 180.403 137.362 181.303 137.432 182.479C137.501 183.656 136.601 184.555 135.425 184.624C135.217 184.624 117.571 185.317 108.506 190.299C112.381 200.264 113.281 212.72 112.589 217.218C112.381 218.256 111.551 219.017 110.513 219.017Z" fill="#263238"/>
<path d="M113.974 216.319C112.59 213.067 106.362 213.413 102.694 216.25C100.756 217.703 98.1269 222.201 97.8501 223.862C97.5733 225.177 98.4037 226.492 99.7185 226.769C99.9953 226.838 100.341 226.838 100.618 226.769C102.971 226.561 106.292 223.101 106.292 223.101C104.147 225.246 106.915 226.769 111.136 223.655C113.42 221.925 115.496 219.987 113.974 216.319Z" fill="#FF6B00"/>
<path d="M232.992 173.83H232.923C232.715 173.761 232.646 173.623 232.715 173.415C233.615 170.232 234.653 168.225 235.968 167.187C235.76 166.426 235.829 165.665 236.106 164.904C236.452 164.073 237.006 163.312 237.767 162.828C237.352 162.412 237.213 161.79 237.352 161.167C237.629 160.267 238.113 159.506 238.805 158.952C238.528 158.676 238.39 158.26 238.39 157.914C238.39 155.838 242.196 152.724 246.555 152.102C246.763 152.102 246.901 152.24 246.971 152.378C247.04 152.517 246.832 152.724 246.694 152.794C242.611 153.347 239.151 156.323 239.151 157.914C239.151 158.122 239.22 158.399 239.428 158.537C241.296 157.292 243.649 156.807 245.863 157.222C248.009 157.638 248.839 158.053 248.77 158.745C248.562 159.99 244.064 160.198 241.019 159.852C240.466 159.783 239.981 159.644 239.497 159.437C238.874 159.921 238.39 160.544 238.113 161.305C237.975 161.72 238.113 162.136 238.459 162.412C239.774 161.72 241.573 161.444 243.926 161.997C247.04 162.689 247.178 163.035 247.247 163.312C247.317 163.45 247.247 163.658 247.109 163.796C246.417 164.488 241.642 164.142 239.22 163.589C238.943 163.52 238.667 163.45 238.39 163.243C237.698 163.658 237.144 164.35 236.798 165.111C236.591 165.596 236.521 166.149 236.66 166.703C236.798 166.634 236.937 166.564 237.006 166.495C238.459 165.803 240.189 165.942 242.334 166.841C243.718 167.464 244.41 167.948 244.479 168.502C244.479 168.779 244.341 169.056 244.064 169.194C243.026 169.886 239.289 169.817 237.421 168.779C237.006 168.571 236.591 168.156 236.383 167.741C235.276 168.779 234.307 170.647 233.546 173.554C233.269 173.692 233.131 173.83 232.992 173.83ZM236.729 167.326C236.937 167.672 237.213 167.948 237.559 168.156C239.151 168.986 242.196 169.194 243.372 168.71C243.58 168.64 243.649 168.571 243.649 168.571C243.649 168.571 243.649 168.156 241.919 167.464C239.981 166.634 238.459 166.495 237.213 167.118C237.006 167.187 236.867 167.256 236.729 167.326ZM239.082 162.828L239.22 162.897C241.504 163.45 243.787 163.589 246.071 163.45C245.241 163.174 244.41 162.897 243.58 162.758C242.127 162.274 240.535 162.343 239.082 162.828ZM239.912 158.883C240.258 159.022 240.535 159.091 240.881 159.091C244.341 159.506 247.386 159.022 247.801 158.606C247.663 158.537 247.247 158.191 245.517 157.914C243.58 157.499 241.642 157.845 239.912 158.883Z" fill="#263238"/>
<path d="M142.899 244.411C143.383 244.273 143.176 243.788 142.691 243.788H133.349C115.496 241.92 103.04 244.411 110.928 245.034C118.817 245.657 110.375 245.518 104.631 247.664C98.8876 249.809 147.259 250.362 151.687 247.664C155.701 245.242 136.602 246.487 142.899 244.411Z" fill="#263238"/>
<path d="M210.02 247.182L128.502 244.484L125.111 165.457L221.369 167.602L210.02 247.182Z" fill="#FF6B00"/>
<path d="M153.9 245.658C153.692 245.658 153.554 245.52 153.554 245.312L147.049 165.94C147.049 165.732 147.187 165.594 147.395 165.594C147.602 165.594 147.741 165.732 147.741 165.94L154.315 245.312C154.315 245.52 154.176 245.658 153.9 245.658C153.969 245.658 153.969 245.658 153.9 245.658Z" fill="#263238"/>
<path d="M210.021 247.182L231.889 243.86L238.809 170.37L221.37 167.602L210.021 247.182Z" fill="#FF6B00"/>
<path opacity="0.2" d="M210.021 247.182L231.889 243.86L238.809 170.37L221.37 167.602L210.021 247.182Z" fill="black"/>
<path d="M135.425 229.259L133.419 182.272C133.211 177.566 136.879 173.622 141.515 173.414C141.723 173.414 141.861 173.414 142.069 173.414L203.034 174.798C207.739 174.936 211.407 178.812 211.338 183.448C211.338 183.794 211.269 184.14 211.269 184.486L204.487 231.75C203.864 236.04 200.127 239.154 195.837 239.016L143.66 237.286C139.231 237.286 135.633 233.687 135.425 229.259Z" fill="#263238"/>
<path d="M87.0532 248.913L82.6936 246.837L78.8184 228.014L80.8944 225.73L87.0532 248.913Z" fill="#FF6B00"/>
<path d="M87.0514 248.913L92.795 245.522L87.8126 230.021L80.8926 225.73L87.0514 248.913Z" fill="#FF6B00"/>
<path opacity="0.2" d="M87.0514 248.913L92.795 245.522L87.8126 230.021L80.8926 225.73L87.0514 248.913Z" fill="black"/>
<path d="M181.305 252.302H180.82C178.883 252.233 177.43 250.642 177.43 248.773C177.499 246.836 179.09 245.382 180.959 245.382C186.287 245.521 197.567 242.268 204.003 236.04C204.418 235.625 204.833 235.348 205.387 235.21C216.32 231.958 220.403 238.532 220.541 238.808L214.59 242.338C214.59 242.407 214.659 242.407 214.659 242.476C214.59 242.407 213.068 240.4 208.085 241.646C200.127 248.981 187.671 252.302 181.305 252.302Z" fill="#263238"/>
<path d="M180.891 256.868L168.297 256.107L167.328 232.855L184.213 233.478L180.891 256.868Z" fill="#FF6B00"/>
<path d="M180.887 256.87L183.793 253.964L185.662 239.501L184.208 233.48L180.887 256.87Z" fill="#FF6B00"/>
<path opacity="0.2" d="M180.887 256.87L183.793 253.964L185.662 239.501L184.208 233.48L180.887 256.87Z" fill="black"/>
<path d="M253.897 248.079C253.413 248.079 252.998 247.941 252.652 247.664C245.455 242.197 235.697 232.509 232.03 223.098C231.961 222.96 231.961 222.821 231.892 222.683C230.092 211.888 228.362 189.121 228.293 188.152C228.224 186.976 229.054 186.007 230.231 185.938C231.407 185.868 232.376 186.699 232.445 187.875C232.445 188.083 234.244 211.126 235.974 221.852C239.711 230.987 249.814 240.329 255.212 244.412C256.112 245.104 256.319 246.419 255.627 247.318C255.212 247.803 254.589 248.079 253.897 248.079Z" fill="#263238"/>
<path d="M263.51 249.117C261.918 249.117 260.05 248.425 258.112 246.971C257.212 246.279 257.005 245.034 257.628 244.065C258.32 243.165 259.565 242.958 260.534 243.581C262.264 244.826 263.164 244.965 263.51 244.965C264.686 244.965 265.586 245.864 265.586 247.041C265.586 248.217 264.617 249.186 263.51 249.117Z" fill="#263238"/>
<path d="M258.668 246.906C260.882 240.332 270.016 241.647 273.13 242.615C275.829 243.377 278.39 244.484 280.812 245.937C282.542 247.044 282.542 248.913 280.258 249.951C277.49 251.265 270.432 250.089 270.432 250.089C274.03 251.681 270.432 254.241 264.065 251.75C261.989 250.919 257.906 249.328 258.668 246.906Z" fill="#FF6B00"/>
<path d="M236.593 190.989C235.762 196.595 231.126 200.747 227.32 200.193C223.514 199.639 223.376 194.657 224.206 189.052C225.036 183.447 226.559 179.364 230.296 179.917C234.032 180.471 237.354 185.384 236.593 190.989Z" fill="#263238"/>
<path d="M145.249 168.638C145.555 168.638 145.803 168.391 145.803 168.085C145.803 167.779 145.555 167.531 145.249 167.531C144.943 167.531 144.695 167.779 144.695 168.085C144.695 168.391 144.943 168.638 145.249 168.638Z" fill="#263238"/>
<path d="M150.992 172.167C150.992 172.513 150.715 172.72 150.438 172.72C150.092 172.72 149.885 172.444 149.885 172.167C149.885 171.821 150.162 171.613 150.438 171.613C150.715 171.613 150.992 171.821 150.992 172.167Z" fill="#263238"/>
<path d="M151.617 239.222C151.617 239.568 151.34 239.775 151.063 239.775C150.717 239.775 150.51 239.498 150.51 239.222C150.51 238.876 150.787 238.668 151.063 238.668C151.409 238.668 151.617 238.876 151.617 239.222Z" fill="#263238"/>
<path d="M156.804 243.308C156.804 243.654 156.528 243.861 156.251 243.861C155.905 243.861 155.697 243.584 155.697 243.308C155.697 242.962 155.974 242.754 156.251 242.754C156.597 242.754 156.804 242.962 156.804 243.308Z" fill="#263238"/>
<path d="M57.086 250.09C55.0792 250.021 53.2108 248.983 52.0344 247.322C51.896 247.184 51.9652 246.976 52.1036 246.838C52.242 246.699 52.4496 246.769 52.588 246.907C53.9028 248.775 56.74 249.744 57.9856 249.191C58.124 249.121 58.1932 249.052 58.3316 248.983C57.086 248.429 56.1172 247.253 55.9096 245.869C55.7712 244.969 55.6328 243.793 56.3248 243.655C57.2936 243.447 58.6084 245.8 59.0928 247.668C59.162 247.945 59.2312 248.291 59.162 248.568C59.5772 248.706 59.9924 248.706 60.4076 248.637C60.7536 248.637 61.0996 248.429 61.3764 248.153C60.4768 247.461 59.854 246.423 59.7848 245.246C59.508 243.378 59.7156 243.032 59.9232 242.824C60.0616 242.686 60.2692 242.686 60.4076 242.755C61.1688 243.101 62.0684 245.731 62.2068 247.253C62.2068 247.391 62.2068 247.599 62.2068 247.737C62.4836 247.876 62.8296 247.945 63.1064 247.945C63.66 247.945 64.2828 247.807 64.7673 247.53C64.6981 247.461 64.5596 247.391 64.4904 247.322C63.7984 246.699 63.4524 245.731 63.5908 244.347C63.6601 243.239 63.9368 242.686 64.3521 242.478C64.6289 242.34 64.9748 242.409 65.1825 242.617C66.1513 243.655 66.5665 245.039 66.3589 246.492C66.2897 246.769 66.1513 247.045 66.0129 247.253C67.2585 247.461 69.0577 247.115 70.6493 246.699C70.8569 246.63 71.0645 246.769 71.0645 246.976C71.1337 247.184 70.9953 247.391 70.7877 247.391C68.9193 247.876 66.9125 248.222 65.4593 247.807C64.7673 248.36 63.9368 248.637 63.0372 248.637C62.622 248.637 62.276 248.568 61.93 248.429C61.584 248.914 61.0304 249.26 60.4768 249.329C59.9232 249.398 59.4388 249.329 58.9544 249.191C58.816 249.467 58.5392 249.675 58.2624 249.813C57.9164 250.021 57.5012 250.09 57.086 250.09ZM56.5324 244.347C56.4632 244.831 56.4632 245.315 56.6016 245.731C56.8092 246.838 57.5012 247.807 58.5392 248.291C58.5392 248.153 58.47 247.945 58.47 247.807C57.9164 245.869 56.8784 244.554 56.5324 244.347ZM60.3384 243.793C60.3384 244.277 60.4076 244.762 60.4768 245.246C60.546 246.077 60.892 246.907 61.5148 247.461C61.3764 246.146 60.9612 244.9 60.3384 243.793ZM64.6981 243.17C64.6981 243.17 64.4213 243.309 64.3521 244.485C64.2829 245.661 64.4905 246.423 64.9749 246.907C65.1133 246.976 65.2517 247.115 65.3901 247.184C65.5977 246.976 65.6669 246.769 65.7361 246.492C65.8745 245.385 65.5977 244.277 64.9057 243.447C64.8365 243.17 64.6981 243.17 64.6981 243.17Z" fill="#263238"/>
<path d="M158.399 255.349L160.268 252.096L158.399 248.844H156.393L157.5 252.096L156.393 255.349H158.399Z" fill="#263238"/>
<path d="M156.523 253.76C155.555 253.829 154.793 253.137 154.724 252.168C154.655 251.199 155.347 250.438 156.316 250.369C156.385 250.369 156.454 250.369 156.523 250.369L153.34 249.746L152.51 252.307L153.963 254.452L156.523 253.76Z" fill="#263238"/>
<path d="M156.804 248.844H153.068L151.199 252.096L153.068 255.349H156.804L158.673 252.096L156.804 248.844ZM154.867 253.757C153.898 253.757 153.137 252.996 153.137 252.096C153.137 251.197 153.898 250.366 154.798 250.366C155.766 250.366 156.528 251.127 156.528 252.027C156.597 252.996 155.836 253.757 154.867 253.757Z" fill="#FF6B00"/>
<path d="M289.185 248.637L287.801 246.215L289.185 243.793H290.638L289.808 246.215L290.638 248.637H289.185Z" fill="#FF6B00"/>
<path d="M290.569 247.46C291.261 247.529 291.884 246.976 291.884 246.284C291.953 245.592 291.4 244.969 290.708 244.969C290.638 244.969 290.569 244.969 290.5 244.969L292.853 244.484L293.476 246.422L292.438 248.014L290.569 247.46Z" fill="#FF6B00"/>
<path d="M290.359 243.793H293.127L294.511 246.215L293.127 248.637H290.359L288.975 246.215L290.359 243.793ZM291.743 247.461C292.435 247.461 292.988 246.907 292.988 246.215C292.988 245.523 292.435 244.969 291.743 244.969C291.051 244.969 290.497 245.523 290.497 246.215C290.497 246.907 291.051 247.461 291.743 247.461Z" fill="#263238"/>
<path d="M237.354 251.82H240.468C241.298 251.82 241.921 251.128 241.921 250.367C241.921 249.537 241.229 248.914 240.468 248.914H237.354C236.523 248.914 235.9 249.606 235.9 250.367C235.9 251.128 236.523 251.82 237.354 251.82Z" fill="#263238"/>
<path d="M232.302 249.054C233.132 247.531 235.001 247.047 236.523 247.808C238.045 248.569 238.53 250.507 237.769 252.029C237.007 253.483 235.208 254.036 233.755 253.344C232.163 252.514 231.541 250.576 232.302 249.054Z" fill="#FF6B00"/>
<path d="M236.17 246.987L233.189 253.309L234.066 253.722L237.046 247.4L236.17 246.987Z" fill="#263238"/>
<path d="M169.744 211.822C169.052 211.822 168.498 211.268 168.498 210.576C168.498 209.884 169.052 209.33 169.744 209.33C170.436 209.33 170.989 209.884 170.989 210.576C170.989 211.268 170.436 211.822 169.744 211.822ZM169.744 205.248C169.052 205.248 168.498 204.694 168.498 204.002V200.75C168.498 200.058 169.052 199.504 169.744 199.504C170.436 199.504 170.989 200.058 170.989 200.75V204.002C170.989 204.694 170.436 205.248 169.744 205.248Z" fill="#EBEBEB"/>
<path d="M158.193 218.325C158.124 218.325 158.124 218.325 158.193 218.325C157.64 218.325 157.155 218.186 156.671 217.979C154.387 217.01 153.28 214.449 154.18 212.097C154.18 212.027 154.249 212.027 154.249 211.958L165.875 191.959C166.29 191.267 166.843 190.645 167.605 190.229C168.643 189.676 169.888 189.537 170.995 189.814C172.172 190.16 173.071 190.921 173.694 191.959L185.251 211.958C185.251 212.027 185.32 212.027 185.32 212.097C185.527 212.65 185.666 213.204 185.666 213.757C185.666 214.934 185.181 216.11 184.351 216.941C183.521 217.771 182.413 218.255 181.168 218.255H158.263H158.193C158.193 218.325 158.193 218.325 158.193 218.325ZM156.394 213.135C156.048 214.173 156.533 215.28 157.571 215.695C157.778 215.764 157.986 215.833 158.263 215.833H158.332H181.237C181.791 215.833 182.275 215.626 182.69 215.211C183.105 214.795 183.313 214.311 183.244 213.757C183.244 213.55 183.175 213.273 183.105 213.065L171.549 193.136C171.272 192.651 170.857 192.305 170.303 192.167C169.75 192.029 169.196 192.098 168.781 192.375C168.435 192.582 168.158 192.859 167.951 193.205L156.394 213.135Z" fill="#EBEBEB"/>
</svg>
