<svg width="347" height="258" viewBox="0 0 347 258" fill="none" xmlns="http://www.w3.org/2000/svg">
<path d="M346.138 226.652H-0.00390625V226.791H346.138V226.652Z" fill="#EBEBEB"/>
<path d="M59.2525 233.23H36.3379V233.369H59.2525V233.23Z" fill="#EBEBEB"/>
<path d="M147.867 231.359H118.445V231.498H147.867V231.359Z" fill="#EBEBEB"/>
<path d="M78.0184 235.652H64.7266V235.791H78.0184V235.652Z" fill="#EBEBEB"/>
<path d="M311.454 238.492H300.932V238.631H311.454V238.492Z" fill="#EBEBEB"/>
<path d="M294.771 238.492H271.025V238.631H294.771V238.492Z" fill="#EBEBEB"/>
<path d="M229.697 233.508H213.221V233.646H229.697V233.508Z" fill="#EBEBEB"/>
<path d="M164.067 195.778H30.3874C28.2413 195.778 26.4414 193.978 26.4414 191.832V3.94602C26.4414 1.79994 28.2413 0 30.3874 0H164.067C166.283 0 168.013 1.79994 168.013 3.94602V191.832C168.013 193.978 166.283 195.778 164.067 195.778ZM30.3874 0.138457C28.3106 0.138457 26.5799 1.79994 26.5799 3.94602V191.832C26.5799 193.909 28.2413 195.639 30.3874 195.639H164.067C166.144 195.639 167.875 193.978 167.875 191.832V3.94602C167.875 1.86917 166.214 0.138457 164.067 0.138457H30.3874Z" fill="#EBEBEB"/>
<path d="M313.812 195.778H180.132C177.916 195.778 176.186 193.978 176.186 191.832V3.94602C176.186 1.79994 177.985 0 180.132 0H313.812C315.958 0 317.758 1.73071 317.758 3.94602V191.832C317.758 193.978 316.027 195.778 313.812 195.778ZM180.132 0.138457C178.055 0.138457 176.324 1.79994 176.324 3.94602V191.832C176.324 193.909 177.985 195.639 180.132 195.639H313.812C315.888 195.639 317.619 193.978 317.619 191.832V3.94602C317.619 1.86917 315.958 0.138457 313.812 0.138457H180.132Z" fill="#EBEBEB"/>
<path d="M302.385 120.32H285.701V223.055H302.385V120.32Z" fill="#F0F0F0"/>
<path d="M300.657 223.125H199.307V226.656H300.657V223.125Z" fill="#F0F0F0"/>
<path d="M285.702 120.387H197.852V223.122H285.702V120.387Z" fill="#F5F5F5"/>
<path d="M282.723 173.832H200.826V192.178H282.723V173.832Z" fill="#F0F0F0"/>
<path d="M282.723 197.855H200.826V216.201H282.723V197.855Z" fill="#F0F0F0"/>
<path d="M274.625 175.218H208.997C208.512 175.218 208.166 174.872 208.166 174.387V173.487C208.166 173.002 208.512 172.656 208.997 172.656H274.625C275.11 172.656 275.456 173.002 275.456 173.487V174.387C275.456 174.872 275.041 175.218 274.625 175.218Z" fill="#F5F5F5"/>
<path d="M274.625 199.241H208.997C208.512 199.241 208.166 198.895 208.166 198.41V197.51C208.166 197.026 208.512 196.68 208.997 196.68H274.625C275.11 196.68 275.456 197.026 275.456 197.51V198.41C275.456 198.895 275.041 199.241 274.625 199.241Z" fill="#F5F5F5"/>
<path d="M282.723 125.996H200.826V144.342H282.723V125.996Z" fill="#F0F0F0"/>
<path d="M282.723 149.809H200.826V168.154H282.723V149.809Z" fill="#F0F0F0"/>
<path d="M274.625 127.382H208.997C208.512 127.382 208.166 127.036 208.166 126.551V125.651C208.166 125.166 208.512 124.82 208.997 124.82H274.625C275.11 124.82 275.456 125.166 275.456 125.651V126.551C275.456 127.036 275.041 127.382 274.625 127.382Z" fill="#F5F5F5"/>
<path d="M274.625 151.265H208.997C208.512 151.265 208.166 150.918 208.166 150.434V149.534C208.166 149.049 208.512 148.703 208.997 148.703H274.625C275.11 148.703 275.456 149.049 275.456 149.534V150.434C275.456 150.849 275.041 151.265 274.625 151.265Z" fill="#F5F5F5"/>
<path d="M156.799 149.879H146.83V226.653H156.799V149.879Z" fill="#F0F0F0"/>
<path d="M146.761 149.879H47.0723V226.653H146.761V149.879Z" fill="#F5F5F5"/>
<path d="M135.409 178.887H46.3125V219.939H135.409V178.887Z" fill="#FAFAFA"/>
<path d="M135.409 161.023H46.3125V174.523H135.409V161.023Z" fill="#FAFAFA"/>
<path opacity="0.7" d="M136.097 178.887H135.404V219.939H136.097V178.887Z" fill="#E6E6E6"/>
<path opacity="0.7" d="M136.097 160.957H135.404V174.457H136.097V160.957Z" fill="#E6E6E6"/>
<path opacity="0.7" d="M156.798 153.133H46.8633V154.864H156.798V153.133Z" fill="#E6E6E6"/>
<path d="M157.976 148.84H146.83V153.824H157.976V148.84Z" fill="#F0F0F0"/>
<path d="M146.833 148.84H45.9668V153.824H146.833V148.84Z" fill="#F5F5F5"/>
<path d="M214.602 17.375H57.3848V99.2722H214.602V17.375Z" fill="#E6E6E6"/>
<path d="M47.4192 14.1914H220.629C221.113 14.1914 221.529 14.6068 221.529 15.0914C221.529 15.576 221.113 15.9913 220.629 15.9913H47.4192C46.9346 15.9913 46.5193 15.576 46.5193 15.0914C46.45 14.6068 46.8654 14.1914 47.4192 14.1914Z" fill="#E6E6E6"/>
<path d="M212.732 17.375H53.4375V99.2722H212.732V17.375Z" fill="#F0F0F0"/>
<path d="M57.3855 99.2031H214.603V101.834H54.6855L57.3855 99.2031Z" fill="#E6E6E6"/>
<path d="M46.8609 99.2031H206.155L203.386 101.834H44.0918L46.8609 99.2031Z" fill="#F0F0F0"/>
<path d="M207.198 22.9141H58.9805V93.7347H207.198V22.9141Z" fill="#FAFAFA"/>
<path d="M124.12 93.6655L91.5827 22.9141H76.2832L108.751 93.6655H124.12Z" fill="white"/>
<path d="M105.501 93.6655L72.9634 22.9141H67.0098L99.4779 93.6655H105.501Z" fill="white"/>
<path d="M59.6728 22.9141H58.9805V93.7347H59.6728V22.9141Z" fill="#E6E6E6"/>
<g opacity="0.4">
<path d="M216.68 12.5312H207.127V80.0982H216.68V12.5312Z" fill="#F0F0F0"/>
<path d="M210.798 12.5312H203.391V80.0982H210.798V12.5312Z" fill="#E6E6E6"/>
<path d="M207.124 12.5312H197.57V80.0982H207.124V12.5312Z" fill="#F0F0F0"/>
<path d="M201.31 12.5312H193.902V80.0982H201.31V12.5312Z" fill="#E6E6E6"/>
<path d="M197.641 12.5312H188.088V80.0982H197.641V12.5312Z" fill="#F0F0F0"/>
</g>
<g opacity="0.4">
<path d="M67.9769 12.5312H62.5078V80.0982H67.9769V12.5312Z" fill="#F0F0F0"/>
<path d="M64.6476 12.5312H60.3555V80.0982H64.6476V12.5312Z" fill="#E6E6E6"/>
<path d="M62.5101 12.5312H57.041V80.0982H62.5101V12.5312Z" fill="#F0F0F0"/>
<path d="M59.1808 12.5312H54.8887V80.0982H59.1808V12.5312Z" fill="#E6E6E6"/>
<path d="M56.9671 12.5312H51.498V80.0982H56.9671V12.5312Z" fill="#F0F0F0"/>
</g>
<path d="M297.889 20.9766H245.76V90.6895H297.889V20.9766Z" fill="#E6E6E6"/>
<path d="M296.572 20.9766H241.812V90.6895H296.572V20.9766Z" fill="#F5F5F5"/>
<path d="M292.004 25.5469H246.383V86.0525H292.004V25.5469Z" fill="white"/>
<path d="M256.42 54.207C256.42 54.207 256.766 63.6221 269.158 63.6221C281.55 63.6221 281.896 54.207 281.896 54.207H256.42Z" fill="#F0F0F0"/>
<path d="M280.578 46.5211C280.578 47.1441 280.44 47.698 280.094 48.2518C279.194 46.6595 277.117 46.1057 275.455 47.0057C274.901 47.2826 274.486 47.7672 274.209 48.2518C273.932 47.7672 273.725 47.1441 273.725 46.5211C273.725 44.6519 275.248 43.1289 277.117 43.1289C279.055 43.1289 280.578 44.6519 280.578 46.5211Z" fill="#F0F0F0"/>
<path d="M264.518 46.5212C264.518 47.1443 264.379 47.6981 264.033 48.2519C263.133 46.6597 261.056 46.0366 259.395 47.0058C258.841 47.2827 258.426 47.7673 258.149 48.2519C257.18 46.6597 257.733 44.5828 259.395 43.6136C260.987 42.6444 263.064 43.1983 264.033 44.8597C264.379 45.3443 264.518 45.9674 264.518 46.5212Z" fill="#F0F0F0"/>
<path d="M234.818 102.529C234.957 101.491 234.957 100.383 234.68 99.3446C234.472 98.3062 234.126 97.337 233.71 96.4371C233.503 95.9525 233.295 95.4679 233.018 95.0525C232.81 94.5679 232.534 94.1525 232.257 93.7371C231.98 93.3218 231.703 92.8372 231.357 92.4218L230.387 91.1757C230.041 90.7603 229.764 90.345 229.349 89.9988C229.003 89.5834 228.657 89.1681 228.311 88.8219C227.549 88.0604 226.857 87.2297 226.095 86.4682C225.334 85.7066 224.572 84.9451 223.811 84.1144C223.049 83.2837 222.219 82.5914 221.457 81.6914C222.495 82.1068 223.534 82.5914 224.572 83.076C225.542 83.6298 226.511 84.1836 227.411 84.8759C227.895 85.2221 228.38 85.5682 228.795 85.9143C229.211 86.2605 229.695 86.6758 230.111 87.022C230.941 87.7835 231.703 88.6835 232.464 89.5142C233.987 91.3142 235.095 93.4602 235.649 95.6755C235.926 96.8524 236.064 98.0293 235.926 99.2062C235.926 100.383 235.51 101.56 234.818 102.529Z" fill="#E6E6E6"/>
<path d="M253.166 99.2053C251.505 97.6823 250.743 95.3977 251.158 93.1132C251.643 90.8979 252.751 88.8903 254.481 87.3673C254.897 86.9519 255.312 86.675 255.727 86.3288C256.143 85.9827 256.558 85.7058 257.043 85.4289C257.527 85.1519 257.943 84.875 258.427 84.6674C258.635 84.5289 258.912 84.3904 259.12 84.3212L259.812 84.0443C260.297 83.8366 260.781 83.6289 261.266 83.4905L262.027 83.2136C262.304 83.1443 262.512 83.0751 262.789 83.0059C263.827 82.729 264.796 82.5213 265.835 82.3828C265.004 83.0751 264.173 83.6289 263.343 84.1828C262.927 84.4597 262.512 84.7366 262.096 85.0135C261.681 85.2904 261.266 85.5673 260.85 85.8442C260.02 86.3288 259.258 87.0211 258.497 87.5749C258.081 87.8519 257.735 88.1288 257.389 88.4749C257.043 88.7518 256.627 89.098 256.281 89.3749C254.897 90.5518 253.858 92.0748 253.166 93.7363C253.097 93.9439 253.028 94.1516 252.958 94.3593C252.889 94.567 252.82 94.7747 252.82 94.9824C252.751 95.467 252.681 95.8823 252.751 96.3669C252.612 97.3361 252.82 98.3053 253.166 99.2053Z" fill="#E6E6E6"/>
<path d="M252.335 99.2023C251.643 98.3024 251.089 97.2639 250.743 96.2255C250.604 95.6717 250.466 95.1179 250.327 94.564C250.258 94.2871 250.258 94.0102 250.189 93.7333C250.12 93.4564 250.189 93.1795 250.189 92.8333C250.189 90.4796 250.743 88.1258 251.92 86.0489L252.889 84.5951C253.235 84.1105 253.65 83.6952 253.997 83.2798L254.55 82.6567L255.173 82.1029C255.589 81.6876 256.073 81.3414 256.489 80.9953C257.389 80.3722 258.358 79.7491 259.396 79.1953C260.435 78.7107 261.473 78.2954 262.512 77.9492C261.75 78.78 260.919 79.4722 260.089 80.2337C259.258 80.9953 258.566 81.7568 257.804 82.5183C257.458 82.9337 257.112 83.2798 256.766 83.6952L256.212 84.249L255.796 84.8721C255.52 85.2874 255.173 85.7028 254.897 86.1182L254.135 87.4335C253.166 89.1642 252.474 91.1026 252.127 93.041C251.85 94.9794 251.92 97.1255 252.335 99.2023Z" fill="#E6E6E6"/>
<path d="M235.785 100.381C236.408 97.9578 237.17 95.6041 237.862 93.3195C238.554 91.035 239.177 88.6812 239.8 86.3274C240.423 83.9737 240.908 81.6892 241.393 79.3354C241.877 76.9816 242.085 74.5586 242.293 72.0664C243.123 74.4894 243.47 76.9816 243.4 79.5431C243.331 82.0353 242.916 84.5967 242.293 87.0197C241.67 89.4427 240.77 91.7965 239.731 94.081C238.693 96.2963 237.377 98.4424 235.785 100.381Z" fill="#E6E6E6"/>
<path d="M236.621 99.9676C237.66 97.5446 238.767 95.2601 239.806 92.9755C240.844 90.691 241.952 88.4065 242.99 86.1912C244.029 83.9759 245.067 81.6221 245.967 79.3376C246.867 77.053 247.698 74.63 248.459 72.207C248.736 74.8377 248.528 77.4684 247.905 79.9606C247.282 82.5221 246.452 84.9451 245.344 87.2988C244.236 89.6526 242.99 91.8679 241.536 94.014C240.152 96.2293 238.49 98.1677 236.621 99.9676Z" fill="#E6E6E6"/>
<path d="M233.434 103.011C234.957 100.934 236.549 98.9263 238.141 96.9187C239.733 94.911 241.256 92.9726 242.779 90.965C244.302 88.9574 245.825 86.9498 247.21 84.9421C248.595 82.9345 249.979 80.7884 251.295 78.5039C250.948 81.0654 250.187 83.6268 249.01 85.9806C247.833 88.3343 246.449 90.5496 244.856 92.5573C243.264 94.5649 241.533 96.5033 239.664 98.234C237.726 100.103 235.649 101.626 233.434 103.011Z" fill="#E6E6E6"/>
<path d="M238.205 99.55C239.728 97.6808 241.182 95.8809 242.705 94.081C244.228 92.281 245.613 90.4811 246.997 88.6812C248.382 86.8812 249.697 85.012 250.943 83.0736C252.189 81.1353 253.297 79.1969 254.474 77.0508C254.266 79.4738 253.712 81.8275 252.743 84.0428C251.774 86.2581 250.528 88.335 249.074 90.2042C247.62 92.0733 245.959 93.8733 244.159 95.3963C242.359 97.127 240.351 98.5116 238.205 99.55Z" fill="#E6E6E6"/>
<path d="M234.403 101.764C235.234 100.033 235.649 98.1641 235.58 96.2257C235.442 94.4257 235.026 92.6258 234.195 91.0336L233.918 90.4105L233.572 89.7874L232.88 88.5413C232.326 87.7798 231.911 86.9491 231.357 86.1183C230.803 85.2876 230.249 84.5261 229.696 83.6953C229.142 82.8646 228.519 82.1031 227.965 81.2031C228.865 81.6877 229.765 82.2415 230.596 82.8646C231.426 83.4877 232.188 84.1799 232.949 84.8722C233.295 85.2184 233.642 85.6337 233.988 86.0491C234.334 86.4645 234.68 86.8799 234.957 87.2952L235.788 88.6106C235.926 88.8182 236.065 89.0952 236.203 89.3028L236.549 90.0644C236.757 90.549 236.965 91.0336 237.103 91.5874C237.241 92.1412 237.38 92.6258 237.518 93.1796C237.657 93.7335 237.657 94.2873 237.657 94.8411C237.657 95.3949 237.588 95.9488 237.518 96.5026C237.311 98.5102 236.134 100.449 234.403 101.764Z" fill="#E6E6E6"/>
<path d="M235.853 99.2726C236.476 97.3342 236.961 95.3266 237.169 93.319C237.376 91.4498 237.238 89.5114 236.753 87.6423C236.546 86.7423 236.2 85.8423 235.715 85.0116C235.507 84.5962 235.23 84.1809 235.023 83.7655C234.815 83.3501 234.469 82.9348 234.192 82.5886C232.946 80.9271 231.561 79.4041 230.107 78.0195C232.184 78.6426 234.123 79.7502 235.715 81.2733C236.546 82.0348 237.238 82.9347 237.861 83.9039C238.138 84.3885 238.415 84.8731 238.692 85.427C238.899 85.9808 239.107 86.5346 239.246 87.0885C239.869 89.3038 239.799 91.6575 239.176 93.8728C238.553 95.8112 237.446 97.6804 235.853 99.2726Z" fill="#E6E6E6"/>
<path d="M239.664 97.4055L251.987 85.6367L251.433 97.1286L239.664 97.4055Z" fill="#E6E6E6"/>
<path d="M226.305 96.1602H258.911L254.619 120.39H230.528L226.305 96.1602Z" fill="#F5F5F5"/>
<path d="M246.658 96.1602H258.912L254.619 120.39H248.181L246.658 96.1602Z" fill="#EBEBEB"/>
<path d="M173.066 257.876C247.201 257.876 307.3 254.374 307.3 250.053C307.3 245.733 247.201 242.23 173.066 242.23C98.9306 242.23 38.832 245.733 38.832 250.053C38.832 254.374 98.9306 257.876 173.066 257.876Z" fill="#F5F5F5"/>
<path d="M271.392 233.68L270.877 237.383L271.563 237.478L272.078 233.775L271.392 233.68Z" fill="#00ABAB"/>
<path d="M274.157 213.695L272.039 228.918L272.725 229.013L274.843 213.791L274.157 213.695Z" fill="#00ABAB"/>
<path d="M273.453 206.23H231.777L236.07 237.176C237.039 244.237 243.062 249.429 250.192 249.429H255.107C262.238 249.429 268.261 244.168 269.23 237.176L273.453 206.23Z" fill="#00ABAB"/>
<path d="M252.615 208.655C264.123 208.655 273.453 207.57 273.453 206.232C273.453 204.893 264.123 203.809 252.615 203.809C241.107 203.809 231.777 204.893 231.777 206.232C231.777 207.57 241.107 208.655 252.615 208.655Z" fill="#263238"/>
<path d="M259.193 193.217C246.87 190.587 251.578 165.872 259.747 147.457C268.054 128.835 273.246 124.958 279.546 125.581C285.915 126.204 278.646 147.18 275.531 160.126C272.415 173.072 273.523 196.263 259.193 193.217Z" fill="#00ABAB"/>
<path opacity="0.4" d="M259.193 193.217C246.87 190.587 251.578 165.872 259.747 147.457C268.054 128.835 273.246 124.958 279.546 125.581C285.915 126.204 278.646 147.18 275.531 160.126C272.415 173.072 273.523 196.263 259.193 193.217Z" fill="white"/>
<path d="M258.224 206.854C258.086 206.854 257.947 206.716 257.947 206.577C258.086 184.563 263.486 152.302 273.178 135.826C273.247 135.687 273.454 135.618 273.593 135.687C273.731 135.757 273.801 135.964 273.662 136.103C263.97 152.51 258.64 184.632 258.501 206.577C258.57 206.785 258.432 206.854 258.224 206.854Z" fill="#263238"/>
<path d="M258.015 170.996C255.73 172.588 253.377 172.796 251.923 174.388C250.954 183.042 252.2 190.172 257.184 192.595C259.053 190.726 259.469 178.196 258.015 170.996Z" fill="#263238"/>
<path d="M257.946 157.911C257.531 171.203 263.415 193.702 248.739 193.702C236.139 193.702 235.655 168.503 239.947 148.773C244.308 128.835 250.192 119.143 256.423 118.451C258.985 118.174 259.815 122.258 259.815 128.074C255.731 128.42 254.623 129.389 254.623 129.389C256.354 129.666 258.085 130.081 259.815 130.635C259.608 139.289 258.154 150.642 257.946 157.911Z" fill="#00ABAB"/>
<path d="M241.955 198.757C250.124 196.195 245.347 179.857 238.562 167.95C231.709 155.904 227.97 153.689 223.817 154.451C219.663 155.212 225.824 168.919 228.801 177.434C231.778 185.95 232.47 201.734 241.955 198.757Z" fill="#00ABAB"/>
<path opacity="0.4" d="M241.955 198.757C250.124 196.195 245.347 179.857 238.562 167.95C231.709 155.904 227.97 153.689 223.817 154.451C219.663 155.212 225.824 168.919 228.801 177.434C231.778 185.95 232.47 201.734 241.955 198.757Z" fill="white"/>
<path d="M243.48 208.034C243.342 208.034 243.203 207.895 243.203 207.757C241.68 193.011 236.003 171.689 228.458 161.305C228.388 161.166 228.388 160.958 228.527 160.889C228.665 160.82 228.804 160.82 228.942 160.958C236.557 171.481 242.303 192.873 243.826 207.688C243.757 207.895 243.688 208.034 243.48 208.034Z" fill="#263238"/>
<path d="M250.539 207.27C250.401 207.27 250.262 207.2 250.262 206.993C245.901 185.463 244.516 152.718 250.678 134.649C250.747 134.511 250.885 134.441 251.024 134.441C251.162 134.511 251.231 134.649 251.231 134.788C245.139 152.787 246.455 185.393 250.816 206.854C250.816 207.062 250.747 207.2 250.539 207.27C250.608 207.2 250.608 207.2 250.539 207.27Z" fill="#263238"/>
<path d="M267.361 150.159C267.223 150.159 267.154 150.09 267.085 150.021C267.015 149.882 267.015 149.675 267.154 149.605C270.2 147.805 274.561 147.667 274.769 147.598C274.907 147.598 275.046 147.805 275.046 147.944C275.046 148.082 274.907 148.151 274.769 148.221C274.7 148.221 270.338 148.359 267.431 150.09C267.431 150.09 267.361 150.09 267.361 150.159Z" fill="#263238"/>
<path d="M262.724 167.187C262.586 167.187 262.447 167.117 262.447 166.979C261.755 164.902 261.27 162.825 261.062 160.679C261.062 160.541 261.201 160.402 261.339 160.402C261.478 160.402 261.616 160.541 261.616 160.679C261.824 162.756 262.309 164.833 263.001 166.841C263.07 166.979 263.001 167.187 262.793 167.187H262.724Z" fill="#263238"/>
<path d="M77.813 64.0352H75.5977V248.39H77.813V64.0352Z" fill="#00ABAB"/>
<path d="M75.6667 126.064C74.836 126.064 74.2129 125.372 74.2129 124.61C74.2129 123.779 74.9052 123.156 75.6667 123.156C76.4974 123.156 77.1205 123.779 77.1205 124.61C77.1897 125.372 76.4974 126.064 75.6667 126.064Z" fill="#00ABAB"/>
<path d="M85.2207 249.428H68.2598C68.2598 248.252 69.1597 247.352 70.3366 247.352H83.1439C84.3207 247.352 85.2207 248.252 85.2207 249.428Z" fill="#00ABAB"/>
<path d="M92.627 105.433H60.8512C59.3281 105.433 58.082 104.187 58.082 102.664C58.082 102.525 58.082 102.387 58.1513 102.249L64.1049 67.7728C64.3126 66.4575 65.4895 65.4883 66.8048 65.4883H86.6041C87.9195 65.4883 89.0963 66.4575 89.304 67.7728L95.2577 102.249C95.5346 103.772 94.4962 105.156 92.9731 105.433C92.8347 105.433 92.6962 105.433 92.627 105.433Z" fill="#00ABAB"/>
<path opacity="0.6" d="M92.627 105.433H60.8512C59.3281 105.433 58.082 104.187 58.082 102.664C58.082 102.525 58.082 102.387 58.1513 102.249L64.1049 67.7728C64.3126 66.4575 65.4895 65.4883 66.8048 65.4883H86.6041C87.9195 65.4883 89.0963 66.4575 89.304 67.7728L95.2577 102.249C95.5346 103.772 94.4962 105.156 92.9731 105.433C92.8347 105.433 92.6962 105.433 92.627 105.433Z" fill="white"/>
<path d="M177.987 7.33758L178.957 6.57607C179.857 5.88378 181.103 6.02224 181.864 6.85298L183.595 8.72215C184.149 9.41443 184.287 10.3144 183.941 11.1451L183.526 12.0451C182.903 13.222 181.795 14.0527 180.48 14.1912L177.711 14.5373C176.257 14.745 174.803 14.2604 173.695 13.222L173.072 12.5989C174.249 9.62211 177.987 7.33758 177.987 7.33758Z" fill="#E4897B"/>
<path d="M145.452 52.061L145.522 51.0919L145.591 50.2611C145.66 49.7073 145.729 49.1535 145.729 48.5996C145.868 47.492 146.006 46.3843 146.214 45.2767C146.629 43.0614 147.114 40.846 147.737 38.7C148.36 36.4847 149.121 34.3386 150.091 32.2617C150.991 30.1156 152.098 28.0388 153.414 26.1004C153.829 25.4773 154.314 24.8543 154.867 24.3005C155.283 23.8159 155.767 23.4005 156.183 22.9851C157.013 22.1544 157.913 21.4621 158.744 20.7698C160.475 19.3852 162.206 18.1391 163.936 16.8238C167.398 14.3316 171.067 12.047 174.736 9.97019C175.913 9.34713 177.367 9.7625 177.99 10.8702C178.543 11.8394 178.336 13.0162 177.574 13.7778C174.597 16.6853 171.482 19.5237 168.505 22.3621C166.982 23.7466 165.529 25.2004 164.144 26.6542C163.452 27.3465 162.759 28.108 162.136 28.8003C161.859 29.1464 161.582 29.4926 161.306 29.7695C161.098 29.9772 160.959 30.1849 160.821 30.4618C159.09 33.854 157.775 37.3846 156.944 41.123C156.46 42.9921 156.113 44.9305 155.767 46.7997C155.629 47.7689 155.49 48.7381 155.352 49.7073L155.213 51.1611L155.144 51.8534L155.075 52.4764V52.7533C154.798 55.384 152.444 57.3224 149.814 57.1147C147.252 56.8378 145.314 54.6917 145.452 52.061Z" fill="#E4897B"/>
<path d="M188.373 29.075C200.211 39.0439 184.565 48.3205 195.573 58.9817C206.58 69.6428 214.818 77.3964 205.818 88.1268C198.55 96.7803 177.158 101.142 161.305 87.0884C145.451 73.035 170.097 62.9969 158.674 54.6203C147.251 46.2436 161.72 27.552 165.874 25.8905C165.597 16.8216 184.496 15.5755 188.373 29.075Z" fill="#263238"/>
<path d="M216.48 85.7738C216.411 85.7738 216.411 85.7738 216.341 85.7738C209.072 82.3124 207.895 76.8433 206.719 71.582C205.611 66.5975 204.434 61.3362 198.342 57.4594C189.273 51.6442 191.142 46.3136 192.804 41.6753C194.327 37.2447 195.711 33.3679 188.027 29.5604C187.819 29.4911 187.75 29.2835 187.888 29.0758C187.958 28.9373 188.165 28.8681 188.373 28.9373C196.611 33.0218 195.088 37.3832 193.496 41.9522C191.904 46.5213 190.173 51.4365 198.757 56.9056C205.126 60.9901 206.372 66.3206 207.48 71.5128C208.657 76.8434 209.765 81.897 216.757 85.22C216.964 85.2892 217.034 85.4969 216.895 85.7046C216.757 85.7046 216.618 85.7738 216.48 85.7738Z" fill="#263238"/>
<path d="M134.096 84.1797C134.096 84.1797 124.266 114.502 118.589 136.17C117.897 138.87 117.551 141.57 117.551 144.339C117.758 166.631 118.243 211.075 118.243 211.075L123.574 211.768C123.574 211.768 136.589 163.308 133.404 145.101C151.819 112.286 157.357 95.3947 157.357 95.3947L134.096 84.1797Z" fill="#263238"/>
<path opacity="0.2" d="M142.748 109.59L147.871 117.551C145.794 121.912 143.233 126.897 140.325 132.574C140.741 125.997 140.118 119.351 138.525 112.913L142.748 109.59Z" fill="black"/>
<path d="M137.42 102.456C134.997 106.955 136.105 112.078 138.458 116.578C142.958 125.232 153.412 139.562 158.465 152.923C162.758 164.277 207.964 184.976 213.017 189.13L216.687 185.46C216.687 185.46 186.226 150.431 173.35 148.216C169.611 104.532 156.666 92.9021 156.666 92.9021C147.666 91.3098 141.435 94.9097 137.42 102.456Z" fill="#263238"/>
<path d="M219.25 184.768C217.658 184.353 216.204 182.968 213.573 180.614C213.227 180.268 212.674 180.337 212.327 180.684C212.258 180.753 212.189 180.891 212.12 180.96C211.358 182.968 210.458 184.906 209.351 186.706C209.074 187.122 209.143 187.606 209.489 187.883C215.858 193.075 215.027 194.183 215.304 196.398C215.65 199.098 214.473 204.152 216.412 203.667C219.181 202.975 220.842 199.444 220.635 196.606C220.496 194.183 220.704 191.275 221.396 189.476C222.089 187.953 221.535 185.322 219.25 184.768Z" fill="#00ABAB"/>
<path d="M125.652 214.125C124.96 212.463 124.96 211.148 126.968 205.263C127.106 204.779 126.899 204.294 126.414 204.156C126.345 204.156 126.345 204.156 126.276 204.087C124.337 203.81 120.114 203.256 117.968 203.464C117.484 203.533 117.137 203.948 117.137 204.433C117.553 208.863 115.199 216.478 109.938 219.94C107.722 221.463 109.176 222.709 111.184 222.432C114.368 222.017 116.514 220.286 119.007 218.971C120.599 218.14 122.26 218.417 124.129 217.794C125.514 217.378 126.345 215.994 125.929 214.609C125.791 214.471 125.722 214.263 125.652 214.125Z" fill="#00ABAB"/>
<path d="M144.553 53.6528C143.515 56.145 137.007 59.8141 140.122 65.3524C138.323 70.4753 136.661 75.5982 134.1 84.1825L158.606 96.0898C160.96 88.6824 164.975 80.9288 175.775 67.0139C178.129 64.0371 177.506 59.6757 174.529 57.3911C174.321 57.2527 174.114 57.1142 173.906 56.9758C173.006 56.4219 171.968 55.7989 170.929 55.2451C167.329 53.1682 163.66 51.3683 159.783 49.8452C158.537 49.3606 157.222 48.9453 155.976 48.5299C151.407 47.0069 146.491 49.2222 144.553 53.6528Z" fill="#00ABAB"/>
<path d="M159.779 49.7757C156.871 48.5296 154.448 43.8221 155.556 39.9453C151.541 40.2222 146.833 42.7144 145.241 46.3836C144.618 50.1219 144.549 57.5293 144.549 57.5293L159.779 49.7757Z" fill="#00ABAB"/>
<path d="M230.188 60.0224L231.227 59.2609C232.127 58.5686 232.334 57.3225 231.781 56.4225L230.396 54.2764C229.911 53.5149 229.011 53.1688 228.181 53.3072L227.142 53.5149C225.827 53.7918 224.789 54.6918 224.235 55.8687L223.127 58.4301C222.573 59.8147 222.642 61.3377 223.335 62.6531L223.75 63.4146C227.004 63.0684 230.188 60.0224 230.188 60.0224Z" fill="#E4897B"/>
<path d="M173.072 58.4293L186.017 59.8138C188.163 60.0215 190.309 60.2292 192.456 60.4369L195.64 60.7138C196.678 60.783 197.786 60.8523 198.478 60.8523C200.417 60.783 202.632 60.5754 204.709 60.3677L211.216 59.6754C215.578 59.1908 219.939 58.7754 224.37 58.4293C225.685 58.36 226.862 59.3292 226.931 60.6446C227 61.7522 226.308 62.7907 225.27 63.1368C221.047 64.5214 216.755 65.6982 212.463 66.7367C210.316 67.2905 208.101 67.7751 205.955 68.2597C203.809 68.7443 201.594 69.1597 199.101 69.4366C197.578 69.575 196.54 69.575 195.363 69.575C194.186 69.575 193.079 69.575 191.902 69.575C189.617 69.5058 187.402 69.4366 185.117 69.2981C180.617 69.0212 176.187 68.6058 171.756 67.9828C169.126 67.3597 167.533 64.7291 168.156 62.1676C168.71 59.9523 170.649 58.4293 172.933 58.4293H173.072Z" fill="#E4897B"/>
<path d="M161.238 89.9257C162.276 90.618 159.784 95.0486 160.753 96.8485C161.722 98.6485 162.138 99.6177 161.238 99.8946C160.338 100.172 142.684 96.5024 133.062 89.2334C132.715 88.9565 132.508 88.4719 132.508 88.0565C132.785 84.249 134.585 78.9876 135.692 78.9184C136.8 78.8492 157.292 87.3642 161.238 89.9257Z" fill="#00ABAB"/>
<path opacity="0.4" d="M161.238 89.9257C162.276 90.618 159.784 95.0486 160.753 96.8485C161.722 98.6485 162.138 99.6177 161.238 99.8946C160.338 100.172 142.684 96.5024 133.062 89.2334C132.715 88.9565 132.508 88.4719 132.508 88.0565C132.785 84.249 134.585 78.9876 135.692 78.9184C136.8 78.8492 157.292 87.3642 161.238 89.9257Z" fill="white"/>
<path d="M175.913 42.0898C173.49 45.3436 169.613 51.5049 170.928 55.174C170.928 55.174 162.205 52.5433 153.621 57.2509C154.036 50.1203 159.782 49.7742 159.782 49.7742C164.213 50.7434 165.598 47.7666 166.221 44.6513L175.913 42.0898Z" fill="#E4897B"/>
<path opacity="0.2" d="M171.964 43.1289L166.287 44.6519C166.149 45.4134 165.941 46.1057 165.664 46.798C167.326 47.3518 170.233 46.6595 171.133 45.1365C171.479 44.5135 171.825 43.8212 171.964 43.1289Z" fill="black"/>
<path d="M182.42 38.1437C178.198 43.2666 176.605 46.1742 171.829 46.3819C163.729 46.728 160.752 40.1513 162.76 35.3745C165.183 29.767 171.067 22.0135 177.782 23.6057C184.497 25.198 186.643 32.9515 182.42 38.1437Z" fill="#E4897B"/>
<path d="M171.064 21.874C171.411 25.8893 178.749 31.4276 181.033 32.7429C177.987 34.1967 176.603 40.7734 182.141 41.3272C187.748 41.9503 192.664 19.3126 171.064 21.874Z" fill="#263238"/>
<path d="M165.115 34.75C165.115 34.75 167.33 35.2346 172.869 37.796C171.484 38.9729 169.684 39.6652 166.777 38.3499C163.869 37.0345 165.115 34.75 165.115 34.75Z" fill="#263238"/>
<path d="M168.711 37.7286C167.673 37.1747 166.427 36.9671 165.25 37.0363C165.665 37.5901 166.15 38.0055 166.842 38.2824C167.881 38.8362 169.127 39.1131 170.304 38.9747C169.888 38.4209 169.334 38.0055 168.711 37.7286Z" fill="#ED847E"/>
<path d="M165.386 34.8203C165.317 35.2357 165.525 35.7203 165.871 35.9972C167.532 36.7587 169.263 37.3818 170.994 37.8664C171.548 38.074 172.101 38.0048 172.586 37.7279C170.302 36.551 167.879 35.5818 165.386 34.8203Z" fill="white"/>
<path d="M169.75 30.4609C168.643 31.1532 167.466 31.707 166.15 32.1224C166.358 33.0916 167.466 33.5762 167.466 33.5762L169.75 30.4609Z" fill="#ED847E"/>
<path d="M180.76 43.1979C179.721 43.821 178.475 43.9594 177.298 43.5441C175.845 42.9902 176.191 41.2595 177.506 40.2211C178.683 39.2519 180.829 38.3519 181.867 39.4596C182.906 40.5672 182.144 42.4364 180.76 43.1979Z" fill="#E4897B"/>
<path d="M175.908 33.0223C175.838 32.9531 175.838 32.8838 175.908 32.7454C176.254 31.9839 176.254 31.1531 175.838 30.4608C175.769 30.3224 175.769 30.1147 175.908 30.0455C176.046 29.9762 176.254 29.9762 176.323 30.1147C176.877 31.0147 176.877 32.0531 176.461 33.0223C176.392 33.1607 176.185 33.23 176.046 33.1608C176.046 33.1608 175.977 33.0915 175.908 33.0223Z" fill="#263238"/>
<path d="M173.352 33.2288C173.282 33.1596 173.282 33.1596 173.282 33.0903C173.282 32.5365 173.075 31.9827 172.59 31.6365C172.521 31.5673 172.452 31.4289 172.521 31.3596C172.59 31.2904 172.729 31.2212 172.798 31.2904C173.352 31.7058 173.698 32.3981 173.629 33.0903C173.629 33.2288 173.49 33.298 173.421 33.298L173.352 33.2288Z" fill="#263238"/>
<path d="M168.987 29.3532C168.918 29.3532 168.849 29.3532 168.849 29.284C168.433 28.9378 167.879 28.7301 167.326 28.8686C167.187 28.9378 167.118 28.8686 167.049 28.7301C166.979 28.5917 167.049 28.5225 167.187 28.4532C167.879 28.3148 168.572 28.4532 169.125 28.9378C169.195 29.0071 169.195 29.1455 169.125 29.2147C169.056 29.284 168.987 29.3532 168.987 29.3532Z" fill="#263238"/>
<path d="M168.847 26.0291C168.778 26.0291 168.709 25.9598 168.709 25.8906C168.64 25.7522 168.709 25.5445 168.847 25.4752C169.747 25.0599 170.855 25.0599 171.755 25.5445C171.893 25.6137 171.963 25.8214 171.824 25.9598C171.755 26.0983 171.547 26.1675 171.409 26.0983C170.716 25.6829 169.816 25.6829 169.124 26.0291C169.055 26.0291 168.916 26.0291 168.847 26.0291Z" fill="#263238"/>
<path opacity="0.2" d="M149.813 64.7969C151.267 68.3968 153.828 71.3736 157.151 73.312C151.267 72.1351 149.674 67.4276 149.813 64.7969Z" fill="black"/>
<path d="M170.934 55.1758C174.118 57.3219 182.979 58.0834 185.887 58.2911C186.164 58.2911 186.441 58.568 186.441 58.8449C186.441 58.9833 186.371 59.0526 186.302 59.1218C184.987 60.5064 180.626 66.6677 180.487 69.7137C180.418 70.3368 180.002 70.8906 179.379 71.0291C170.864 72.8983 166.988 71.8598 165.395 69.7137C163.665 67.4292 170.934 55.1758 170.934 55.1758Z" fill="#00ABAB"/>
</svg>
