<svg width="29" height="30" viewBox="0 0 29 30" fill="none" xmlns="http://www.w3.org/2000/svg">
<path d="M13.9359 20.1648C10.8628 20.1648 8.36328 17.6653 8.36328 14.5922C8.36328 11.519 10.8628 9.01953 13.9359 9.01953C17.0091 9.01953 19.5086 11.519 19.5086 14.5922C19.5086 17.6653 17.0091 20.1648 13.9359 20.1648ZM13.9359 11.2105C12.0707 11.2105 10.5543 12.7269 10.5543 14.5922C10.5543 16.4574 12.0707 17.9738 13.9359 17.9738C15.8012 17.9738 17.3176 16.4574 17.3176 14.5922C17.3176 12.7269 15.8012 11.2105 13.9359 11.2105Z" fill="#00ABAB"/>
<path d="M13.9256 5.24019C13.3202 5.24019 12.8301 4.7501 12.8301 4.14469V1.158C12.8301 0.552593 13.3202 0.0625 13.9256 0.0625C14.531 0.0625 15.0211 0.552593 15.0211 1.158V4.14469C15.0211 4.74721 14.531 5.24019 13.9256 5.24019Z" fill="#00ABAB"/>
<path d="M21.3963 8.22354C21.1166 8.22354 20.837 8.11687 20.6208 7.90354C20.1941 7.47687 20.1941 6.78209 20.6208 6.35542L22.7109 4.26531C23.1376 3.83865 23.8323 3.83865 24.259 4.26531C24.6857 4.69198 24.6857 5.38676 24.259 5.81343L22.1718 7.90354C21.9556 8.11687 21.6759 8.22354 21.3963 8.22354Z" fill="#00ABAB"/>
<path d="M27.3693 15.6871H24.3826C23.7772 15.6871 23.2871 15.197 23.2871 14.5916C23.2871 13.9862 23.7772 13.4961 24.3826 13.4961H27.3693C27.9747 13.4961 28.4648 13.9862 28.4648 14.5916C28.4648 15.197 27.9747 15.6871 27.3693 15.6871Z" fill="#00ABAB"/>
<path d="M23.4864 25.2431C23.2067 25.2431 22.9271 25.1364 22.7109 24.9231L20.6208 22.833C20.1941 22.4063 20.1941 21.7115 20.6208 21.2848C21.0475 20.8582 21.7422 20.8582 22.1689 21.2848L24.259 23.3749C24.6857 23.8016 24.6857 24.4964 24.259 24.9231C24.0457 25.1364 23.766 25.2431 23.4864 25.2431Z" fill="#00ABAB"/>
<path d="M13.9256 29.123C13.3202 29.123 12.8301 28.6329 12.8301 28.0275V25.0408C12.8301 24.4354 13.3202 23.9453 13.9256 23.9453C14.531 23.9453 15.0211 24.4354 15.0211 25.0408V28.0275C15.0211 28.6329 14.531 29.123 13.9256 29.123Z" fill="#00ABAB"/>
<path d="M4.38066 25.2431C4.10102 25.2431 3.82138 25.1364 3.60516 24.9231C3.17849 24.4964 3.17849 23.8016 3.60516 23.3749L5.69526 21.2848C6.12193 20.8582 6.81671 20.8582 7.24338 21.2848C7.67005 21.7115 7.67005 22.4063 7.24338 22.833L5.15328 24.9231C4.94282 25.1364 4.66318 25.2431 4.38066 25.2431Z" fill="#00ABAB"/>
<path d="M4.97774 15.6871H1.99394C1.38853 15.6871 0.898438 15.197 0.898438 14.5916C0.898438 13.9862 1.38853 13.4961 1.99394 13.4961H4.98062C5.58603 13.4961 6.07613 13.9862 6.07613 14.5916C6.07613 15.197 5.58315 15.6871 4.97774 15.6871Z" fill="#00ABAB"/>
<path d="M6.47076 8.22354C6.19112 8.22354 5.91148 8.11687 5.69526 7.90354L3.60516 5.81343C3.17849 5.38676 3.17849 4.69198 3.60516 4.26531C4.03183 3.83865 4.72661 3.83865 5.15328 4.26531L7.24338 6.35542C7.67005 6.78209 7.67005 7.47687 7.24338 7.90354C7.03293 8.11687 6.7504 8.22354 6.47076 8.22354Z" fill="#00ABAB"/>
</svg>
