<svg width="24" height="24" viewBox="0 0 24 24" fill="none" xmlns="http://www.w3.org/2000/svg">
<mask id="mask0_17270_36095" style="mask-type:alpha" maskUnits="userSpaceOnUse" x="0" y="0" width="24" height="24">
<rect width="24" height="24" fill="#D9D9D9"/>
</mask>
<g mask="url(#mask0_17270_36095)">
<path d="M4.32692 19.6742V18.1743H7.25L6.52308 17.4781C5.70128 16.7178 5.11697 15.8669 4.77017 14.9252C4.42339 13.9835 4.25 13.0319 4.25 12.0704C4.25 10.3422 4.75608 8.79255 5.76825 7.4214C6.78042 6.05025 8.10765 5.1089 9.74995 4.59735V6.17807C8.54355 6.64987 7.57528 7.42263 6.84515 8.49635C6.11502 9.57008 5.74995 10.7614 5.74995 12.0704C5.74995 12.8525 5.89803 13.6121 6.1942 14.3492C6.49035 15.0864 6.95124 15.7678 7.57687 16.3935L8.21153 17.0282V14.2896H9.7115V19.6742H4.32692ZM14.25 19.405V17.8243C15.4564 17.3525 16.4247 16.5797 17.1548 15.506C17.8849 14.4323 18.25 13.2409 18.25 11.9319C18.25 11.1499 18.1019 10.3903 17.8058 9.6531C17.5096 8.91592 17.0487 8.2345 16.4231 7.60885L15.7884 6.9742V9.7127H14.2885V4.32812H19.673V5.82807H16.75L17.4769 6.52428C18.2679 7.31529 18.8445 8.17394 19.2067 9.10022C19.5689 10.0265 19.75 10.9704 19.75 11.9319C19.75 13.6601 19.2439 15.2098 18.2317 16.581C17.2195 17.9521 15.8923 18.8935 14.25 19.405Z" fill="#1C1B1F"/>
</g>
</svg>
